<?xml version="1.0" encoding="UTF-8" ?>
<!DOCTYPE svg PUBLIC "-//W3C//DTD SVG 1.1//EN" "http://www.w3.org/Graphics/SVG/1.1/DTD/svg11.dtd">
<svg width="256pt" height="256pt" viewBox="0 0 256 256" version="1.1" xmlns="http://www.w3.org/2000/svg">
<g id="#2a1f18">
<path fill="#2a1f18" opacity="1.00" d=" M 0.00 66.85 C 0.06 63.17 3.55 61.03 6.96 61.44 C 87.65 61.43 168.36 61.44 249.06 61.43 C 252.32 61.07 255.66 62.98 256.00 66.47 L 256.00 67.33 C 254.44 70.78 251.44 73.20 248.83 75.83 C 209.98 114.66 171.16 153.52 132.30 192.34 C 130.11 195.10 125.93 195.13 123.73 192.37 C 84.70 153.39 45.72 114.35 6.70 75.37 C 4.22 72.95 1.55 70.59 0.00 67.43 L 0.00 66.85 M 17.44 71.67 C 54.28 108.53 91.13 145.39 128.00 182.23 C 164.87 145.39 201.72 108.53 238.56 71.67 C 164.85 71.66 91.15 71.66 17.44 71.67 Z" />
<path fill="#2a1f18" opacity="1.00" d=" M 64.36 99.43 C 66.62 98.06 69.43 99.06 71.06 100.92 C 84.90 114.76 98.78 128.57 112.57 142.46 C 115.12 144.64 114.80 149.15 111.75 150.71 C 109.45 152.20 106.58 151.06 104.91 149.19 C 91.22 135.49 77.50 121.81 63.83 108.10 C 61.05 105.92 61.10 101.10 64.36 99.43 Z" />
<path fill="#2a1f18" opacity="1.00" d=" M 121.41 156.36 C 125.02 154.40 128.45 157.72 130.36 160.50 C 132.37 163.30 130.44 167.68 127.04 168.14 C 123.97 168.74 121.63 166.12 119.87 164.01 C 117.85 161.70 118.64 157.69 121.41 156.36 Z" />
</g>
<g id="#bd9970">
<path fill="#bd9970" opacity="1.00" d=" M 17.44 71.67 C 91.15 71.66 164.85 71.66 238.56 71.67 C 201.72 108.53 164.87 145.39 128.00 182.23 C 91.13 145.39 54.28 108.53 17.44 71.67 M 64.36 99.43 C 61.10 101.10 61.05 105.92 63.83 108.10 C 77.50 121.81 91.22 135.49 104.91 149.19 C 106.58 151.06 109.45 152.20 111.75 150.71 C 114.80 149.15 115.12 144.64 112.57 142.46 C 98.78 128.57 84.90 114.76 71.06 100.92 C 69.43 99.06 66.62 98.06 64.36 99.43 M 121.41 156.36 C 118.64 157.69 117.85 161.70 119.87 164.01 C 121.63 166.12 123.97 168.74 127.04 168.14 C 130.44 167.68 132.37 163.30 130.36 160.50 C 128.45 157.72 125.02 154.40 121.41 156.36 Z" />
</g>
</svg>
