<?xml version="1.0" encoding="UTF-8" ?>
<!DOCTYPE svg PUBLIC "-//W3C//DTD SVG 1.1//EN" "http://www.w3.org/Graphics/SVG/1.1/DTD/svg11.dtd">
<svg width="256pt" height="256pt" viewBox="0 0 256 256" version="1.1" xmlns="http://www.w3.org/2000/svg">
<g id="#000000ff">
<path fill="#000000" opacity="1.00" d=" M 124.43 0.00 L 131.57 0.00 C 162.75 0.82 193.43 13.43 215.96 35.03 C 240.49 57.96 255.12 90.85 256.00 124.40 L 256.00 133.32 C 254.62 162.98 242.93 192.09 222.79 213.99 C 199.77 239.66 166.06 255.14 131.60 256.00 L 124.42 256.00 C 94.20 255.15 64.41 243.33 42.11 222.87 C 20.12 203.07 5.27 175.45 1.29 146.09 C 0.77 142.15 0.39 138.21 0.00 134.26 L 0.00 121.90 C 0.41 117.54 0.82 113.18 1.44 108.84 C 5.59 80.12 20.12 53.14 41.57 33.62 C 63.92 12.86 93.96 0.84 124.43 0.00 M 114.51 10.78 C 88.26 13.71 63.21 25.90 44.60 44.63 C 25.55 63.56 13.27 89.17 10.63 115.91 C 7.96 141.41 13.88 167.73 27.37 189.54 C 42.34 214.02 66.47 232.77 93.99 240.96 C 119.97 248.88 148.70 247.37 173.70 236.76 C 199.96 225.77 221.90 204.91 234.24 179.25 C 247.07 152.98 249.48 121.86 240.95 93.90 C 232.66 66.20 213.72 41.92 188.96 27.01 C 166.87 13.50 140.21 7.80 114.51 10.78 Z" />
<path fill="#000000" opacity="1.00" d=" M 122.79 28.13 C 123.08 25.46 125.20 22.90 128.05 22.99 C 130.87 22.96 132.91 25.49 133.20 28.13 C 132.66 30.62 130.82 33.06 128.04 33.01 C 125.22 33.12 123.33 30.64 122.79 28.13 Z" />
<path fill="#000000" opacity="1.00" d=" M 34.41 80.42 C 48.11 53.15 74.32 32.56 104.07 25.77 C 106.92 24.76 109.88 26.73 110.73 29.48 C 110.88 32.45 109.01 35.20 105.96 35.57 C 81.23 41.31 59.10 57.41 46.25 79.33 C 34.77 98.57 30.57 121.95 34.37 144.01 C 37.68 163.75 47.53 182.28 61.93 196.16 C 77.45 211.30 98.30 220.87 119.92 222.63 C 140.76 224.47 162.14 219.15 179.65 207.68 C 198.03 195.78 212.10 177.35 218.62 156.43 C 225.63 134.26 224.13 109.53 214.46 88.38 C 202.71 62.05 178.16 42.01 150.07 35.58 C 147.02 35.21 145.08 32.47 145.27 29.48 C 146.11 26.69 149.13 24.74 152.00 25.78 C 174.14 30.91 194.43 43.56 208.90 61.08 C 225.46 80.98 234.17 107.18 232.85 133.03 C 231.85 155.54 223.26 177.59 208.84 194.89 C 192.70 214.51 169.23 227.96 144.08 231.74 C 119.84 235.58 94.32 230.49 73.41 217.63 C 49.97 203.41 32.48 179.70 26.03 153.03 C 20.03 128.85 23.07 102.59 34.41 80.42 Z" />
<path fill="#000000" opacity="1.00" d=" M 117.09 64.07 C 126.35 60.38 137.35 61.80 145.48 67.52 C 161.49 78.44 166.34 101.16 158.93 118.57 C 168.49 117.04 178.89 119.23 186.26 125.73 C 194.34 132.57 197.98 143.70 196.70 154.08 C 194.52 174.56 175.75 191.97 155.04 191.98 C 144.35 192.21 133.80 186.74 128.00 177.73 C 122.39 186.45 112.33 191.88 101.98 191.97 C 80.94 192.52 61.50 174.93 59.29 154.12 C 57.99 143.73 61.63 132.57 69.74 125.74 C 77.10 119.22 87.52 117.04 97.08 118.59 C 92.48 107.42 92.48 94.38 97.48 83.35 C 101.31 74.80 108.26 67.46 117.09 64.07 M 112.12 79.16 C 99.18 92.60 101.27 117.63 117.24 127.84 C 115.01 120.14 115.51 111.54 119.49 104.48 C 121.96 99.52 127.08 96.34 128.88 90.98 C 131.36 84.66 129.90 77.35 125.88 72.00 C 120.67 72.84 115.71 75.25 112.12 79.16 M 138.74 74.95 C 141.10 82.92 140.41 91.86 136.07 99.04 C 133.63 103.48 129.09 106.46 127.30 111.29 C 124.57 117.69 126.02 125.20 130.03 130.73 C 135.23 130.00 140.14 127.56 143.75 123.74 C 156.80 110.34 154.80 85.14 138.74 74.95 M 76.65 132.82 C 77.62 139.34 81.68 145.43 87.77 148.19 C 92.94 150.84 99.01 149.42 104.41 151.31 C 112.12 153.52 118.38 159.23 122.26 166.15 C 126.60 147.10 109.19 127.45 89.99 128.08 C 85.15 128.16 80.53 130.00 76.65 132.82 M 157.92 129.01 C 142.22 133.05 130.02 149.87 133.74 166.18 C 137.63 159.13 144.06 153.36 151.92 151.22 C 157.23 149.44 163.19 150.81 168.26 148.16 C 174.34 145.40 178.37 139.31 179.35 132.80 C 173.32 128.17 165.17 127.02 157.92 129.01 M 69.70 143.87 C 65.92 160.58 78.81 177.92 95.13 181.34 C 102.05 182.96 109.64 181.59 115.31 177.21 C 114.28 170.66 110.21 164.54 104.05 161.81 C 99.06 159.28 93.23 160.58 88.02 158.89 C 80.11 156.75 73.57 150.99 69.70 143.87 M 167.96 158.89 C 162.75 160.59 156.94 159.28 151.96 161.80 C 145.80 164.53 141.69 170.65 140.69 177.22 C 146.37 181.59 153.95 182.97 160.88 181.33 C 177.20 177.90 190.05 160.59 186.30 143.87 C 182.40 150.99 175.88 156.76 167.96 158.89 Z" />
</g>
<g id="#806443">
<path fill="#806443" opacity="1.00" d=" M 114.51 10.78 C 140.21 7.80 166.87 13.50 188.96 27.01 C 213.72 41.92 232.66 66.20 240.95 93.90 C 249.48 121.86 247.07 152.98 234.24 179.25 C 221.90 204.91 199.96 225.77 173.70 236.76 C 148.70 247.37 119.97 248.88 93.99 240.96 C 66.47 232.77 42.34 214.02 27.37 189.54 C 13.88 167.73 7.96 141.41 10.63 115.91 C 13.27 89.17 25.55 63.56 44.60 44.63 C 63.21 25.90 88.26 13.71 114.51 10.78 M 122.79 28.13 C 118.75 28.38 114.72 28.82 110.73 29.48 C 109.88 26.73 106.92 24.76 104.07 25.77 C 74.32 32.56 48.11 53.15 34.41 80.42 C 23.07 102.59 20.03 128.85 26.03 153.03 C 32.48 179.70 49.97 203.41 73.41 217.63 C 94.32 230.49 119.84 235.58 144.08 231.74 C 169.23 227.96 192.70 214.51 208.84 194.89 C 223.26 177.59 231.85 155.54 232.85 133.03 C 234.17 107.18 225.46 80.98 208.90 61.08 C 194.43 43.56 174.14 30.91 152.00 25.78 C 149.13 24.74 146.11 26.69 145.27 29.48 C 141.27 28.82 137.24 28.38 133.20 28.13 C 132.91 25.49 130.87 22.96 128.05 22.99 C 125.20 22.90 123.08 25.46 122.79 28.13 Z" />
</g>
<g id="#efc99d">
<path fill="#efc99d" opacity="1.00" d=" M 110.73 29.48 C 114.72 28.82 118.75 28.38 122.79 28.13 C 123.33 30.64 125.22 33.12 128.04 33.01 C 130.82 33.06 132.66 30.62 133.20 28.13 C 137.24 28.38 141.27 28.82 145.27 29.48 C 145.08 32.47 147.02 35.21 150.07 35.58 C 178.16 42.01 202.71 62.05 214.46 88.38 C 224.13 109.53 225.63 134.26 218.62 156.43 C 212.10 177.35 198.03 195.78 179.65 207.68 C 162.14 219.15 140.76 224.47 119.92 222.63 C 98.30 220.87 77.45 211.30 61.93 196.16 C 47.53 182.28 37.68 163.75 34.37 144.01 C 30.57 121.95 34.77 98.57 46.25 79.33 C 59.10 57.41 81.23 41.31 105.96 35.57 C 109.01 35.20 110.88 32.45 110.73 29.48 M 117.09 64.07 C 108.26 67.46 101.31 74.80 97.48 83.35 C 92.48 94.38 92.48 107.42 97.08 118.59 C 87.52 117.04 77.10 119.22 69.74 125.74 C 61.63 132.57 57.99 143.73 59.29 154.12 C 61.50 174.93 80.94 192.52 101.98 191.97 C 112.33 191.88 122.39 186.45 128.00 177.73 C 133.80 186.74 144.35 192.21 155.04 191.98 C 175.75 191.97 194.52 174.56 196.70 154.08 C 197.98 143.70 194.34 132.57 186.26 125.73 C 178.89 119.23 168.49 117.04 158.93 118.57 C 166.34 101.16 161.49 78.44 145.48 67.52 C 137.35 61.80 126.35 60.38 117.09 64.07 Z" />
</g>
<g id="#d1a184ff">
<path fill="#d1a184" opacity="1.00" d=" M 112.12 79.16 C 115.71 75.25 120.67 72.84 125.88 72.00 C 129.90 77.35 131.36 84.66 128.88 90.98 C 127.08 96.34 121.96 99.52 119.49 104.48 C 115.51 111.54 115.01 120.14 117.24 127.84 C 101.27 117.63 99.18 92.60 112.12 79.16 Z" />
<path fill="#d1a184" opacity="1.00" d=" M 76.65 132.82 C 80.53 130.00 85.15 128.16 89.99 128.08 C 109.19 127.45 126.60 147.10 122.26 166.15 C 118.38 159.23 112.12 153.52 104.41 151.31 C 99.01 149.42 92.94 150.84 87.77 148.19 C 81.68 145.43 77.62 139.34 76.65 132.82 Z" />
<path fill="#d1a184" opacity="1.00" d=" M 157.92 129.01 C 165.17 127.02 173.32 128.17 179.35 132.80 C 178.37 139.31 174.34 145.40 168.26 148.16 C 163.19 150.81 157.23 149.44 151.92 151.22 C 144.06 153.36 137.63 159.13 133.74 166.18 C 130.02 149.87 142.22 133.05 157.92 129.01 Z" />
</g>
<g id="#c68a65ff">
<path fill="#c68a65" opacity="1.00" d=" M 138.74 74.95 C 154.80 85.14 156.80 110.34 143.75 123.74 C 140.14 127.56 135.23 130.00 130.03 130.73 C 126.02 125.20 124.57 117.69 127.30 111.29 C 129.09 106.46 133.63 103.48 136.07 99.04 C 140.41 91.86 141.10 82.92 138.74 74.95 Z" />
<path fill="#c68a65" opacity="1.00" d=" M 69.70 143.87 C 73.57 150.99 80.11 156.75 88.02 158.89 C 93.23 160.58 99.06 159.28 104.05 161.81 C 110.21 164.54 114.28 170.66 115.31 177.21 C 109.64 181.59 102.05 182.96 95.13 181.34 C 78.81 177.92 65.92 160.58 69.70 143.87 Z" />
<path fill="#c68a65" opacity="1.00" d=" M 167.96 158.89 C 175.88 156.76 182.40 150.99 186.30 143.87 C 190.05 160.59 177.20 177.90 160.88 181.33 C 153.95 182.97 146.37 181.59 140.69 177.22 C 141.69 170.65 145.80 164.53 151.96 161.80 C 156.94 159.28 162.75 160.59 167.96 158.89 Z" />
</g>
</svg>
