<?xml version="1.0" encoding="UTF-8" ?>
<!DOCTYPE svg PUBLIC "-//W3C//DTD SVG 1.1//EN" "http://www.w3.org/Graphics/SVG/1.1/DTD/svg11.dtd">
<svg width="256pt" height="256pt" viewBox="0 0 256 256" version="1.1" xmlns="http://www.w3.org/2000/svg">
<g id="#000000ff">
<path fill="#000000" opacity="1.00" d=" M 112.61 10.37 C 126.68 6.40 142.16 8.19 155.12 14.89 C 162.48 18.50 168.56 24.09 175.18 28.81 C 186.52 37.09 198.70 44.54 212.16 48.80 C 219.88 51.17 227.86 53.33 236.01 52.88 C 240.71 52.97 245.93 52.13 250.06 54.93 C 253.38 56.93 255.24 60.57 256.00 64.27 L 256.00 84.38 C 254.67 90.52 249.30 95.05 243.03 95.38 C 243.79 130.48 239.90 165.59 232.50 199.88 C 230.05 210.41 230.12 221.42 232.06 232.02 C 233.72 239.83 226.83 247.66 219.00 247.69 C 197.00 247.82 174.99 247.66 152.99 247.76 C 150.18 248.10 147.56 247.16 145.69 245.04 C 145.69 243.79 145.70 242.55 145.70 241.31 C 146.45 239.04 148.59 237.52 151.00 237.76 C 173.36 237.67 195.73 237.80 218.10 237.70 C 220.59 238.00 223.01 235.56 222.09 233.06 C 220.03 221.31 220.07 209.13 222.78 197.49 C 229.99 163.92 233.83 129.55 233.00 95.20 C 163.00 95.20 93.00 95.20 22.99 95.20 C 22.15 129.58 25.99 163.98 33.23 197.58 C 35.91 209.17 35.96 221.30 33.91 233.00 C 32.96 235.53 35.41 238.03 37.95 237.71 C 60.29 237.80 82.64 237.67 104.99 237.76 C 107.40 237.51 109.53 239.05 110.29 241.32 C 110.30 242.55 110.30 243.79 110.31 245.02 C 108.79 246.33 107.22 247.92 105.03 247.70 C 82.66 247.78 60.28 247.72 37.91 247.72 C 31.80 247.96 25.88 243.74 24.20 237.85 C 23.29 235.11 23.89 232.23 24.32 229.47 C 26.03 219.22 25.62 208.64 23.22 198.53 C 15.96 164.68 12.21 130.02 12.96 95.38 C 6.75 95.02 1.39 90.56 0.00 84.49 L 0.00 63.61 C 1.25 58.65 4.99 54.13 10.21 53.18 C 15.44 52.43 20.75 53.16 26.01 52.79 C 48.90 50.29 69.24 38.11 87.03 24.16 C 94.56 17.97 103.13 12.87 112.61 10.37 M 105.00 24.03 C 97.44 27.81 91.50 33.98 84.55 38.68 C 77.05 44.14 68.84 48.49 60.65 52.79 C 105.59 52.94 150.55 52.88 195.49 52.81 C 183.78 46.96 172.49 40.18 162.42 31.78 C 155.65 26.05 147.71 21.53 139.01 19.58 C 127.62 16.80 115.34 18.61 105.00 24.03 M 11.28 63.37 C 9.69 64.34 10.10 66.44 9.98 67.99 C 10.10 73.01 9.79 78.04 10.15 83.04 C 10.49 84.82 12.48 85.35 14.05 85.19 C 88.04 85.21 162.04 85.19 236.04 85.21 C 238.70 85.18 241.38 85.36 244.03 85.02 C 246.19 84.35 246.02 81.81 246.02 80.01 C 245.90 74.99 246.22 69.95 245.84 64.95 C 245.46 63.19 243.50 62.72 241.96 62.87 C 166.65 62.85 91.34 62.90 16.03 62.84 C 14.46 62.99 12.70 62.55 11.28 63.37 Z" />
<path fill="#000000" opacity="1.00" d=" M 126.53 113.59 C 134.26 111.84 142.58 112.08 149.94 115.19 C 158.75 118.83 165.62 126.71 168.11 135.91 C 171.20 147.02 168.70 159.11 163.00 168.96 C 155.02 182.71 140.84 193.18 124.89 195.11 C 115.01 196.42 104.38 193.81 97.00 186.92 C 89.56 180.22 86.05 169.91 86.64 160.04 C 87.84 138.05 105.31 118.57 126.53 113.59 M 122.40 125.40 C 110.24 130.68 100.48 141.67 97.37 154.64 C 95.62 161.96 96.44 170.13 100.88 176.37 C 107.66 173.04 114.33 168.85 118.74 162.58 C 124.42 154.86 125.65 144.92 131.00 137.02 C 134.62 131.52 139.93 127.34 145.79 124.42 C 138.35 121.18 129.70 122.35 122.40 125.40 M 141.22 140.17 C 136.32 145.75 134.81 153.24 131.75 159.82 C 128.67 166.84 123.83 173.08 117.74 177.74 C 115.18 179.84 112.13 181.26 109.69 183.50 C 118.82 187.05 129.25 185.32 137.60 180.54 C 149.06 174.03 157.92 162.23 159.31 148.93 C 160.03 142.76 158.51 136.43 155.04 131.28 C 149.96 133.37 144.81 135.88 141.22 140.17 Z" />
<path fill="#000000" opacity="1.00" d=" M 49.08 213.13 C 51.96 212.45 55.05 212.55 57.95 213.05 C 62.26 214.45 62.07 221.34 57.68 222.47 C 54.79 222.84 51.66 223.12 48.85 222.20 C 45.09 220.58 45.24 214.56 49.08 213.13 Z" />
<path fill="#000000" opacity="1.00" d=" M 78.33 213.46 C 81.00 212.21 84.14 212.75 87.00 212.85 C 90.60 213.30 92.34 218.17 89.93 220.85 C 87.52 223.70 83.32 222.64 80.06 222.60 C 75.66 222.12 74.48 215.55 78.33 213.46 Z" />
<path fill="#000000" opacity="1.00" d=" M 108.33 213.40 C 111.05 212.25 114.17 212.72 117.04 212.88 C 120.53 213.43 122.18 218.13 119.88 220.79 C 117.49 223.70 113.25 222.64 109.98 222.60 C 105.52 222.13 104.36 215.42 108.33 213.40 Z" />
<path fill="#000000" opacity="1.00" d=" M 138.27 213.37 C 141.01 212.26 144.13 212.71 147.01 212.89 C 151.09 213.59 152.20 219.61 148.72 221.80 C 145.92 223.40 142.39 222.73 139.32 222.50 C 135.20 221.53 134.50 215.26 138.27 213.37 Z" />
<path fill="#000000" opacity="1.00" d=" M 168.31 213.30 C 171.05 212.30 174.13 212.69 176.99 212.90 C 181.29 213.72 182.06 220.28 178.10 222.12 C 175.23 223.17 171.97 222.84 169.00 222.43 C 164.97 221.27 164.50 215.06 168.31 213.30 Z" />
<path fill="#000000" opacity="1.00" d=" M 198.22 213.29 C 201.28 212.39 204.83 212.40 207.90 213.27 C 211.91 215.02 211.26 221.59 206.99 222.51 C 204.19 222.83 201.23 223.06 198.49 222.28 C 194.77 220.81 194.57 214.98 198.22 213.29 Z" />
<path fill="#000000" opacity="1.00" d=" M 122.67 242.74 C 123.33 240.23 125.11 237.55 128.04 237.72 C 130.93 237.61 132.66 240.26 133.32 242.74 C 132.58 245.18 130.91 247.87 128.00 247.71 C 125.09 247.87 123.40 245.19 122.67 242.74 Z" />
</g>
<g id="#d1a184ff">
<path fill="#d1a184" opacity="1.00" d=" M 105.00 24.03 C 115.34 18.61 127.62 16.80 139.01 19.58 C 147.71 21.53 155.65 26.05 162.42 31.78 C 172.49 40.18 183.78 46.96 195.49 52.81 C 150.55 52.88 105.59 52.94 60.65 52.79 C 68.84 48.49 77.05 44.14 84.55 38.68 C 91.50 33.98 97.44 27.81 105.00 24.03 Z" />
<path fill="#d1a184" opacity="1.00" d=" M 122.40 125.40 C 129.70 122.35 138.35 121.18 145.79 124.42 C 139.93 127.34 134.62 131.52 131.00 137.02 C 125.65 144.92 124.42 154.86 118.74 162.58 C 114.33 168.85 107.66 173.04 100.88 176.37 C 96.44 170.13 95.62 161.96 97.37 154.64 C 100.48 141.67 110.24 130.68 122.40 125.40 Z" />
<path fill="#d1a184" opacity="1.00" d=" M 141.22 140.17 C 144.81 135.88 149.96 133.37 155.04 131.28 C 158.51 136.43 160.03 142.76 159.31 148.93 C 157.92 162.23 149.06 174.03 137.60 180.54 C 129.25 185.32 118.82 187.05 109.69 183.50 C 112.13 181.26 115.18 179.84 117.74 177.74 C 123.83 173.08 128.67 166.84 131.75 159.82 C 134.81 153.24 136.32 145.75 141.22 140.17 Z" />
</g>
<g id="#ffee80ff">
<path fill="#ffee80" opacity="1.00" d=" M 11.28 63.37 C 12.70 62.55 14.46 62.99 16.03 62.84 C 91.34 62.90 166.65 62.85 241.96 62.87 C 243.50 62.72 245.46 63.19 245.84 64.95 C 246.22 69.95 245.90 74.99 246.02 80.01 C 246.02 81.81 246.19 84.35 244.03 85.02 C 241.38 85.36 238.70 85.18 236.04 85.21 C 162.04 85.19 88.04 85.21 14.05 85.19 C 12.48 85.35 10.49 84.82 10.15 83.04 C 9.79 78.04 10.10 73.01 9.98 67.99 C 10.10 66.44 9.69 64.34 11.28 63.37 Z" />
</g>
<g id="#fff7bfff">
<path fill="#fff7bf" opacity="1.00" d=" M 22.99 95.20 C 93.00 95.20 163.00 95.20 233.00 95.20 C 233.83 129.55 229.99 163.92 222.78 197.49 C 220.07 209.13 220.03 221.31 222.09 233.06 C 223.01 235.56 220.59 238.00 218.10 237.70 C 195.73 237.80 173.36 237.67 151.00 237.76 C 148.59 237.52 146.45 239.04 145.70 241.31 C 145.54 241.63 145.22 242.27 145.05 242.58 C 141.15 242.81 137.23 242.73 133.32 242.74 C 132.66 240.26 130.93 237.61 128.04 237.72 C 125.11 237.55 123.33 240.23 122.67 242.74 C 118.76 242.73 114.85 242.81 110.95 242.58 C 110.78 242.27 110.46 241.63 110.29 241.32 C 109.53 239.05 107.40 237.51 104.99 237.76 C 82.64 237.67 60.29 237.80 37.95 237.71 C 35.41 238.03 32.96 235.53 33.91 233.00 C 35.96 221.30 35.91 209.17 33.23 197.58 C 25.99 163.98 22.15 129.58 22.99 95.20 M 126.53 113.59 C 105.31 118.57 87.84 138.05 86.64 160.04 C 86.05 169.91 89.56 180.22 97.00 186.92 C 104.38 193.81 115.01 196.42 124.89 195.11 C 140.84 193.18 155.02 182.71 163.00 168.96 C 168.70 159.11 171.20 147.02 168.11 135.91 C 165.62 126.71 158.75 118.83 149.94 115.19 C 142.58 112.08 134.26 111.84 126.53 113.59 M 49.08 213.13 C 45.24 214.56 45.09 220.58 48.85 222.20 C 51.66 223.12 54.79 222.84 57.68 222.47 C 62.07 221.34 62.26 214.45 57.95 213.05 C 55.05 212.55 51.96 212.45 49.08 213.13 M 78.33 213.46 C 74.48 215.55 75.66 222.12 80.06 222.60 C 83.32 222.64 87.52 223.70 89.93 220.85 C 92.34 218.17 90.60 213.30 87.00 212.85 C 84.14 212.75 81.00 212.21 78.33 213.46 M 108.33 213.40 C 104.36 215.42 105.52 222.13 109.98 222.60 C 113.25 222.64 117.49 223.70 119.88 220.79 C 122.18 218.13 120.53 213.43 117.04 212.88 C 114.17 212.72 111.05 212.25 108.33 213.40 M 138.27 213.37 C 134.50 215.26 135.20 221.53 139.32 222.50 C 142.39 222.73 145.92 223.40 148.72 221.80 C 152.20 219.61 151.09 213.59 147.01 212.89 C 144.13 212.71 141.01 212.26 138.27 213.37 M 168.31 213.30 C 164.50 215.06 164.97 221.27 169.00 222.43 C 171.97 222.84 175.23 223.17 178.10 222.12 C 182.06 220.28 181.29 213.72 176.99 212.90 C 174.13 212.69 171.05 212.30 168.31 213.30 M 198.22 213.29 C 194.57 214.98 194.77 220.81 198.49 222.28 C 201.23 223.06 204.19 222.83 206.99 222.51 C 211.26 221.59 211.91 215.02 207.90 213.27 C 204.83 212.40 201.28 212.39 198.22 213.29 Z" />
</g>
</svg>
