<?xml version="1.0" encoding="UTF-8" ?>
<!DOCTYPE svg PUBLIC "-//W3C//DTD SVG 1.1//EN" "http://www.w3.org/Graphics/SVG/1.1/DTD/svg11.dtd">
<svg width="256pt" height="256pt" viewBox="0 0 256 256" version="1.1" xmlns="http://www.w3.org/2000/svg">
<g id="#000000ff">
<path fill="#000000" opacity="1.00" d=" M 163.02 26.24 C 177.67 23.27 193.48 26.62 205.61 35.38 C 217.38 43.67 225.44 56.73 228.00 70.86 C 235.70 70.96 243.40 70.71 251.10 70.94 C 253.43 70.75 254.93 72.65 256.00 74.44 L 256.00 227.08 C 253.68 232.79 246.65 230.41 241.92 230.90 C 238.25 231.49 234.51 229.77 233.80 225.87 C 234.50 224.09 235.19 221.93 237.21 221.24 C 240.08 220.57 243.07 220.91 246.00 220.86 C 246.00 174.20 246.00 127.53 246.00 80.87 C 240.26 80.87 234.52 80.86 228.78 80.87 C 228.47 88.41 227.06 96.00 223.75 102.84 C 222.92 104.81 221.64 106.71 221.65 108.92 C 221.52 117.91 221.79 126.91 221.58 135.91 C 221.65 138.43 219.52 140.73 216.98 140.77 C 211.33 141.05 205.66 140.76 200.00 140.90 C 197.60 140.79 194.65 141.24 192.91 139.17 C 191.22 137.28 191.79 134.53 191.54 132.21 C 184.61 134.43 177.27 135.59 169.99 134.94 C 167.38 134.78 164.65 134.14 162.18 135.33 C 141.88 143.06 121.56 150.72 101.23 158.38 C 98.83 159.25 96.48 160.37 93.94 160.79 C 91.28 161.05 88.75 158.73 88.80 156.05 C 88.54 151.00 88.80 145.93 88.72 140.87 C 62.48 140.86 36.24 140.87 10.00 140.87 C 10.00 167.53 10.00 194.20 10.00 220.87 C 39.65 220.87 69.30 220.87 98.94 220.87 C 98.95 210.89 98.95 200.91 98.93 190.94 C 99.00 189.05 98.86 186.82 100.41 185.44 C 102.09 183.63 104.77 184.09 106.98 183.97 C 122.02 184.09 137.07 183.89 152.11 184.05 C 154.75 183.92 157.09 186.28 156.98 188.92 C 157.18 199.56 156.99 210.22 157.06 220.87 C 169.41 220.92 181.77 220.77 194.12 220.92 C 197.09 220.67 198.78 223.41 199.48 225.90 C 198.69 227.73 197.90 230.08 195.67 230.56 C 192.49 231.14 189.23 230.82 186.01 230.88 C 125.97 230.84 65.93 230.90 5.90 230.85 C 3.29 231.15 1.20 229.52 0.00 227.34 L 0.00 134.72 C 0.85 133.15 1.86 131.19 3.90 131.06 C 8.83 130.57 13.81 131.00 18.76 130.86 C 22.28 97.55 25.74 64.23 29.31 30.92 C 29.38 28.41 31.27 25.92 33.94 25.96 C 42.27 25.67 50.62 26.00 58.95 25.84 C 61.50 25.91 64.14 25.57 66.60 26.36 C 68.78 27.29 69.35 29.78 69.56 31.90 C 72.99 64.89 76.49 97.88 79.98 130.86 C 84.67 130.96 89.38 130.66 94.07 130.96 C 96.36 130.95 98.44 132.87 98.58 135.16 C 98.95 139.63 98.63 144.13 98.72 148.61 C 115.64 142.33 132.47 135.82 149.37 129.50 C 137.84 123.62 128.30 113.81 123.23 101.86 C 116.62 86.77 117.42 68.72 125.26 54.25 C 132.86 39.93 147.08 29.31 163.02 26.24 M 166.56 35.76 C 148.97 38.40 133.85 52.49 129.95 69.85 C 126.65 83.59 130.31 98.78 139.64 109.42 C 148.49 119.86 162.31 125.86 175.99 125.06 C 189.02 124.49 201.59 117.85 209.44 107.45 C 216.32 98.56 219.61 87.01 218.49 75.82 C 217.26 61.98 209.10 49.01 197.22 41.82 C 188.17 36.18 177.07 34.05 166.56 35.76 M 37.11 52.13 C 45.28 52.14 53.44 52.13 61.61 52.13 C 61.05 46.71 60.47 41.29 59.89 35.87 C 52.87 35.87 45.85 35.86 38.83 35.87 C 38.24 41.29 37.68 46.71 37.11 52.13 M 36.06 62.13 C 35.48 67.53 34.92 72.93 34.35 78.33 C 44.35 78.33 54.36 78.34 64.37 78.33 C 63.80 72.93 63.23 67.54 62.67 62.14 C 53.80 62.12 44.93 62.13 36.06 62.13 M 33.30 88.33 C 32.71 93.75 32.15 99.17 31.58 104.59 C 43.43 104.61 55.28 104.59 67.13 104.60 C 66.58 99.18 66.00 93.76 65.43 88.34 C 54.72 88.33 44.01 88.34 33.30 88.33 M 28.81 130.87 C 42.51 130.88 56.20 130.86 69.90 130.88 C 69.35 125.45 68.77 120.03 68.19 114.60 C 55.64 114.59 43.08 114.60 30.53 114.60 C 29.94 120.02 29.38 125.44 28.81 130.87 M 201.65 127.57 C 201.64 128.66 201.64 129.76 201.63 130.86 C 204.97 130.87 208.30 130.87 211.64 130.86 C 211.64 127.25 211.63 123.64 211.65 120.03 C 208.53 122.81 205.22 125.38 201.65 127.57 M 108.95 194.00 C 108.94 202.96 108.94 211.91 108.95 220.86 C 113.63 220.87 118.31 220.86 123.00 220.87 C 123.00 211.91 123.00 202.96 123.00 194.00 C 118.31 194.00 113.63 194.00 108.95 194.00 M 133.00 194.00 C 133.00 202.96 133.00 211.91 133.00 220.87 C 137.69 220.86 142.37 220.87 147.05 220.86 C 147.06 211.91 147.06 202.96 147.05 194.00 C 142.37 194.00 137.68 194.00 133.00 194.00 Z" />
<path fill="#000000" opacity="1.00" d=" M 173.22 53.24 C 180.57 51.72 188.85 53.31 194.37 58.62 C 199.36 63.23 201.63 70.28 201.12 76.97 C 200.00 92.54 186.52 106.22 170.97 107.54 C 165.07 108.09 158.90 106.51 154.29 102.70 C 148.71 98.30 145.87 91.02 146.28 84.00 C 146.97 69.25 158.88 56.14 173.22 53.24 M 157.62 91.56 C 160.69 89.77 163.79 87.83 165.99 84.97 C 169.61 80.39 170.44 74.35 173.48 69.44 C 175.05 66.71 177.42 64.60 179.75 62.53 C 165.64 62.24 152.05 77.69 157.62 91.56 M 181.87 74.96 C 179.39 79.58 178.27 84.85 175.28 89.21 C 173.13 92.60 170.02 95.19 166.96 97.71 C 181.47 98.61 195.59 82.66 189.80 68.49 C 186.66 69.90 183.53 71.83 181.87 74.96 Z" />
<path fill="#000000" opacity="1.00" d=" M 36.57 161.69 C 38.16 160.60 40.20 160.95 42.03 160.84 C 48.02 160.96 54.02 160.70 60.00 160.96 C 62.50 161.09 64.46 163.53 64.32 165.99 C 64.38 175.99 64.42 186.01 64.30 196.01 C 64.36 198.75 61.77 201.01 59.09 200.83 C 52.70 200.91 46.31 200.88 39.92 200.85 C 37.11 201.12 34.31 198.84 34.40 195.93 C 34.29 186.26 34.40 176.59 34.36 166.92 C 34.24 164.96 34.79 162.79 36.57 161.69 M 44.36 170.87 C 44.36 177.53 44.36 184.20 44.36 190.86 C 47.69 190.87 51.02 190.87 54.36 190.87 C 54.36 184.20 54.36 177.53 54.36 170.87 C 51.03 170.86 47.69 170.86 44.36 170.87 Z" />
<path fill="#000000" opacity="1.00" d=" M 194.36 161.39 C 199.77 160.20 205.46 161.19 210.99 160.86 C 213.92 161.11 217.39 160.07 219.89 162.06 C 221.73 163.48 221.67 165.95 221.66 168.03 C 221.58 177.33 221.72 186.63 221.59 195.92 C 221.65 198.45 219.47 200.76 216.93 200.79 C 210.24 200.95 203.55 200.88 196.87 200.83 C 194.19 200.99 191.62 198.73 191.69 196.00 C 191.56 186.34 191.68 176.67 191.63 167.01 C 191.46 164.81 192.23 162.38 194.36 161.39 M 201.64 170.87 C 201.64 177.53 201.64 184.20 201.64 190.87 C 204.97 190.87 208.31 190.87 211.64 190.86 C 211.63 184.20 211.64 177.53 211.64 170.87 C 208.31 170.86 204.97 170.86 201.64 170.87 Z" />
<path fill="#000000" opacity="1.00" d=" M 211.30 225.89 C 211.99 223.26 213.93 220.48 217.01 220.86 C 219.80 220.91 221.25 223.53 221.95 225.88 C 221.23 228.53 219.17 231.32 216.06 230.81 C 213.37 230.66 212.09 228.10 211.30 225.89 Z" />
</g>
<g id="#ffffffff">
<path fill="#ffffff" opacity="1.00" d=" M 166.56 35.76 C 177.07 34.05 188.17 36.18 197.22 41.82 C 209.10 49.01 217.26 61.98 218.49 75.82 C 219.61 87.01 216.32 98.56 209.44 107.45 C 201.59 117.85 189.02 124.49 175.99 125.06 C 162.31 125.86 148.49 119.86 139.64 109.42 C 130.31 98.78 126.65 83.59 129.95 69.85 C 133.85 52.49 148.97 38.40 166.56 35.76 M 173.22 53.24 C 158.88 56.14 146.97 69.25 146.28 84.00 C 145.87 91.02 148.71 98.30 154.29 102.70 C 158.90 106.51 165.07 108.09 170.97 107.54 C 186.52 106.22 200.00 92.54 201.12 76.97 C 201.63 70.28 199.36 63.23 194.37 58.62 C 188.85 53.31 180.57 51.72 173.22 53.24 Z" />
<path fill="#ffffff" opacity="1.00" d=" M 201.65 127.57 C 205.22 125.38 208.53 122.81 211.65 120.03 C 211.63 123.64 211.64 127.25 211.64 130.86 C 208.30 130.87 204.97 130.87 201.63 130.86 C 201.64 129.76 201.64 128.66 201.65 127.57 Z" />
<path fill="#ffffff" opacity="1.00" d=" M 44.36 170.87 C 47.69 170.86 51.03 170.86 54.36 170.87 C 54.36 177.53 54.36 184.20 54.36 190.87 C 51.02 190.87 47.69 190.87 44.36 190.86 C 44.36 184.20 44.36 177.53 44.36 170.87 Z" />
<path fill="#ffffff" opacity="1.00" d=" M 201.64 170.87 C 204.97 170.86 208.31 170.86 211.64 170.87 C 211.64 177.53 211.63 184.20 211.64 190.86 C 208.31 190.87 204.97 190.87 201.64 190.87 C 201.64 184.20 201.64 177.53 201.64 170.87 Z" />
</g>
<g id="#8aa8bdff">
<path fill="#8aa8bd" opacity="1.00" d=" M 37.11 52.13 C 37.68 46.71 38.24 41.29 38.83 35.87 C 45.85 35.86 52.87 35.87 59.89 35.87 C 60.47 41.29 61.05 46.71 61.61 52.13 C 53.44 52.13 45.28 52.14 37.11 52.13 Z" />
<path fill="#8aa8bd" opacity="1.00" d=" M 36.06 62.13 C 44.93 62.13 53.80 62.12 62.67 62.14 C 63.23 67.54 63.80 72.93 64.37 78.33 C 54.36 78.34 44.35 78.33 34.35 78.33 C 34.92 72.93 35.48 67.53 36.06 62.13 Z" />
<path fill="#8aa8bd" opacity="1.00" d=" M 33.30 88.33 C 44.01 88.34 54.72 88.33 65.43 88.34 C 66.00 93.76 66.58 99.18 67.13 104.60 C 55.28 104.59 43.43 104.61 31.58 104.59 C 32.15 99.17 32.71 93.75 33.30 88.33 Z" />
<path fill="#8aa8bd" opacity="1.00" d=" M 28.81 130.87 C 29.38 125.44 29.94 120.02 30.53 114.60 C 43.08 114.60 55.64 114.59 68.19 114.60 C 68.77 120.03 69.35 125.45 69.90 130.88 C 56.20 130.86 42.51 130.88 28.81 130.87 Z" />
</g>
<g id="#d1a184ff">
<path fill="#d1a184" opacity="1.00" d=" M 157.62 91.56 C 152.05 77.69 165.64 62.24 179.75 62.53 C 177.42 64.60 175.05 66.71 173.48 69.44 C 170.44 74.35 169.61 80.39 165.99 84.97 C 163.79 87.83 160.69 89.77 157.62 91.56 Z" />
<path fill="#d1a184" opacity="1.00" d=" M 181.87 74.96 C 183.53 71.83 186.66 69.90 189.80 68.49 C 195.59 82.66 181.47 98.61 166.96 97.71 C 170.02 95.19 173.13 92.60 175.28 89.21 C 178.27 84.85 179.39 79.58 181.87 74.96 Z" />
</g>
<g id="#ffee80ff">
<path fill="#ffee80" opacity="1.00" d=" M 223.75 102.84 C 227.06 96.00 228.47 88.41 228.78 80.87 C 234.52 80.86 240.26 80.87 246.00 80.87 C 246.00 127.53 246.00 174.20 246.00 220.86 C 243.07 220.91 240.08 220.57 237.21 221.24 C 235.19 221.93 234.50 224.09 233.80 225.87 C 229.85 225.86 225.90 225.86 221.95 225.88 C 221.25 223.53 219.80 220.91 217.01 220.86 C 213.93 220.48 211.99 223.26 211.30 225.89 C 207.36 225.85 203.42 225.85 199.48 225.90 C 198.78 223.41 197.09 220.67 194.12 220.92 C 181.77 220.77 169.41 220.92 157.06 220.87 C 156.99 210.22 157.18 199.56 156.98 188.92 C 157.09 186.28 154.75 183.92 152.11 184.05 C 137.07 183.89 122.02 184.09 106.98 183.97 C 104.77 184.09 102.09 183.63 100.41 185.44 C 98.86 186.82 99.00 189.05 98.93 190.94 C 98.95 200.91 98.95 210.89 98.94 220.87 C 69.30 220.87 39.65 220.87 10.00 220.87 C 10.00 194.20 10.00 167.53 10.00 140.87 C 36.24 140.87 62.48 140.86 88.72 140.87 C 88.80 145.93 88.54 151.00 88.80 156.05 C 88.75 158.73 91.28 161.05 93.94 160.79 C 96.48 160.37 98.83 159.25 101.23 158.38 C 121.56 150.72 141.88 143.06 162.18 135.33 C 164.65 134.14 167.38 134.78 169.99 134.94 C 177.27 135.59 184.61 134.43 191.54 132.21 C 191.79 134.53 191.22 137.28 192.91 139.17 C 194.65 141.24 197.60 140.79 200.00 140.90 C 205.66 140.76 211.33 141.05 216.98 140.77 C 219.52 140.73 221.65 138.43 221.58 135.91 C 221.79 126.91 221.52 117.91 221.65 108.92 C 221.64 106.71 222.92 104.81 223.75 102.84 M 36.57 161.69 C 34.79 162.79 34.24 164.96 34.36 166.92 C 34.40 176.59 34.29 186.26 34.40 195.93 C 34.31 198.84 37.11 201.12 39.92 200.85 C 46.31 200.88 52.70 200.91 59.09 200.83 C 61.77 201.01 64.36 198.75 64.30 196.01 C 64.42 186.01 64.38 175.99 64.32 165.99 C 64.46 163.53 62.50 161.09 60.00 160.96 C 54.02 160.70 48.02 160.96 42.03 160.84 C 40.20 160.95 38.16 160.60 36.57 161.69 M 194.36 161.39 C 192.23 162.38 191.46 164.81 191.63 167.01 C 191.68 176.67 191.56 186.34 191.69 196.00 C 191.62 198.73 194.19 200.99 196.87 200.83 C 203.55 200.88 210.24 200.95 216.93 200.79 C 219.47 200.76 221.65 198.45 221.59 195.92 C 221.72 186.63 221.58 177.33 221.66 168.03 C 221.67 165.95 221.73 163.48 219.89 162.06 C 217.39 160.07 213.92 161.11 210.99 160.86 C 205.46 161.19 199.77 160.20 194.36 161.39 Z" />
</g>
<g id="#c5d3deff">
<path fill="#c5d3de" opacity="1.00" d=" M 108.95 194.00 C 113.63 194.00 118.31 194.00 123.00 194.00 C 123.00 202.96 123.00 211.91 123.00 220.87 C 118.31 220.86 113.63 220.87 108.95 220.86 C 108.94 211.91 108.94 202.96 108.95 194.00 Z" />
<path fill="#c5d3de" opacity="1.00" d=" M 133.00 194.00 C 137.68 194.00 142.37 194.00 147.05 194.00 C 147.06 202.96 147.06 211.91 147.05 220.86 C 142.37 220.87 137.69 220.86 133.00 220.87 C 133.00 211.91 133.00 202.96 133.00 194.00 Z" />
</g>
</svg>
