<?xml version="1.0" encoding="UTF-8" ?>
<!DOCTYPE svg PUBLIC "-//W3C//DTD SVG 1.1//EN" "http://www.w3.org/Graphics/SVG/1.1/DTD/svg11.dtd">
<svg width="256pt" height="256pt" viewBox="0 0 256 256" version="1.1" xmlns="http://www.w3.org/2000/svg">
<g id="#000000ff">
<path fill="#000000" opacity="1.00" d=" M 57.15 0.00 L 189.68 0.00 C 191.69 1.04 193.23 2.84 193.30 5.19 C 202.68 82.16 212.09 159.13 221.45 236.11 C 222.97 245.71 215.27 255.11 205.69 256.00 L 48.37 256.00 C 40.29 254.91 33.65 247.32 34.45 239.05 C 40.66 161.33 47.05 83.63 53.30 5.91 C 53.18 3.26 54.73 1.00 57.15 0.00 M 63.01 10.00 C 62.47 16.67 61.92 23.33 61.40 30.00 C 72.06 30.00 82.72 30.00 93.38 30.00 C 93.38 23.33 93.38 16.67 93.38 10.00 C 83.26 10.00 73.13 10.00 63.01 10.00 M 103.33 10.06 C 103.43 22.38 103.35 34.71 103.37 47.04 C 107.56 45.02 111.66 42.81 115.84 40.77 C 117.28 39.99 119.04 39.82 120.53 40.61 C 124.84 42.60 129.03 44.85 133.26 47.02 C 133.43 34.68 133.29 22.34 133.33 10.00 C 123.33 10.03 113.33 9.93 103.33 10.06 M 143.27 10.07 C 143.36 16.69 143.36 23.31 143.27 29.93 C 156.59 30.09 169.92 29.96 183.25 30.00 C 183.25 23.33 183.25 16.67 183.25 10.00 C 169.92 10.04 156.60 9.91 143.27 10.07 M 47.65 199.82 C 74.10 199.80 100.57 199.76 127.02 199.84 C 129.17 199.79 132.23 201.94 131.32 204.27 C 134.83 204.37 138.34 204.33 141.85 204.36 C 141.97 200.98 145.90 198.68 148.90 200.23 C 150.29 200.97 152.03 202.50 151.39 204.27 C 155.13 204.39 158.87 204.38 162.61 204.24 C 160.88 202.45 164.17 200.15 165.90 199.91 C 171.65 199.67 177.42 199.79 183.18 199.88 C 183.40 146.57 183.20 93.25 183.25 39.94 C 169.93 40.00 156.60 39.80 143.28 40.04 C 143.28 45.35 143.50 50.68 143.20 55.99 C 142.84 59.19 138.87 61.20 136.07 59.58 C 130.09 56.73 124.29 53.50 118.30 50.66 C 112.47 53.70 106.58 56.64 100.69 59.55 C 97.78 61.27 93.60 59.08 93.46 55.69 C 93.24 50.44 93.45 45.18 93.38 39.93 C 82.47 39.89 71.57 40.01 60.66 39.88 C 56.18 93.18 51.95 146.51 47.65 199.82 M 193.29 234.98 C 193.33 238.85 192.13 242.59 190.36 245.99 C 195.25 245.82 200.16 246.14 205.05 245.83 C 209.20 245.50 212.25 241.14 211.48 237.11 C 205.50 187.69 199.41 138.29 193.43 88.88 C 193.10 137.57 193.41 186.28 193.29 234.98 M 131.33 204.82 C 132.42 207.76 128.71 210.11 126.05 209.78 C 99.64 209.85 73.22 209.69 46.80 209.86 C 46.01 219.57 45.20 229.28 44.44 238.99 C 44.11 241.27 44.98 243.72 46.96 244.99 C 48.82 246.35 51.27 245.89 53.42 246.06 C 53.44 243.54 53.24 241.00 53.65 238.51 C 54.44 235.38 58.61 233.86 61.20 235.83 C 64.47 238.09 63.16 242.57 63.33 245.92 C 67.35 246.07 71.38 245.99 75.40 246.00 C 75.43 243.50 75.21 240.96 75.64 238.49 C 76.49 235.10 81.21 233.76 83.69 236.23 C 86.33 238.70 85.12 242.72 85.29 245.91 C 89.32 246.08 93.35 245.98 97.37 246.00 C 97.40 243.50 97.19 240.98 97.60 238.51 C 98.45 235.07 103.27 233.74 105.74 236.29 C 108.30 238.78 107.09 242.74 107.28 245.92 C 111.30 246.07 115.33 245.99 119.35 246.00 C 119.38 243.49 119.16 240.95 119.59 238.47 C 120.47 235.08 125.19 233.76 127.67 236.25 C 130.28 238.72 129.08 242.72 129.25 245.91 C 133.27 246.08 137.30 245.98 141.33 246.00 C 141.35 243.50 141.14 240.96 141.57 238.48 C 142.38 235.35 146.55 233.86 149.14 235.84 C 152.38 238.12 151.06 242.59 151.25 245.94 C 155.27 246.04 159.29 246.00 163.31 246.00 C 163.34 243.50 163.12 240.96 163.55 238.48 C 164.36 235.36 168.52 233.86 171.10 235.83 C 174.38 238.13 172.99 242.67 173.28 246.06 C 178.44 245.48 183.06 241.20 183.20 235.86 C 183.41 227.18 183.23 218.49 183.27 209.80 C 177.32 209.62 171.34 210.14 165.42 209.55 C 163.76 208.95 160.61 206.72 162.65 204.84 C 158.87 204.79 155.10 204.80 151.33 204.82 C 152.29 206.78 150.26 208.70 148.62 209.43 C 145.50 210.85 141.71 208.21 141.86 204.80 C 138.35 204.81 134.84 204.81 131.33 204.82 Z" />
<path fill="#000000" opacity="1.00" d=" M 120.10 80.23 C 126.78 79.06 134.22 81.03 138.69 86.32 C 144.02 92.33 144.35 101.35 141.54 108.58 C 136.78 121.15 123.69 131.11 109.91 129.69 C 101.34 128.93 94.11 121.51 93.49 112.93 C 92.20 97.38 105.04 82.76 120.10 80.23 M 103.44 112.04 C 111.40 105.28 118.20 97.20 125.95 90.18 C 114.14 89.41 103.26 100.33 103.44 112.04 M 110.89 119.76 C 122.39 120.13 133.64 109.62 132.85 97.91 C 125.48 105.14 118.30 112.56 110.89 119.76 Z" />
<path fill="#000000" opacity="1.00" d=" M 98.28 145.33 C 98.69 145.19 99.52 144.91 99.93 144.77 C 110.96 144.50 122.00 144.77 133.04 144.64 C 135.10 144.74 137.49 144.31 139.19 145.77 C 141.57 147.55 141.67 151.46 139.39 153.37 C 137.67 155.00 135.15 154.60 133.00 154.69 C 122.10 154.58 111.19 154.80 100.29 154.58 C 95.61 154.44 94.15 147.43 98.28 145.33 Z" />
<path fill="#000000" opacity="1.00" d=" M 90.55 160.66 C 92.13 159.58 94.15 159.95 95.95 159.84 C 112.01 159.95 128.07 159.75 144.12 159.94 C 147.73 160.05 149.87 164.77 147.71 167.63 C 146.52 169.56 144.13 169.97 142.04 169.87 C 125.69 169.81 109.33 169.97 92.99 169.79 C 88.34 169.83 86.54 162.96 90.55 160.66 Z" />
<path fill="#000000" opacity="1.00" d=" M 99.12 175.16 C 109.67 174.31 120.35 175.05 130.95 174.79 C 134.02 174.95 138.08 173.98 140.08 177.03 C 142.40 180.09 139.78 185.02 135.95 184.77 C 124.03 184.78 112.11 184.89 100.19 184.72 C 95.23 184.38 94.42 176.63 99.12 175.16 Z" />
</g>
<g id="#fad294ff">
<path fill="#fad294" opacity="1.00" d=" M 63.01 10.00 C 73.13 10.00 83.26 10.00 93.38 10.00 C 93.38 16.67 93.38 23.33 93.38 30.00 C 82.72 30.00 72.06 30.00 61.40 30.00 C 61.92 23.33 62.47 16.67 63.01 10.00 Z" />
<path fill="#fad294" opacity="1.00" d=" M 143.27 10.07 C 156.60 9.91 169.92 10.04 183.25 10.00 C 183.25 16.67 183.25 23.33 183.25 30.00 C 169.92 29.96 156.59 30.09 143.27 29.93 C 143.36 23.31 143.36 16.69 143.27 10.07 Z" />
</g>
<g id="#91def5ff">
<path fill="#91def5" opacity="1.00" d=" M 103.33 10.06 C 113.33 9.93 123.33 10.03 133.33 10.00 C 133.29 22.34 133.43 34.68 133.26 47.02 C 129.03 44.85 124.84 42.60 120.53 40.61 C 119.04 39.82 117.28 39.99 115.84 40.77 C 111.66 42.81 107.56 45.02 103.37 47.04 C 103.35 34.71 103.43 22.38 103.33 10.06 Z" />
</g>
<g id="#fef8efff">
<path fill="#fef8ef" opacity="1.00" d=" M 47.65 199.82 C 51.95 146.51 56.18 93.18 60.66 39.88 C 71.57 40.01 82.47 39.89 93.38 39.93 C 93.45 45.18 93.24 50.44 93.46 55.69 C 93.60 59.08 97.78 61.27 100.69 59.55 C 106.58 56.64 112.47 53.70 118.30 50.66 C 124.29 53.50 130.09 56.73 136.07 59.58 C 138.87 61.20 142.84 59.19 143.20 55.99 C 143.50 50.68 143.28 45.35 143.28 40.04 C 156.60 39.80 169.93 40.00 183.25 39.94 C 183.20 93.25 183.40 146.57 183.18 199.88 C 177.42 199.79 171.65 199.67 165.90 199.91 C 164.17 200.15 160.88 202.45 162.61 204.24 C 158.87 204.38 155.13 204.39 151.39 204.27 C 152.03 202.50 150.29 200.97 148.90 200.23 C 145.90 198.68 141.97 200.98 141.85 204.36 C 138.34 204.33 134.83 204.37 131.32 204.27 C 132.23 201.94 129.17 199.79 127.02 199.84 C 100.57 199.76 74.10 199.80 47.65 199.82 M 120.10 80.23 C 105.04 82.76 92.20 97.38 93.49 112.93 C 94.11 121.51 101.34 128.93 109.91 129.69 C 123.69 131.11 136.78 121.15 141.54 108.58 C 144.35 101.35 144.02 92.33 138.69 86.32 C 134.22 81.03 126.78 79.06 120.10 80.23 M 98.28 145.33 C 94.15 147.43 95.61 154.44 100.29 154.58 C 111.19 154.80 122.10 154.58 133.00 154.69 C 135.15 154.60 137.67 155.00 139.39 153.37 C 141.67 151.46 141.57 147.55 139.19 145.77 C 137.49 144.31 135.10 144.74 133.04 144.64 C 122.00 144.77 110.96 144.50 99.93 144.77 C 99.52 144.91 98.69 145.19 98.28 145.33 M 90.55 160.66 C 86.54 162.96 88.34 169.83 92.99 169.79 C 109.33 169.97 125.69 169.81 142.04 169.87 C 144.13 169.97 146.52 169.56 147.71 167.63 C 149.87 164.77 147.73 160.05 144.12 159.94 C 128.07 159.75 112.01 159.95 95.95 159.84 C 94.15 159.95 92.13 159.58 90.55 160.66 M 99.12 175.16 C 94.42 176.63 95.23 184.38 100.19 184.72 C 112.11 184.89 124.03 184.78 135.95 184.77 C 139.78 185.02 142.40 180.09 140.08 177.03 C 138.08 173.98 134.02 174.95 130.95 174.79 C 120.35 175.05 109.67 174.31 99.12 175.16 Z" />
</g>
<g id="#c18662ff">
<path fill="#c18662" opacity="1.00" d=" M 193.29 234.98 C 193.41 186.28 193.10 137.57 193.43 88.88 C 199.41 138.29 205.50 187.69 211.48 237.11 C 212.25 241.14 209.20 245.50 205.05 245.83 C 200.16 246.14 195.25 245.82 190.36 245.99 C 192.13 242.59 193.33 238.85 193.29 234.98 Z" />
<path fill="#c18662" opacity="1.00" d=" M 103.44 112.04 C 103.26 100.33 114.14 89.41 125.95 90.18 C 118.20 97.20 111.40 105.28 103.44 112.04 Z" />
<path fill="#c18662" opacity="1.00" d=" M 110.89 119.76 C 118.30 112.56 125.48 105.14 132.85 97.91 C 133.64 109.62 122.39 120.13 110.89 119.76 Z" />
<path fill="#c18662" opacity="1.00" d=" M 131.33 204.82 C 134.84 204.81 138.35 204.81 141.86 204.80 C 141.71 208.21 145.50 210.85 148.62 209.43 C 150.26 208.70 152.29 206.78 151.33 204.82 C 155.10 204.80 158.87 204.79 162.65 204.84 C 160.61 206.72 163.76 208.95 165.42 209.55 C 171.34 210.14 177.32 209.62 183.27 209.80 C 183.23 218.49 183.41 227.18 183.20 235.86 C 183.06 241.20 178.44 245.48 173.28 246.06 C 172.99 242.67 174.38 238.13 171.10 235.83 C 168.52 233.86 164.36 235.36 163.55 238.48 C 163.12 240.96 163.34 243.50 163.31 246.00 C 159.29 246.00 155.27 246.04 151.25 245.94 C 151.06 242.59 152.38 238.12 149.14 235.84 C 146.55 233.86 142.38 235.35 141.57 238.48 C 141.14 240.96 141.35 243.50 141.33 246.00 C 137.30 245.98 133.27 246.08 129.25 245.91 C 129.08 242.72 130.28 238.72 127.67 236.25 C 125.19 233.76 120.47 235.08 119.59 238.47 C 119.16 240.95 119.38 243.49 119.35 246.00 C 115.33 245.99 111.30 246.07 107.28 245.92 C 107.09 242.74 108.30 238.78 105.74 236.29 C 103.27 233.74 98.45 235.07 97.60 238.51 C 97.19 240.98 97.40 243.50 97.37 246.00 C 93.35 245.98 89.32 246.08 85.29 245.91 C 85.12 242.72 86.33 238.70 83.69 236.23 C 81.21 233.76 76.49 235.10 75.64 238.49 C 75.21 240.96 75.43 243.50 75.40 246.00 C 71.38 245.99 67.35 246.07 63.33 245.92 C 63.16 242.57 64.47 238.09 61.20 235.83 C 58.61 233.86 54.44 235.38 53.65 238.51 C 53.24 241.00 53.44 243.54 53.42 246.06 C 51.27 245.89 48.82 246.35 46.96 244.99 C 44.98 243.72 44.11 241.27 44.44 238.99 C 45.20 229.28 46.01 219.57 46.80 209.86 C 73.22 209.69 99.64 209.85 126.05 209.78 C 128.71 210.11 132.42 207.76 131.33 204.82 Z" />
</g>
</svg>
