<?xml version="1.0" encoding="UTF-8" ?>
<!DOCTYPE svg PUBLIC "-//W3C//DTD SVG 1.1//EN" "http://www.w3.org/Graphics/SVG/1.1/DTD/svg11.dtd">
<svg width="256pt" height="256pt" viewBox="0 0 256 256" version="1.1" xmlns="http://www.w3.org/2000/svg">
<g id="#000000ff">
<path fill="#000000" opacity="1.00" d=" M 49.08 0.00 L 53.66 0.00 C 57.36 1.17 58.98 4.97 61.74 7.35 C 65.16 10.54 70.67 11.10 74.65 8.66 C 78.54 6.51 80.10 1.67 84.32 0.00 L 92.84 0.00 C 97.03 1.20 98.57 5.78 101.96 8.11 C 106.09 11.21 112.33 10.75 116.00 7.14 C 118.68 4.75 120.30 0.88 124.09 0.00 L 132.34 0.00 C 136.49 1.48 138.04 6.11 141.63 8.35 C 145.72 11.17 151.65 10.66 155.21 7.21 C 157.88 4.81 159.52 1.08 163.19 0.00 L 171.56 0.00 C 175.95 1.45 177.47 6.45 181.37 8.63 C 185.15 10.95 190.31 10.62 193.76 7.84 C 196.87 5.49 198.46 1.40 202.30 0.00 L 207.45 0.00 C 209.91 0.87 212.04 3.06 211.43 5.87 C 210.22 16.64 208.39 27.35 206.97 38.10 C 206.33 43.06 207.54 47.98 208.11 52.88 C 214.82 102.92 214.55 153.84 207.96 203.89 C 207.41 208.53 206.35 213.20 206.98 217.89 C 208.39 228.63 210.21 239.32 211.43 250.08 C 212.05 252.78 210.03 254.77 207.91 256.00 L 202.42 256.00 C 198.72 254.84 197.12 251.01 194.35 248.64 C 191.09 245.65 185.97 244.93 182.05 247.00 C 177.74 248.99 176.19 254.28 171.72 256.00 L 163.22 256.00 C 159.51 254.94 157.88 251.16 155.18 248.77 C 151.81 245.53 146.31 244.87 142.29 247.25 C 138.38 249.38 136.70 254.05 132.65 256.00 L 123.74 256.00 C 119.34 254.40 117.82 249.33 113.77 247.23 C 109.74 244.87 104.25 245.54 100.89 248.77 C 98.18 251.16 96.56 254.97 92.82 256.00 L 84.47 256.00 C 80.11 254.50 78.60 249.51 74.69 247.36 C 70.67 244.89 65.12 245.46 61.70 248.69 C 58.98 251.06 57.35 254.76 53.74 256.00 L 49.16 256.00 C 46.84 255.46 44.35 253.77 44.61 251.08 C 45.05 243.95 46.56 236.93 47.40 229.84 C 48.13 223.26 50.07 216.65 48.96 209.99 C 41.25 155.69 40.96 100.27 48.94 45.99 C 50.08 39.31 48.13 32.69 47.39 26.09 C 46.56 19.02 45.05 12.01 44.61 4.90 C 44.36 2.24 46.81 0.59 49.08 0.00 M 84.97 12.96 C 80.50 17.94 73.66 20.76 66.97 20.11 C 62.97 19.80 59.37 17.89 56.00 15.86 C 57.07 22.62 57.95 29.41 58.94 36.19 C 63.30 36.39 67.78 35.65 72.06 36.66 C 76.07 38.10 75.93 44.54 71.85 45.79 C 67.60 46.61 63.22 46.03 58.91 46.18 C 50.97 100.68 51.30 156.25 59.07 210.75 C 105.05 210.75 151.04 210.75 197.02 210.75 C 204.76 156.26 205.12 100.68 197.19 46.19 C 166.78 46.18 136.37 46.19 105.96 46.18 C 103.53 46.35 100.72 45.41 99.93 42.86 C 98.61 39.61 101.55 35.94 104.97 36.23 C 135.70 36.12 166.43 36.22 197.15 36.18 C 198.14 29.40 199.04 22.60 200.09 15.82 C 197.27 17.50 194.37 19.21 191.10 19.81 C 184.08 21.26 176.53 18.61 171.60 13.49 C 170.10 11.96 168.78 9.98 166.47 9.70 C 162.50 14.98 156.77 19.36 150.02 20.03 C 142.52 21.02 135.09 17.24 130.44 11.48 C 129.53 9.90 127.16 9.27 126.08 11.02 C 121.53 16.67 114.54 20.73 107.11 20.13 C 99.95 19.79 93.78 15.25 89.61 9.69 C 87.58 9.98 86.26 11.53 84.97 12.96 M 56.00 240.14 C 63.30 234.77 73.81 234.27 81.20 239.73 C 84.40 241.45 85.89 245.53 89.61 246.31 C 93.77 240.77 99.90 236.24 107.03 235.88 C 114.45 235.24 121.47 239.27 126.02 244.91 C 126.87 246.39 129.15 246.44 130.03 244.95 C 134.57 239.30 141.57 235.27 148.99 235.87 C 156.03 236.20 162.10 240.62 166.29 246.02 C 166.85 246.00 167.96 245.96 168.51 245.93 C 172.67 240.40 178.95 236.12 186.03 235.84 C 191.11 235.37 195.91 237.50 200.09 240.18 C 199.09 233.71 198.22 227.23 197.28 220.75 C 151.11 220.75 104.95 220.75 58.78 220.75 C 57.85 227.21 57.01 233.69 56.00 240.14 Z" />
<path fill="#000000" opacity="1.00" d=" M 82.48 36.66 C 85.87 34.97 90.23 38.17 89.50 41.93 C 89.08 45.77 83.84 47.54 81.14 44.83 C 78.50 42.61 79.30 37.93 82.48 36.66 Z" />
<path fill="#000000" opacity="1.00" d=" M 118.61 63.74 C 134.53 61.36 151.30 65.17 164.55 74.32 C 176.37 82.36 185.47 94.36 189.84 107.98 C 194.84 123.29 193.86 140.47 187.08 155.09 C 180.24 170.01 167.54 182.14 152.30 188.24 C 141.16 192.78 128.76 194.04 116.92 191.99 C 101.71 189.39 87.58 181.11 77.84 169.15 C 67.46 156.66 62.14 140.15 63.22 123.96 C 64.04 110.22 69.39 96.81 78.28 86.31 C 88.36 74.19 103.00 65.98 118.61 63.74 M 119.49 73.71 C 102.10 76.33 86.41 87.91 78.75 103.73 C 72.07 117.09 71.23 133.22 76.56 147.19 C 81.44 160.42 91.65 171.60 104.42 177.60 C 117.97 184.17 134.26 184.71 148.22 179.11 C 160.78 174.20 171.33 164.44 177.30 152.36 C 183.17 140.59 184.56 126.68 181.17 113.98 C 177.62 100.20 168.37 88.04 156.15 80.79 C 145.25 74.23 132.04 71.70 119.49 73.71 Z" />
<path fill="#000000" opacity="1.00" d=" M 127.42 99.58 C 135.15 97.33 144.27 98.07 150.50 103.57 C 156.85 108.95 158.77 118.04 157.09 125.94 C 154.09 140.25 142.55 152.33 128.59 156.43 C 120.26 158.97 110.10 157.73 104.07 150.97 C 98.30 144.90 97.33 135.69 99.50 127.88 C 103.23 114.57 114.19 103.52 127.42 99.58 M 109.27 130.06 C 107.83 134.35 108.33 138.98 110.15 143.08 C 114.04 142.28 118.21 140.98 120.49 137.46 C 126.71 128.45 127.54 116.71 134.67 108.20 C 122.97 109.88 112.65 118.73 109.27 130.06 M 139.33 119.35 C 135.01 128.74 133.02 139.54 125.42 147.08 C 135.40 143.93 143.90 135.93 146.87 125.80 C 148.27 121.56 147.69 117.02 145.96 112.98 C 143.05 114.23 140.55 116.37 139.33 119.35 Z" />
<path fill="#000000" opacity="1.00" d=" M 149.29 196.35 C 152.48 194.59 156.86 197.21 156.61 200.91 C 156.67 204.93 151.35 207.26 148.41 204.60 C 145.65 202.52 146.18 197.80 149.29 196.35 Z" />
<path fill="#000000" opacity="1.00" d=" M 164.22 196.15 C 170.07 195.23 176.07 196.00 181.98 195.73 C 184.98 195.83 189.06 195.11 190.79 198.27 C 192.71 201.19 190.42 205.63 186.90 205.64 C 180.94 205.94 174.97 205.65 169.01 205.78 C 166.64 205.72 163.68 206.01 162.11 203.82 C 160.06 201.38 161.17 197.17 164.22 196.15 Z" />
</g>
<g id="#fcac81ff">
<path fill="#fcac81" opacity="1.00" d=" M 84.97 12.96 C 86.26 11.53 87.58 9.98 89.61 9.69 C 93.78 15.25 99.95 19.79 107.11 20.13 C 114.54 20.73 121.53 16.67 126.08 11.02 C 127.16 9.27 129.53 9.90 130.44 11.48 C 135.09 17.24 142.52 21.02 150.02 20.03 C 156.77 19.36 162.50 14.98 166.47 9.70 C 168.78 9.98 170.10 11.96 171.60 13.49 C 176.53 18.61 184.08 21.26 191.10 19.81 C 194.37 19.21 197.27 17.50 200.09 15.82 C 199.04 22.60 198.14 29.40 197.15 36.18 C 166.43 36.22 135.70 36.12 104.97 36.23 C 101.55 35.94 98.61 39.61 99.93 42.86 C 100.72 45.41 103.53 46.35 105.96 46.18 C 136.37 46.19 166.78 46.18 197.19 46.19 C 205.12 100.68 204.76 156.26 197.02 210.75 C 151.04 210.75 105.05 210.75 59.07 210.75 C 51.30 156.25 50.97 100.68 58.91 46.18 C 63.22 46.03 67.60 46.61 71.85 45.79 C 75.93 44.54 76.07 38.10 72.06 36.66 C 67.78 35.65 63.30 36.39 58.94 36.19 C 57.95 29.41 57.07 22.62 56.00 15.86 C 59.37 17.89 62.97 19.80 66.97 20.11 C 73.66 20.76 80.50 17.94 84.97 12.96 M 82.48 36.66 C 79.30 37.93 78.50 42.61 81.14 44.83 C 83.84 47.54 89.08 45.77 89.50 41.93 C 90.23 38.17 85.87 34.97 82.48 36.66 M 118.61 63.74 C 103.00 65.98 88.36 74.19 78.28 86.31 C 69.39 96.81 64.04 110.22 63.22 123.96 C 62.14 140.15 67.46 156.66 77.84 169.15 C 87.58 181.11 101.71 189.39 116.92 191.99 C 128.76 194.04 141.16 192.78 152.30 188.24 C 167.54 182.14 180.24 170.01 187.08 155.09 C 193.86 140.47 194.84 123.29 189.84 107.98 C 185.47 94.36 176.37 82.36 164.55 74.32 C 151.30 65.17 134.53 61.36 118.61 63.74 M 149.29 196.35 C 146.18 197.80 145.65 202.52 148.41 204.60 C 151.35 207.26 156.67 204.93 156.61 200.91 C 156.86 197.21 152.48 194.59 149.29 196.35 M 164.22 196.15 C 161.17 197.17 160.06 201.38 162.11 203.82 C 163.68 206.01 166.64 205.72 169.01 205.78 C 174.97 205.65 180.94 205.94 186.90 205.64 C 190.42 205.63 192.71 201.19 190.79 198.27 C 189.06 195.11 184.98 195.83 181.98 195.73 C 176.07 196.00 170.07 195.23 164.22 196.15 Z" />
<path fill="#fcac81" opacity="1.00" d=" M 56.00 240.14 C 57.01 233.69 57.85 227.21 58.78 220.75 C 104.95 220.75 151.11 220.75 197.28 220.75 C 198.22 227.23 199.09 233.71 200.09 240.18 C 195.91 237.50 191.11 235.37 186.03 235.84 C 178.95 236.12 172.67 240.40 168.51 245.93 C 167.96 245.96 166.85 246.00 166.29 246.02 C 162.10 240.62 156.03 236.20 148.99 235.87 C 141.57 235.27 134.57 239.30 130.03 244.95 C 129.15 246.44 126.87 246.39 126.02 244.91 C 121.47 239.27 114.45 235.24 107.03 235.88 C 99.90 236.24 93.77 240.77 89.61 246.31 C 85.89 245.53 84.40 241.45 81.20 239.73 C 73.81 234.27 63.30 234.77 56.00 240.14 Z" />
</g>
<g id="#ffc967ff">
<path fill="#ffc967" opacity="1.00" d=" M 119.49 73.71 C 132.04 71.70 145.25 74.23 156.15 80.79 C 168.37 88.04 177.62 100.20 181.17 113.98 C 184.56 126.68 183.17 140.59 177.30 152.36 C 171.33 164.44 160.78 174.20 148.22 179.11 C 134.26 184.71 117.97 184.17 104.42 177.60 C 91.65 171.60 81.44 160.42 76.56 147.19 C 71.23 133.22 72.07 117.09 78.75 103.73 C 86.41 87.91 102.10 76.33 119.49 73.71 M 127.42 99.58 C 114.19 103.52 103.23 114.57 99.50 127.88 C 97.33 135.69 98.30 144.90 104.07 150.97 C 110.10 157.73 120.26 158.97 128.59 156.43 C 142.55 152.33 154.09 140.25 157.09 125.94 C 158.77 118.04 156.85 108.95 150.50 103.57 C 144.27 98.07 135.15 97.33 127.42 99.58 Z" />
</g>
<g id="#c1734cff">
<path fill="#c1734c" opacity="1.00" d=" M 109.27 130.06 C 112.65 118.73 122.97 109.88 134.67 108.20 C 127.54 116.71 126.71 128.45 120.49 137.46 C 118.21 140.98 114.04 142.28 110.15 143.08 C 108.33 138.98 107.83 134.35 109.27 130.06 Z" />
<path fill="#c1734c" opacity="1.00" d=" M 139.33 119.35 C 140.55 116.37 143.05 114.23 145.96 112.98 C 147.69 117.02 148.27 121.56 146.87 125.80 C 143.90 135.93 135.40 143.93 125.42 147.08 C 133.02 139.54 135.01 128.74 139.33 119.35 Z" />
</g>
</svg>
