<?xml version="1.0" encoding="UTF-8" ?>
<!DOCTYPE svg PUBLIC "-//W3C//DTD SVG 1.1//EN" "http://www.w3.org/Graphics/SVG/1.1/DTD/svg11.dtd">
<svg width="256pt" height="256pt" viewBox="0 0 256 256" version="1.1" xmlns="http://www.w3.org/2000/svg">
<g id="#000000ff">
<path fill="#000000" opacity="1.00" d=" M 59.27 0.00 L 196.41 0.00 C 201.60 2.26 199.70 8.60 200.02 13.03 C 200.39 25.02 198.91 37.17 201.48 48.99 C 204.13 65.53 205.95 82.25 206.07 99.02 C 206.12 149.36 206.10 199.71 206.08 250.05 C 206.40 252.66 204.79 254.77 202.64 256.00 L 53.53 256.00 C 48.34 253.79 50.20 247.45 49.90 243.04 C 49.92 196.02 49.90 148.99 49.91 101.97 C 49.80 81.64 52.27 61.40 55.60 41.38 C 56.21 29.26 55.55 17.10 55.90 4.98 C 55.71 2.67 57.55 1.15 59.27 0.00 M 65.83 10.00 C 65.84 18.60 65.80 27.20 65.85 35.80 C 75.41 35.78 84.97 35.82 94.54 35.79 C 94.54 27.22 94.47 18.65 94.58 10.09 C 85.00 9.89 75.41 10.05 65.83 10.00 M 104.53 10.00 C 104.53 18.60 104.52 27.20 104.53 35.80 C 120.68 35.80 136.83 35.79 152.97 35.81 C 153.00 27.21 152.98 18.60 152.99 10.00 C 136.83 10.00 120.68 10.00 104.53 10.00 M 162.99 10.00 C 162.99 18.60 162.97 27.20 163.00 35.80 C 171.99 35.80 180.99 35.78 189.98 35.81 C 190.04 27.21 190.00 18.61 190.00 10.00 C 181.00 10.00 171.99 10.00 162.99 10.00 M 65.03 45.81 C 62.13 63.72 59.95 81.82 59.92 99.99 C 59.90 113.70 59.91 127.42 59.91 141.13 C 64.03 141.13 68.14 141.11 72.25 141.19 C 77.99 128.21 87.99 117.08 100.73 110.70 C 103.22 109.58 106.06 107.52 108.81 109.05 C 111.18 109.97 110.78 112.77 111.47 114.76 L 111.37 115.03 C 110.46 117.23 108.29 118.20 106.30 119.16 C 94.64 124.63 85.38 134.84 80.89 146.89 C 80.17 149.02 78.50 151.15 76.02 151.06 C 70.65 151.26 65.28 151.07 59.91 151.13 C 59.91 162.02 59.90 172.91 59.91 183.80 C 65.60 183.94 71.33 183.50 77.00 184.02 C 79.74 184.51 80.60 187.44 81.53 189.65 C 87.27 204.00 100.13 215.17 115.05 219.10 C 128.67 222.84 143.81 220.41 155.59 212.64 C 164.49 206.87 171.48 198.21 175.21 188.27 C 175.94 186.14 177.45 183.90 179.98 183.90 C 185.34 183.63 190.72 183.88 196.09 183.80 C 196.10 172.91 196.09 162.02 196.09 151.13 C 190.72 151.06 185.34 151.28 179.97 151.05 C 177.18 151.08 175.77 148.38 174.94 146.11 C 170.18 133.66 160.15 123.49 147.95 118.19 C 145.05 117.24 144.30 114.11 144.61 111.40 C 146.20 109.66 148.39 107.63 150.94 108.71 C 165.69 114.51 177.56 126.65 183.82 141.13 C 187.91 141.13 192.00 141.14 196.09 141.13 C 196.00 124.41 196.31 107.68 195.89 90.96 C 195.29 75.82 193.28 60.77 190.84 45.82 C 181.93 45.80 173.02 45.76 164.11 45.84 C 165.89 56.14 167.04 66.60 166.91 77.06 C 166.89 80.03 163.82 82.01 161.04 81.66 C 139.34 81.66 117.64 81.70 95.94 81.65 C 93.28 81.86 90.53 79.77 90.57 76.98 C 90.44 66.53 91.60 56.09 93.37 45.80 C 83.93 45.80 74.48 45.80 65.03 45.81 M 100.57 71.65 C 119.35 71.70 138.13 71.65 156.90 71.67 C 156.52 62.99 155.54 54.34 153.92 45.80 C 137.15 45.79 120.37 45.82 103.60 45.79 C 101.90 54.31 100.99 62.97 100.57 71.65 M 59.91 193.80 C 59.90 211.20 59.91 228.60 59.91 246.00 C 105.30 246.00 150.70 246.00 196.09 246.00 C 196.09 228.60 196.10 211.20 196.09 193.81 C 192.01 193.80 187.93 193.80 183.85 193.80 C 177.74 208.05 166.16 219.92 151.83 225.95 C 135.65 232.98 116.36 232.37 100.70 224.21 C 87.95 217.88 77.93 206.75 72.26 193.77 C 68.14 193.81 64.03 193.80 59.91 193.80 Z" />
<path fill="#000000" opacity="1.00" d=" M 122.80 109.36 C 123.46 107.15 124.52 104.51 127.17 104.24 C 130.38 103.54 132.75 106.44 133.34 109.29 C 132.65 111.73 130.83 114.23 128.02 114.09 C 125.25 114.17 123.56 111.70 122.80 109.36 Z" />
<path fill="#000000" opacity="1.00" d=" M 120.43 130.55 C 128.71 128.01 138.03 129.93 144.85 135.18 C 164.56 150.23 164.79 183.85 145.45 199.30 C 139.52 204.06 131.63 206.44 124.07 205.22 C 116.05 204.05 108.97 199.05 104.25 192.58 C 93.42 177.70 93.72 155.62 105.19 141.17 C 109.10 136.26 114.39 132.35 120.43 130.55 M 127.92 155.93 C 128.89 160.67 132.19 164.34 134.59 168.37 C 139.01 175.68 139.66 184.69 137.55 192.84 C 148.84 185.07 152.21 169.35 148.16 156.76 C 145.67 148.58 139.30 141.18 130.64 139.47 C 127.98 144.46 126.51 150.33 127.92 155.93 M 108.46 179.56 C 111.20 187.16 117.41 194.11 125.71 195.40 C 128.16 190.29 129.65 184.45 128.19 178.83 C 126.88 172.86 121.99 168.67 119.82 163.09 C 116.88 156.50 116.90 149.01 118.59 142.09 C 106.94 150.22 103.70 166.69 108.46 179.56 Z" />
</g>
<g id="#b7bcceff">
<path fill="#b7bcce" opacity="1.00" d=" M 65.83 10.00 C 75.41 10.05 85.00 9.89 94.58 10.09 C 94.47 18.65 94.54 27.22 94.54 35.79 C 84.97 35.82 75.41 35.78 65.85 35.80 C 65.80 27.20 65.84 18.60 65.83 10.00 Z" />
<path fill="#b7bcce" opacity="1.00" d=" M 162.99 10.00 C 171.99 10.00 181.00 10.00 190.00 10.00 C 190.00 18.61 190.04 27.21 189.98 35.81 C 180.99 35.78 171.99 35.80 163.00 35.80 C 162.97 27.20 162.99 18.60 162.99 10.00 Z" />
</g>
<g id="#ffffffff">
<path fill="#ffffff" opacity="1.00" d=" M 104.53 10.00 C 120.68 10.00 136.83 10.00 152.99 10.00 C 152.98 18.60 153.00 27.21 152.97 35.81 C 136.83 35.79 120.68 35.80 104.53 35.80 C 104.52 27.20 104.53 18.60 104.53 10.00 Z" />
<path fill="#ffffff" opacity="1.00" d=" M 100.57 71.65 C 100.99 62.97 101.90 54.31 103.60 45.79 C 120.37 45.82 137.15 45.79 153.92 45.80 C 155.54 54.34 156.52 62.99 156.90 71.67 C 138.13 71.65 119.35 71.70 100.57 71.65 Z" />
<path fill="#ffffff" opacity="1.00" d=" M 112.44 111.53 C 115.70 110.10 119.33 109.94 122.80 109.36 C 123.56 111.70 125.25 114.17 128.02 114.09 C 130.83 114.23 132.65 111.73 133.34 109.29 C 137.11 109.90 140.87 110.59 144.61 111.40 C 144.30 114.11 145.05 117.24 147.95 118.19 C 160.15 123.49 170.18 133.66 174.94 146.11 C 175.77 148.38 177.18 151.08 179.97 151.05 C 185.34 151.28 190.72 151.06 196.09 151.13 C 196.09 162.02 196.10 172.91 196.09 183.80 C 190.72 183.88 185.34 183.63 179.98 183.90 C 177.45 183.90 175.94 186.14 175.21 188.27 C 171.48 198.21 164.49 206.87 155.59 212.64 C 143.81 220.41 128.67 222.84 115.05 219.10 C 100.13 215.17 87.27 204.00 81.53 189.65 C 80.60 187.44 79.74 184.51 77.00 184.02 C 71.33 183.50 65.60 183.94 59.91 183.80 C 59.90 172.91 59.91 162.02 59.91 151.13 C 65.28 151.07 70.65 151.26 76.02 151.06 C 78.50 151.15 80.17 149.02 80.89 146.89 C 85.38 134.84 94.64 124.63 106.30 119.16 C 108.29 118.20 110.46 117.23 111.37 115.03 L 111.47 114.76 C 111.84 113.70 112.03 112.57 112.44 111.53 M 120.43 130.55 C 114.39 132.35 109.10 136.26 105.19 141.17 C 93.72 155.62 93.42 177.70 104.25 192.58 C 108.97 199.05 116.05 204.05 124.07 205.22 C 131.63 206.44 139.52 204.06 145.45 199.30 C 164.79 183.85 164.56 150.23 144.85 135.18 C 138.03 129.93 128.71 128.01 120.43 130.55 Z" />
</g>
<g id="#868eafff">
<path fill="#868eaf" opacity="1.00" d=" M 65.03 45.81 C 74.48 45.80 83.93 45.80 93.37 45.80 C 91.60 56.09 90.44 66.53 90.57 76.98 C 90.53 79.77 93.28 81.86 95.94 81.65 C 117.64 81.70 139.34 81.66 161.04 81.66 C 163.82 82.01 166.89 80.03 166.91 77.06 C 167.04 66.60 165.89 56.14 164.11 45.84 C 173.02 45.76 181.93 45.80 190.84 45.82 C 193.28 60.77 195.29 75.82 195.89 90.96 C 196.31 107.68 196.00 124.41 196.09 141.13 C 192.00 141.14 187.91 141.13 183.82 141.13 C 177.56 126.65 165.69 114.51 150.94 108.71 C 148.39 107.63 146.20 109.66 144.61 111.40 C 140.87 110.59 137.11 109.90 133.34 109.29 C 132.75 106.44 130.38 103.54 127.17 104.24 C 124.52 104.51 123.46 107.15 122.80 109.36 C 119.33 109.94 115.70 110.10 112.44 111.53 C 112.03 112.57 111.84 113.70 111.47 114.76 C 110.78 112.77 111.18 109.97 108.81 109.05 C 106.06 107.52 103.22 109.58 100.73 110.70 C 87.99 117.08 77.99 128.21 72.25 141.19 C 68.14 141.11 64.03 141.13 59.91 141.13 C 59.91 127.42 59.90 113.70 59.92 99.99 C 59.95 81.82 62.13 63.72 65.03 45.81 Z" />
<path fill="#868eaf" opacity="1.00" d=" M 59.91 193.80 C 64.03 193.80 68.14 193.81 72.26 193.77 C 77.93 206.75 87.95 217.88 100.70 224.21 C 116.36 232.37 135.65 232.98 151.83 225.95 C 166.16 219.92 177.74 208.05 183.85 193.80 C 187.93 193.80 192.01 193.80 196.09 193.81 C 196.10 211.20 196.09 228.60 196.09 246.00 C 150.70 246.00 105.30 246.00 59.91 246.00 C 59.91 228.60 59.90 211.20 59.91 193.80 Z" />
</g>
<g id="#ffa76bff">
<path fill="#ffa76b" opacity="1.00" d=" M 127.92 155.93 C 126.51 150.33 127.98 144.46 130.64 139.47 C 139.30 141.18 145.67 148.58 148.16 156.76 C 152.21 169.35 148.84 185.07 137.55 192.84 C 139.66 184.69 139.01 175.68 134.59 168.37 C 132.19 164.34 128.89 160.67 127.92 155.93 Z" />
<path fill="#ffa76b" opacity="1.00" d=" M 108.46 179.56 C 103.70 166.69 106.94 150.22 118.59 142.09 C 116.90 149.01 116.88 156.50 119.82 163.09 C 121.99 168.67 126.88 172.86 128.19 178.83 C 129.65 184.45 128.16 190.29 125.71 195.40 C 117.41 194.11 111.20 187.16 108.46 179.56 Z" />
</g>
</svg>
