<?xml version="1.0" encoding="UTF-8" ?>
<!DOCTYPE svg PUBLIC "-//W3C//DTD SVG 1.1//EN" "http://www.w3.org/Graphics/SVG/1.1/DTD/svg11.dtd">
<svg width="256pt" height="256pt" viewBox="0 0 256 256" version="1.1" xmlns="http://www.w3.org/2000/svg">
<g id="#000000ff">
<path fill="#000000" opacity="1.00" d=" M 59.54 0.00 L 196.44 0.00 C 201.22 1.98 205.94 5.37 207.32 10.65 C 208.60 15.99 207.82 21.56 208.00 27.00 C 208.26 37.24 207.09 47.63 209.46 57.71 C 217.61 104.94 218.57 153.51 211.70 200.97 C 211.09 206.91 209.00 212.72 209.12 218.71 C 211.24 221.63 214.02 224.04 215.87 227.17 C 220.25 234.27 222.92 242.57 222.93 250.95 C 223.06 253.10 221.33 254.62 219.94 256.00 L 36.07 256.00 C 34.67 254.62 32.93 253.11 33.07 250.95 C 33.13 238.92 38.35 227.01 47.13 218.76 C 46.66 213.51 45.44 208.37 44.67 203.16 C 41.24 181.95 39.87 160.46 39.73 139.00 C 39.68 110.00 42.05 80.96 47.46 52.46 C 48.56 44.35 47.77 36.14 48.00 27.99 C 48.22 22.22 47.35 16.32 48.68 10.64 C 50.05 5.38 54.76 1.99 59.54 0.00 M 59.47 11.46 C 57.68 13.13 58.07 15.77 57.97 17.97 C 58.04 26.97 57.96 35.98 58.02 44.98 C 74.67 45.01 91.33 45.02 107.98 44.98 C 108.01 33.33 108.02 21.67 107.98 10.02 C 93.63 9.97 79.29 10.03 64.94 9.98 C 63.05 10.02 60.85 9.93 59.47 11.46 M 118.02 10.02 C 118.09 27.61 117.79 45.22 118.16 62.80 C 121.12 66.40 124.64 69.52 128.00 72.74 C 131.36 69.52 134.89 66.41 137.84 62.80 C 138.21 45.22 137.91 27.61 137.98 10.02 C 131.33 9.98 124.67 9.98 118.02 10.02 M 148.02 10.02 C 147.98 21.67 147.99 33.33 148.02 44.98 C 164.67 45.01 181.33 45.01 197.98 44.98 C 197.98 34.98 198.09 24.97 197.94 14.97 C 198.09 11.84 195.01 9.63 192.07 10.00 C 177.38 10.00 162.70 9.98 148.02 10.02 M 57.08 55.05 C 55.03 66.34 53.30 77.69 52.12 89.11 C 47.85 131.30 48.67 174.28 57.05 215.93 C 73.37 216.17 89.70 215.81 106.01 216.10 C 108.79 216.11 109.95 218.96 111.08 221.01 C 109.94 223.05 108.77 225.89 106.00 225.89 C 88.77 226.31 71.48 225.62 54.25 226.22 C 48.19 230.96 44.81 238.52 43.54 245.97 C 99.85 246.02 156.15 246.02 212.45 245.97 C 211.18 238.51 207.78 230.99 201.76 226.19 C 184.53 225.66 167.24 226.29 149.99 225.90 C 147.23 225.88 146.05 223.05 144.92 221.01 C 146.04 218.95 147.19 216.08 149.99 216.10 C 166.30 215.82 182.62 216.16 198.94 215.94 C 200.85 206.61 202.29 197.19 203.40 187.74 C 208.40 143.61 206.96 98.74 198.91 55.06 C 181.95 54.93 164.98 55.02 148.01 55.01 C 147.98 58.35 148.09 61.70 147.95 65.03 C 148.01 67.67 145.66 69.32 144.07 71.06 C 139.64 75.28 135.55 79.86 130.99 83.92 C 128.63 86.03 125.23 84.74 123.45 82.55 C 118.60 77.44 113.23 72.78 108.67 67.41 C 107.28 63.50 108.30 59.12 107.99 55.01 C 91.02 55.01 74.05 54.94 57.08 55.05 Z" />
<path fill="#000000" opacity="1.00" d=" M 117.40 110.60 C 124.68 109.50 132.31 110.71 138.83 114.15 C 146.10 117.87 151.16 124.50 157.00 129.99 C 165.14 137.56 169.46 149.02 167.99 160.07 C 166.48 173.83 155.99 186.02 142.59 189.52 C 130.67 192.95 117.20 189.28 108.50 180.48 C 103.89 175.75 98.93 171.33 94.75 166.22 C 87.28 156.47 85.63 142.67 90.54 131.42 C 95.15 120.50 105.65 112.29 117.40 110.60 M 108.99 124.19 C 122.54 138.23 136.60 151.79 150.28 165.72 C 151.46 166.87 152.56 168.16 154.01 168.99 C 155.35 168.76 155.45 167.03 156.09 166.07 C 160.45 156.59 158.09 144.64 150.42 137.56 C 144.49 132.18 139.67 125.08 132.01 121.99 C 124.56 118.89 115.78 119.94 108.99 124.19 M 105.57 163.43 C 111.17 168.49 115.70 175.01 122.61 178.40 C 130.32 182.15 139.79 181.35 147.00 176.81 C 143.62 172.93 139.79 169.47 136.20 165.80 C 124.73 154.45 113.50 142.85 101.89 131.66 C 94.93 141.18 97.00 155.56 105.57 163.43 Z" />
<path fill="#000000" opacity="1.00" d=" M 122.47 221.01 C 123.62 218.75 124.96 215.79 128.00 215.99 C 131.03 215.78 132.36 218.77 133.53 221.01 C 132.35 223.23 131.02 226.20 128.00 226.00 C 124.97 226.21 123.65 223.23 122.47 221.01 Z" />
</g>
<g id="#c1b0b5ff">
<path fill="#c1b0b5" opacity="1.00" d=" M 59.47 11.46 C 60.85 9.93 63.05 10.02 64.94 9.98 C 79.29 10.03 93.63 9.97 107.98 10.02 C 108.02 21.67 108.01 33.33 107.98 44.98 C 91.33 45.02 74.67 45.01 58.02 44.98 C 57.96 35.98 58.04 26.97 57.97 17.97 C 58.07 15.77 57.68 13.13 59.47 11.46 Z" />
<path fill="#c1b0b5" opacity="1.00" d=" M 148.02 10.02 C 162.70 9.98 177.38 10.00 192.07 10.00 C 195.01 9.63 198.09 11.84 197.94 14.97 C 198.09 24.97 197.98 34.98 197.98 44.98 C 181.33 45.01 164.67 45.01 148.02 44.98 C 147.99 33.33 147.98 21.67 148.02 10.02 Z" />
<path fill="#c1b0b5" opacity="1.00" d=" M 108.99 124.19 C 115.78 119.94 124.56 118.89 132.01 121.99 C 139.67 125.08 144.49 132.18 150.42 137.56 C 158.09 144.64 160.45 156.59 156.09 166.07 C 155.45 167.03 155.35 168.76 154.01 168.99 C 152.56 168.16 151.46 166.87 150.28 165.72 C 136.60 151.79 122.54 138.23 108.99 124.19 Z" />
<path fill="#c1b0b5" opacity="1.00" d=" M 105.57 163.43 C 97.00 155.56 94.93 141.18 101.89 131.66 C 113.50 142.85 124.73 154.45 136.20 165.80 C 139.79 169.47 143.62 172.93 147.00 176.81 C 139.79 181.35 130.32 182.15 122.61 178.40 C 115.70 175.01 111.17 168.49 105.57 163.43 Z" />
<path fill="#c1b0b5" opacity="1.00" d=" M 111.08 221.01 C 114.88 221.00 118.67 220.99 122.47 221.01 C 123.65 223.23 124.97 226.21 128.00 226.00 C 131.02 226.20 132.35 223.23 133.53 221.01 C 137.33 221.00 141.12 221.00 144.92 221.01 C 146.05 223.05 147.23 225.88 149.99 225.90 C 167.24 226.29 184.53 225.66 201.76 226.19 C 207.78 230.99 211.18 238.51 212.45 245.97 C 156.15 246.02 99.85 246.02 43.54 245.97 C 44.81 238.52 48.19 230.96 54.25 226.22 C 71.48 225.62 88.77 226.31 106.00 225.89 C 108.77 225.89 109.94 223.05 111.08 221.01 Z" />
</g>
<g id="#ff7b79ff">
<path fill="#ff7b79" opacity="1.00" d=" M 118.02 10.02 C 124.67 9.98 131.33 9.98 137.98 10.02 C 137.91 27.61 138.21 45.22 137.84 62.80 C 134.89 66.41 131.36 69.52 128.00 72.74 C 124.64 69.52 121.12 66.40 118.16 62.80 C 117.79 45.22 118.09 27.61 118.02 10.02 Z" />
</g>
<g id="#ffcd69ff">
<path fill="#ffcd69" opacity="1.00" d=" M 57.08 55.05 C 74.05 54.94 91.02 55.01 107.99 55.01 C 108.30 59.12 107.28 63.50 108.67 67.41 C 113.23 72.78 118.60 77.44 123.45 82.55 C 125.23 84.74 128.63 86.03 130.99 83.92 C 135.55 79.86 139.64 75.28 144.07 71.06 C 145.66 69.32 148.01 67.67 147.95 65.03 C 148.09 61.70 147.98 58.35 148.01 55.01 C 164.98 55.02 181.95 54.93 198.91 55.06 C 206.96 98.74 208.40 143.61 203.40 187.74 C 202.29 197.19 200.85 206.61 198.94 215.94 C 182.62 216.16 166.30 215.82 149.99 216.10 C 147.19 216.08 146.04 218.95 144.92 221.01 C 141.12 221.00 137.33 221.00 133.53 221.01 C 132.36 218.77 131.03 215.78 128.00 215.99 C 124.96 215.79 123.62 218.75 122.47 221.01 C 118.67 220.99 114.88 221.00 111.08 221.01 C 109.95 218.96 108.79 216.11 106.01 216.10 C 89.70 215.81 73.37 216.17 57.05 215.93 C 48.67 174.28 47.85 131.30 52.12 89.11 C 53.30 77.69 55.03 66.34 57.08 55.05 M 117.40 110.60 C 105.65 112.29 95.15 120.50 90.54 131.42 C 85.63 142.67 87.28 156.47 94.75 166.22 C 98.93 171.33 103.89 175.75 108.50 180.48 C 117.20 189.28 130.67 192.95 142.59 189.52 C 155.99 186.02 166.48 173.83 167.99 160.07 C 169.46 149.02 165.14 137.56 157.00 129.99 C 151.16 124.50 146.10 117.87 138.83 114.15 C 132.31 110.71 124.68 109.50 117.40 110.60 Z" />
</g>
</svg>
