<?xml version="1.0" encoding="UTF-8" ?>
<!DOCTYPE svg PUBLIC "-//W3C//DTD SVG 1.1//EN" "http://www.w3.org/Graphics/SVG/1.1/DTD/svg11.dtd">
<svg width="256pt" height="256pt" viewBox="0 0 256 256" version="1.1" xmlns="http://www.w3.org/2000/svg">
<g id="#000000ff">
<path fill="#000000" opacity="1.00" d=" M 167.57 0.00 L 190.67 0.00 C 192.28 0.92 194.27 2.00 194.35 4.11 C 194.80 9.55 194.39 15.02 194.52 20.46 C 199.88 20.59 205.26 20.21 210.61 20.60 C 212.81 20.74 214.80 22.64 214.87 24.88 C 215.27 30.24 214.90 35.63 215.01 41.00 C 220.39 41.12 225.78 40.74 231.15 41.14 C 233.62 41.21 235.53 43.59 235.43 45.99 C 235.69 51.15 235.41 56.31 235.51 61.47 C 240.97 61.60 246.44 61.18 251.88 61.64 C 253.93 61.73 255.01 63.66 256.00 65.19 L 256.00 88.18 C 254.16 91.22 251.51 93.60 249.00 96.06 C 229.48 115.53 210.03 135.09 190.48 154.53 C 188.50 156.89 185.28 156.52 182.85 155.14 C 182.09 153.29 180.92 151.07 182.17 149.16 C 183.73 146.78 185.98 144.99 187.94 142.96 C 200.62 130.31 213.28 117.64 225.95 104.97 C 200.97 80.01 176.01 55.03 151.03 30.07 C 110.71 70.39 70.42 110.73 30.07 151.02 C 55.04 175.99 80.01 200.96 104.98 225.93 C 118.80 212.11 132.62 198.30 146.42 184.47 C 148.45 182.50 150.25 180.26 152.64 178.72 C 154.57 177.54 156.75 178.66 158.59 179.43 C 159.12 181.10 160.25 182.85 159.55 184.66 C 158.32 187.23 155.96 189.00 154.03 191.03 C 133.52 211.53 112.99 232.02 92.52 252.57 C 91.25 253.82 89.85 254.94 88.41 256.00 L 65.39 256.00 C 63.72 255.11 61.70 253.99 61.64 251.83 C 61.20 246.41 61.61 240.96 61.48 235.54 C 56.12 235.41 50.75 235.79 45.41 235.39 C 43.19 235.26 41.19 233.37 41.13 231.12 C 40.73 225.75 41.10 220.37 40.98 215.00 C 35.63 214.88 30.25 215.25 24.91 214.87 C 22.44 214.82 20.48 212.49 20.58 210.07 C 20.30 204.90 20.58 199.71 20.49 194.53 C 15.12 194.41 9.74 194.80 4.38 194.39 C 2.23 194.38 1.02 192.45 0.00 190.85 L 0.00 167.80 C 1.73 164.98 4.16 162.73 6.51 160.45 C 57.35 109.66 108.12 58.82 158.95 8.02 C 161.73 5.26 164.34 2.28 167.57 0.00 M 171.11 10.00 C 166.78 14.34 162.44 18.67 158.10 23.00 C 183.07 47.96 208.04 72.93 233.00 97.90 C 237.35 93.59 241.65 89.22 246.01 84.91 C 246.00 80.43 246.00 75.94 245.99 71.46 C 240.69 71.39 235.38 71.62 230.08 71.38 C 227.77 71.36 225.68 69.30 225.60 67.00 C 225.34 61.68 225.59 56.34 225.51 51.01 C 220.32 50.92 215.11 51.15 209.92 50.93 C 207.35 51.02 204.98 48.71 205.08 46.12 C 204.87 40.90 205.10 35.68 205.01 30.46 C 199.68 30.39 194.34 30.62 189.01 30.38 C 186.72 30.34 184.67 28.25 184.61 25.97 C 184.35 20.66 184.60 15.33 184.52 10.01 C 180.05 10.00 175.58 10.00 171.11 10.00 M 10.00 171.12 C 10.00 175.59 10.00 180.06 10.01 184.54 C 15.33 184.61 20.66 184.37 25.97 184.62 C 28.29 184.67 30.36 186.77 30.40 189.09 C 30.66 194.38 30.42 199.69 30.49 204.99 C 35.68 205.08 40.87 204.85 46.06 205.07 C 48.63 204.96 50.99 207.27 50.91 209.85 C 51.14 215.07 50.89 220.31 51.00 225.54 C 56.32 225.61 61.64 225.38 66.95 225.62 C 69.27 225.63 71.34 227.75 71.38 230.06 C 71.65 235.36 71.40 240.68 71.47 245.99 C 75.95 246.00 80.43 246.00 84.91 246.00 C 89.24 241.67 93.58 237.34 97.90 232.99 C 72.94 208.02 47.97 183.06 23.01 158.10 C 18.68 162.45 14.32 166.76 10.00 171.12 Z" />
<path fill="#000000" opacity="1.00" d=" M 118.57 96.76 C 129.88 94.18 142.36 96.34 151.76 103.26 C 158.72 108.33 163.87 116.17 164.79 124.84 C 165.81 133.24 162.68 141.85 156.97 148.02 C 145.90 160.26 126.84 163.48 111.87 157.05 C 102.81 153.24 95.02 145.70 92.21 136.12 C 89.88 128.49 91.05 119.94 95.18 113.13 C 100.21 104.68 109.08 98.93 118.57 96.76 M 104.11 117.37 C 111.15 115.71 118.85 116.17 125.23 119.78 C 129.95 122.14 133.02 127.00 138.16 128.63 C 143.82 130.71 150.19 129.32 155.01 125.89 C 154.07 120.78 151.55 115.96 147.52 112.62 C 135.12 101.88 113.72 103.80 104.11 117.37 M 100.97 130.09 C 101.88 134.76 103.97 139.26 107.53 142.51 C 119.72 154.21 142.03 152.54 151.89 138.62 C 145.08 140.20 137.68 139.90 131.42 136.58 C 126.14 134.15 122.83 128.61 117.03 127.16 C 111.56 125.39 105.60 126.89 100.97 130.09 Z" />
<path fill="#000000" opacity="1.00" d=" M 167.42 163.50 C 169.44 161.51 172.30 162.59 174.59 163.43 C 175.57 165.84 176.41 169.09 174.02 170.99 C 172.03 172.98 169.14 172.12 166.93 171.06 C 165.65 168.70 165.01 165.39 167.42 163.50 Z" />
</g>
<g id="#ffce69ff">
<path fill="#ffce69" opacity="1.00" d=" M 171.11 10.00 C 175.58 10.00 180.05 10.00 184.52 10.01 C 184.60 15.33 184.35 20.66 184.61 25.97 C 184.67 28.25 186.72 30.34 189.01 30.38 C 194.34 30.62 199.68 30.39 205.01 30.46 C 205.10 35.68 204.87 40.90 205.08 46.12 C 204.98 48.71 207.35 51.02 209.92 50.93 C 215.11 51.15 220.32 50.92 225.51 51.01 C 225.59 56.34 225.34 61.68 225.60 67.00 C 225.68 69.30 227.77 71.36 230.08 71.38 C 235.38 71.62 240.69 71.39 245.99 71.46 C 246.00 75.94 246.00 80.43 246.01 84.91 C 241.65 89.22 237.35 93.59 233.00 97.90 C 208.04 72.93 183.07 47.96 158.10 23.00 C 162.44 18.67 166.78 14.34 171.11 10.00 Z" />
<path fill="#ffce69" opacity="1.00" d=" M 10.00 171.12 C 14.32 166.76 18.68 162.45 23.01 158.10 C 47.97 183.06 72.94 208.02 97.90 232.99 C 93.58 237.34 89.24 241.67 84.91 246.00 C 80.43 246.00 75.95 246.00 71.47 245.99 C 71.40 240.68 71.65 235.36 71.38 230.06 C 71.34 227.75 69.27 225.63 66.95 225.62 C 61.64 225.38 56.32 225.61 51.00 225.54 C 50.89 220.31 51.14 215.07 50.91 209.85 C 50.99 207.27 48.63 204.96 46.06 205.07 C 40.87 204.85 35.68 205.08 30.49 204.99 C 30.42 199.69 30.66 194.38 30.40 189.09 C 30.36 186.77 28.29 184.67 25.97 184.62 C 20.66 184.37 15.33 184.61 10.01 184.54 C 10.00 180.06 10.00 175.59 10.00 171.12 Z" />
</g>
<g id="#ff7b79ff">
<path fill="#ff7b79" opacity="1.00" d=" M 30.07 151.02 C 70.42 110.73 110.71 70.39 151.03 30.07 C 176.01 55.03 200.97 80.01 225.95 104.97 C 213.28 117.64 200.62 130.31 187.94 142.96 C 185.98 144.99 183.73 146.78 182.17 149.16 C 180.92 151.07 182.09 153.29 182.85 155.14 C 180.09 157.90 177.32 160.65 174.59 163.43 C 172.30 162.59 169.44 161.51 167.42 163.50 C 165.01 165.39 165.65 168.70 166.93 171.06 C 164.14 173.85 161.34 176.62 158.59 179.43 C 156.75 178.66 154.57 177.54 152.64 178.72 C 150.25 180.26 148.45 182.50 146.42 184.47 C 132.62 198.30 118.80 212.11 104.98 225.93 C 80.01 200.96 55.04 175.99 30.07 151.02 M 118.57 96.76 C 109.08 98.93 100.21 104.68 95.18 113.13 C 91.05 119.94 89.88 128.49 92.21 136.12 C 95.02 145.70 102.81 153.24 111.87 157.05 C 126.84 163.48 145.90 160.26 156.97 148.02 C 162.68 141.85 165.81 133.24 164.79 124.84 C 163.87 116.17 158.72 108.33 151.76 103.26 C 142.36 96.34 129.88 94.18 118.57 96.76 Z" />
</g>
<g id="#d1a184ff">
<path fill="#d1a184" opacity="1.00" d=" M 104.11 117.37 C 113.72 103.80 135.12 101.88 147.52 112.62 C 151.55 115.96 154.07 120.78 155.01 125.89 C 150.19 129.32 143.82 130.71 138.16 128.63 C 133.02 127.00 129.95 122.14 125.23 119.78 C 118.85 116.17 111.15 115.71 104.11 117.37 Z" />
</g>
<g id="#c68a65ff">
<path fill="#c68a65" opacity="1.00" d=" M 100.97 130.09 C 105.60 126.89 111.56 125.39 117.03 127.16 C 122.83 128.61 126.14 134.15 131.42 136.58 C 137.68 139.90 145.08 140.20 151.89 138.62 C 142.03 152.54 119.72 154.21 107.53 142.51 C 103.97 139.26 101.88 134.76 100.97 130.09 Z" />
</g>
</svg>
