<?xml version="1.0" encoding="UTF-8" ?>
<!DOCTYPE svg PUBLIC "-//W3C//DTD SVG 1.1//EN" "http://www.w3.org/Graphics/SVG/1.1/DTD/svg11.dtd">
<svg width="256pt" height="256pt" viewBox="0 0 256 256" version="1.1" xmlns="http://www.w3.org/2000/svg">
<g id="#000000ff">
<path fill="#000000" opacity="1.00" d=" M 46.42 0.00 L 209.51 0.00 C 214.07 0.74 218.27 3.73 219.96 8.11 C 221.67 12.00 220.14 16.22 219.76 20.22 C 219.08 27.32 219.14 34.57 220.67 41.57 C 224.72 60.18 227.66 79.05 229.22 98.04 C 229.41 101.03 229.93 104.05 229.50 107.04 C 228.96 109.17 226.81 110.00 225.00 110.76 C 222.49 110.28 219.85 108.68 219.80 105.83 C 218.42 85.78 215.64 65.82 211.39 46.16 C 208.77 34.89 208.63 23.05 210.98 11.71 C 209.61 10.45 207.90 9.79 206.02 9.98 C 153.66 10.03 101.29 9.96 48.92 10.02 C 47.20 9.76 44.81 10.98 45.34 13.02 C 47.09 23.27 47.28 33.87 45.04 44.07 C 38.78 72.95 35.22 102.48 35.61 132.06 C 35.89 158.92 39.37 185.69 45.04 211.92 C 47.29 222.11 47.08 232.71 45.34 242.96 C 44.80 245.02 47.20 246.25 48.94 245.98 C 101.63 246.01 154.32 246.01 207.01 245.99 C 208.75 246.26 211.21 245.06 210.67 242.98 C 208.84 232.40 208.76 221.45 211.15 210.95 C 215.51 190.93 218.40 170.59 219.80 150.15 C 219.85 147.31 222.49 145.71 225.00 145.24 C 226.92 145.99 229.22 146.99 229.56 149.30 C 229.86 152.03 229.44 154.78 229.26 157.50 C 227.72 176.42 224.82 195.21 220.81 213.75 C 218.71 222.98 219.05 232.61 220.63 241.89 C 221.82 248.69 216.16 255.05 209.59 256.00 L 46.52 256.00 C 39.92 255.12 34.19 248.74 35.37 241.92 C 36.95 232.62 37.29 223.00 35.21 213.75 C 29.68 188.21 26.23 162.18 25.66 136.04 C 24.94 105.17 28.38 74.28 34.82 44.11 C 36.82 35.86 37.13 27.25 36.07 18.85 C 35.59 15.31 34.51 11.54 36.05 8.11 C 37.72 3.75 41.89 0.79 46.42 0.00 Z" />
<path fill="#000000" opacity="1.00" d=" M 63.16 25.31 C 66.53 24.88 71.31 24.02 73.39 27.50 C 75.38 30.57 72.82 35.08 69.17 34.97 C 66.42 35.01 62.91 35.61 60.99 33.10 C 58.84 30.62 60.06 26.33 63.16 25.31 Z" />
<path fill="#000000" opacity="1.00" d=" M 87.34 25.40 C 91.37 24.32 98.43 24.34 98.47 30.07 C 98.27 35.71 91.29 35.65 87.30 34.57 C 83.36 33.08 83.39 26.85 87.34 25.40 Z" />
<path fill="#000000" opacity="1.00" d=" M 112.16 25.26 C 115.56 24.88 120.40 24.04 122.33 27.72 C 124.07 30.76 121.59 35.01 118.07 34.96 C 115.28 35.00 111.70 35.64 109.77 33.05 C 107.62 30.52 108.97 26.15 112.16 25.26 Z" />
<path fill="#000000" opacity="1.00" d=" M 137.04 25.15 C 140.23 24.96 144.58 24.14 146.56 27.40 C 148.46 30.22 146.48 34.54 143.10 34.89 C 140.06 35.02 136.07 35.78 134.04 32.86 C 131.96 30.16 133.66 25.70 137.04 25.15 Z" />
<path fill="#000000" opacity="1.00" d=" M 160.43 25.46 C 163.25 24.76 166.55 24.54 169.28 25.72 C 173.00 27.69 172.16 33.90 168.05 34.79 C 165.01 35.02 161.13 35.82 158.80 33.31 C 156.55 30.98 157.48 26.72 160.43 25.46 Z" />
<path fill="#000000" opacity="1.00" d=" M 184.47 25.66 C 187.92 24.66 193.19 23.92 195.45 27.51 C 197.45 30.63 194.80 35.17 191.11 34.98 C 188.56 34.98 185.45 35.55 183.46 33.56 C 181.09 31.41 181.65 27.14 184.47 25.66 Z" />
<path fill="#000000" opacity="1.00" d=" M 86.76 84.75 C 93.97 76.06 104.60 69.89 116.02 69.40 C 127.83 68.63 139.41 74.13 147.37 82.66 C 154.71 90.37 159.39 100.32 161.60 110.67 C 167.77 112.73 173.49 116.43 177.24 121.82 C 183.26 130.11 184.24 141.19 181.60 150.89 C 177.14 167.47 163.25 181.18 146.61 185.39 C 137.75 187.62 127.83 186.98 119.95 182.07 C 118.06 180.99 116.47 179.09 114.14 179.04 C 101.75 177.85 90.78 170.07 83.83 159.99 C 68.52 137.88 69.41 105.49 86.76 84.75 M 121.07 79.42 C 118.18 85.88 115.84 92.82 116.20 99.98 C 116.50 107.31 119.85 113.99 122.80 120.54 C 130.72 113.95 140.65 109.65 151.02 109.32 C 147.23 95.14 136.40 81.40 121.07 79.42 M 90.50 96.53 C 82.35 109.99 80.95 127.07 85.82 141.93 C 89.36 152.82 96.93 162.84 107.69 167.38 C 102.99 154.14 106.98 139.26 115.31 128.38 C 111.92 120.47 107.72 112.72 106.54 104.08 C 105.34 96.09 107.06 88.02 109.74 80.51 C 101.61 83.25 94.89 89.24 90.50 96.53 M 117.93 143.83 C 114.73 151.61 114.60 160.99 119.29 168.22 C 125.28 165.25 131.15 161.55 135.18 156.08 C 140.95 148.48 141.93 138.38 147.78 130.82 C 150.94 126.44 155.41 123.29 160.04 120.63 C 142.68 115.24 124.28 127.85 117.93 143.83 M 155.40 137.34 C 151.11 143.65 149.87 151.43 145.91 157.92 C 141.79 165.31 135.12 170.85 127.91 175.08 C 131.83 176.46 136.02 177.03 140.16 176.50 C 153.58 174.81 165.28 165.00 170.48 152.68 C 173.88 144.68 174.16 134.90 169.14 127.51 C 163.90 129.67 158.66 132.54 155.40 137.34 Z" />
<path fill="#000000" opacity="1.00" d=" M 220.45 128.00 C 220.29 125.11 222.93 123.38 225.37 122.66 C 227.86 123.34 230.59 125.03 230.44 127.99 C 230.60 130.95 227.87 132.64 225.37 133.33 C 222.93 132.60 220.30 130.88 220.45 128.00 Z" />
<path fill="#000000" opacity="1.00" d=" M 63.20 221.30 C 66.41 220.93 70.73 220.07 73.04 222.99 C 75.30 225.68 73.57 230.30 70.11 230.86 C 67.08 231.00 63.14 231.81 60.97 229.08 C 58.83 226.58 60.08 222.29 63.20 221.30 Z" />
<path fill="#000000" opacity="1.00" d=" M 87.27 221.43 C 91.29 220.32 98.37 220.30 98.47 226.02 C 98.32 231.69 91.33 231.66 87.32 230.58 C 83.40 229.12 83.37 222.94 87.27 221.43 Z" />
<path fill="#000000" opacity="1.00" d=" M 112.11 221.27 C 115.52 220.87 120.39 220.02 122.33 223.73 C 124.07 226.79 121.57 231.03 118.05 230.96 C 115.26 231.00 111.68 231.63 109.76 229.04 C 107.64 226.52 108.95 222.19 112.11 221.27 Z" />
<path fill="#000000" opacity="1.00" d=" M 137.04 221.15 C 140.22 220.96 144.55 220.14 146.54 223.37 C 148.49 226.20 146.47 230.58 143.06 230.90 C 140.03 231.02 136.05 231.78 134.03 228.85 C 131.96 226.15 133.66 221.70 137.04 221.15 Z" />
<path fill="#000000" opacity="1.00" d=" M 160.41 221.47 C 163.23 220.76 166.54 220.55 169.27 221.71 C 173.01 223.68 172.16 229.94 168.00 230.80 C 164.98 231.01 161.10 231.81 158.79 229.29 C 156.56 226.97 157.48 222.73 160.41 221.47 Z" />
<path fill="#000000" opacity="1.00" d=" M 184.42 221.69 C 188.41 220.18 195.91 220.15 196.12 225.95 C 196.05 231.64 188.99 231.70 184.98 230.58 C 181.30 229.21 180.93 223.51 184.42 221.69 Z" />
</g>
<g id="#757cb6">
<path fill="#757cb6" opacity="1.00" d=" M 45.34 13.02 C 44.81 10.98 47.20 9.76 48.92 10.02 C 101.29 9.96 153.66 10.03 206.02 9.98 C 207.90 9.79 209.61 10.45 210.98 11.71 C 208.63 23.05 208.77 34.89 211.39 46.16 C 215.64 65.82 218.42 85.78 219.80 105.83 C 219.85 108.68 222.49 110.28 225.00 110.76 C 225.20 114.72 225.32 118.69 225.37 122.66 C 222.93 123.38 220.29 125.11 220.45 128.00 C 220.30 130.88 222.93 132.60 225.37 133.33 C 225.32 137.30 225.20 141.27 225.00 145.24 C 222.49 145.71 219.85 147.31 219.80 150.15 C 218.40 170.59 215.51 190.93 211.15 210.95 C 208.76 221.45 208.84 232.40 210.67 242.98 C 211.21 245.06 208.75 246.26 207.01 245.99 C 154.32 246.01 101.63 246.01 48.94 245.98 C 47.20 246.25 44.80 245.02 45.34 242.96 C 47.08 232.71 47.29 222.11 45.04 211.92 C 39.37 185.69 35.89 158.92 35.61 132.06 C 35.22 102.48 38.78 72.95 45.04 44.07 C 47.28 33.87 47.09 23.27 45.34 13.02 M 63.16 25.31 C 60.06 26.33 58.84 30.62 60.99 33.10 C 62.91 35.61 66.42 35.01 69.17 34.97 C 72.82 35.08 75.38 30.57 73.39 27.50 C 71.31 24.02 66.53 24.88 63.16 25.31 M 87.34 25.40 C 83.39 26.85 83.36 33.08 87.30 34.57 C 91.29 35.65 98.27 35.71 98.47 30.07 C 98.43 24.34 91.37 24.32 87.34 25.40 M 112.16 25.26 C 108.97 26.15 107.62 30.52 109.77 33.05 C 111.70 35.64 115.28 35.00 118.07 34.96 C 121.59 35.01 124.07 30.76 122.33 27.72 C 120.40 24.04 115.56 24.88 112.16 25.26 M 137.04 25.15 C 133.66 25.70 131.96 30.16 134.04 32.86 C 136.07 35.78 140.06 35.02 143.10 34.89 C 146.48 34.54 148.46 30.22 146.56 27.40 C 144.58 24.14 140.23 24.96 137.04 25.15 M 160.43 25.46 C 157.48 26.72 156.55 30.98 158.80 33.31 C 161.13 35.82 165.01 35.02 168.05 34.79 C 172.16 33.90 173.00 27.69 169.28 25.72 C 166.55 24.54 163.25 24.76 160.43 25.46 M 184.47 25.66 C 181.65 27.14 181.09 31.41 183.46 33.56 C 185.45 35.55 188.56 34.98 191.11 34.98 C 194.80 35.17 197.45 30.63 195.45 27.51 C 193.19 23.92 187.92 24.66 184.47 25.66 M 86.76 84.75 C 69.41 105.49 68.52 137.88 83.83 159.99 C 90.78 170.07 101.75 177.85 114.14 179.04 C 116.47 179.09 118.06 180.99 119.95 182.07 C 127.83 186.98 137.75 187.62 146.61 185.39 C 163.25 181.18 177.14 167.47 181.60 150.89 C 184.24 141.19 183.26 130.11 177.24 121.82 C 173.49 116.43 167.77 112.73 161.60 110.67 C 159.39 100.32 154.71 90.37 147.37 82.66 C 139.41 74.13 127.83 68.63 116.02 69.40 C 104.60 69.89 93.97 76.06 86.76 84.75 M 63.20 221.30 C 60.08 222.29 58.83 226.58 60.97 229.08 C 63.14 231.81 67.08 231.00 70.11 230.86 C 73.57 230.30 75.30 225.68 73.04 222.99 C 70.73 220.07 66.41 220.93 63.20 221.30 M 87.27 221.43 C 83.37 222.94 83.40 229.12 87.32 230.58 C 91.33 231.66 98.32 231.69 98.47 226.02 C 98.37 220.30 91.29 220.32 87.27 221.43 M 112.11 221.27 C 108.95 222.19 107.64 226.52 109.76 229.04 C 111.68 231.63 115.26 231.00 118.05 230.96 C 121.57 231.03 124.07 226.79 122.33 223.73 C 120.39 220.02 115.52 220.87 112.11 221.27 M 137.04 221.15 C 133.66 221.70 131.96 226.15 134.03 228.85 C 136.05 231.78 140.03 231.02 143.06 230.90 C 146.47 230.58 148.49 226.20 146.54 223.37 C 144.55 220.14 140.22 220.96 137.04 221.15 M 160.41 221.47 C 157.48 222.73 156.56 226.97 158.79 229.29 C 161.10 231.81 164.98 231.01 168.00 230.80 C 172.16 229.94 173.01 223.68 169.27 221.71 C 166.54 220.55 163.23 220.76 160.41 221.47 M 184.42 221.69 C 180.93 223.51 181.30 229.21 184.98 230.58 C 188.99 231.70 196.05 231.64 196.12 225.95 C 195.91 220.15 188.41 220.18 184.42 221.69 Z" />
</g>
<g id="#e8d0c1ff">
<path fill="#e8d0c1" opacity="1.00" d=" M 121.07 79.42 C 136.40 81.40 147.23 95.14 151.02 109.32 C 140.65 109.65 130.72 113.95 122.80 120.54 C 119.85 113.99 116.50 107.31 116.20 99.98 C 115.84 92.82 118.18 85.88 121.07 79.42 Z" />
<path fill="#e8d0c1" opacity="1.00" d=" M 90.50 96.53 C 94.89 89.24 101.61 83.25 109.74 80.51 C 107.06 88.02 105.34 96.09 106.54 104.08 C 107.72 112.72 111.92 120.47 115.31 128.38 C 106.98 139.26 102.99 154.14 107.69 167.38 C 96.93 162.84 89.36 152.82 85.82 141.93 C 80.95 127.07 82.35 109.99 90.50 96.53 Z" />
</g>
<g id="#d1a184ff">
<path fill="#d1a184" opacity="1.00" d=" M 117.93 143.83 C 124.28 127.85 142.68 115.24 160.04 120.63 C 155.41 123.29 150.94 126.44 147.78 130.82 C 141.93 138.38 140.95 148.48 135.18 156.08 C 131.15 161.55 125.28 165.25 119.29 168.22 C 114.60 160.99 114.73 151.61 117.93 143.83 Z" />
<path fill="#d1a184" opacity="1.00" d=" M 155.40 137.34 C 158.66 132.54 163.90 129.67 169.14 127.51 C 174.16 134.90 173.88 144.68 170.48 152.68 C 165.28 165.00 153.58 174.81 140.16 176.50 C 136.02 177.03 131.83 176.46 127.91 175.08 C 135.12 170.85 141.79 165.31 145.91 157.92 C 149.87 151.43 151.11 143.65 155.40 137.34 Z" />
</g>
</svg>
