<?xml version="1.0" encoding="UTF-8" ?>
<!DOCTYPE svg PUBLIC "-//W3C//DTD SVG 1.1//EN" "http://www.w3.org/Graphics/SVG/1.1/DTD/svg11.dtd">
<svg width="256pt" height="256pt" viewBox="0 0 256 256" version="1.1" xmlns="http://www.w3.org/2000/svg">
<g id="#000000ff">
<path fill="#000000" opacity="1.00" d=" M 115.54 0.00 L 118.14 0.00 C 120.87 0.91 122.87 3.95 121.67 6.77 C 119.73 9.83 116.87 12.37 115.91 15.99 C 113.34 23.21 115.83 31.48 121.35 36.64 C 132.15 47.73 131.47 67.69 119.60 77.73 C 116.68 79.78 112.22 77.50 112.02 73.98 C 111.66 71.51 113.77 69.83 115.05 68.04 C 119.41 62.69 120.24 54.86 117.44 48.61 C 115.47 43.87 110.93 40.91 108.62 36.37 C 101.90 24.76 104.47 8.00 115.54 0.00 Z" />
<path fill="#000000" opacity="1.00" d=" M 74.27 19.20 C 78.35 16.60 83.64 21.98 80.99 25.98 C 78.17 29.29 75.76 33.43 76.67 37.97 C 77.18 43.24 82.18 46.12 84.29 50.63 C 88.92 59.30 87.00 70.96 79.61 77.50 C 76.74 79.91 71.87 77.68 71.69 73.98 C 71.34 70.59 74.90 68.78 75.84 65.82 C 77.97 60.94 76.39 55.10 72.60 51.50 C 64.01 42.80 64.59 26.83 74.27 19.20 Z" />
<path fill="#000000" opacity="1.00" d=" M 154.46 19.53 C 157.30 17.24 162.00 19.38 162.30 22.97 C 162.75 26.41 159.14 28.26 158.15 31.23 C 156.04 36.08 157.54 41.91 161.32 45.50 C 169.94 54.17 169.42 70.07 159.85 77.81 C 155.75 80.60 150.25 75.08 153.05 71.04 C 155.90 67.74 158.23 63.55 157.31 59.03 C 156.77 53.76 151.72 50.92 149.66 46.38 C 145.05 37.70 147.00 26.00 154.46 19.53 Z" />
<path fill="#000000" opacity="1.00" d=" M 25.20 95.94 C 25.04 92.87 28.07 90.58 30.99 90.94 C 52.02 90.94 73.04 90.89 94.06 90.97 C 97.07 90.65 99.23 93.20 99.70 95.93 C 99.29 98.70 97.05 101.26 94.05 100.92 C 74.42 100.95 54.78 100.92 35.15 100.94 C 35.29 120.11 33.70 139.84 40.28 158.25 C 47.76 154.32 56.88 152.73 64.92 155.89 C 72.86 158.82 78.49 166.64 79.19 175.01 C 80.26 185.10 75.57 194.98 68.56 202.01 C 100.72 201.99 132.89 202.00 165.06 202.00 C 185.10 184.07 197.58 157.99 198.71 131.09 C 199.01 121.04 198.78 110.99 198.85 100.94 C 179.21 100.92 159.56 100.95 139.92 100.92 C 136.93 101.25 134.70 98.70 134.30 95.94 C 134.75 93.17 136.96 90.63 139.98 90.97 C 164.32 90.89 188.66 90.94 212.99 90.94 C 223.13 90.79 233.30 94.27 241.02 100.87 C 250.03 108.35 255.49 119.73 256.00 131.41 L 256.00 135.30 C 255.07 151.45 244.19 166.55 228.96 172.16 C 219.09 176.14 208.26 174.72 197.90 174.86 C 192.83 184.62 186.79 193.90 179.31 202.00 C 195.56 202.01 211.82 201.99 228.07 202.00 C 230.67 201.70 233.47 203.33 233.89 206.04 C 234.60 217.64 227.21 229.05 216.57 233.57 C 208.08 237.39 198.56 235.55 189.56 236.03 C 187.35 246.60 178.01 254.94 167.27 256.00 L 66.90 256.00 C 56.08 255.05 46.64 246.65 44.43 236.02 C 35.18 235.56 25.33 237.47 16.69 233.23 C 7.52 229.05 1.27 219.85 0.00 209.94 L 0.00 205.86 C 0.81 203.83 2.53 201.92 4.91 202.05 C 11.74 201.90 18.59 202.04 25.43 202.02 C 17.78 190.05 22.29 174.04 31.89 164.58 C 27.45 152.22 25.10 139.11 25.15 125.98 C 25.18 115.96 25.07 105.95 25.20 95.94 M 208.85 100.93 C 208.85 104.93 208.85 108.93 208.85 112.93 C 213.11 112.92 217.55 112.70 221.54 114.45 C 228.93 117.36 234.10 125.03 233.98 132.98 C 234.08 140.97 228.84 148.62 221.41 151.51 C 216.42 153.63 210.90 152.76 205.64 152.93 C 204.58 156.98 203.35 160.98 201.96 164.93 C 206.65 164.88 211.35 165.04 216.04 164.85 C 227.38 164.27 237.99 157.02 242.82 146.77 C 249.20 134.07 245.59 117.43 234.56 108.48 C 227.56 102.31 217.95 100.34 208.85 100.93 M 208.87 122.94 C 208.93 129.62 208.57 136.31 207.62 142.93 C 211.75 142.79 216.46 143.73 219.97 140.94 C 224.76 137.58 225.32 129.92 221.05 125.91 C 217.95 122.52 213.05 122.86 208.87 122.94 M 32.56 194.41 C 34.54 188.97 37.89 183.87 42.97 180.90 C 46.50 178.51 51.17 178.38 54.40 175.47 C 57.63 172.78 59.24 168.49 58.92 164.33 C 43.26 162.13 27.50 178.93 32.56 194.41 M 58.12 185.12 C 54.38 187.71 49.34 187.78 46.03 191.08 C 43.07 193.77 41.76 197.81 41.88 201.74 C 57.55 204.18 73.46 187.18 68.24 171.75 C 66.41 177.15 63.05 182.13 58.12 185.12 M 10.63 212.02 C 12.71 219.26 19.23 225.08 26.80 225.82 C 34.59 226.33 42.42 225.68 50.21 226.15 C 52.87 226.72 54.18 229.48 54.08 232.01 C 54.41 239.64 61.38 246.09 68.98 245.99 C 99.63 246.03 130.28 245.98 160.93 246.01 C 164.47 246.06 168.19 246.16 171.42 244.50 C 176.64 242.10 179.94 236.55 180.05 230.87 C 180.01 228.29 182.28 225.97 184.87 226.04 C 191.92 225.87 198.99 226.16 206.05 225.92 C 214.07 225.64 221.18 219.65 223.36 212.02 C 152.45 211.99 81.54 211.99 10.63 212.02 Z" />
<path fill="#000000" opacity="1.00" d=" M 111.76 95.94 C 112.29 93.43 114.10 90.86 116.94 90.97 C 119.83 90.79 121.69 93.39 122.23 95.93 C 121.73 98.49 119.86 101.08 116.99 100.95 C 114.14 101.07 112.23 98.49 111.76 95.94 Z" />
</g>
<g id="#e7fafdff">
<path fill="#e7fafd" opacity="1.00" d=" M 99.70 95.93 C 103.72 95.93 107.74 95.93 111.76 95.94 C 112.23 98.49 114.14 101.07 116.99 100.95 C 119.86 101.08 121.73 98.49 122.23 95.93 C 126.25 95.93 130.28 95.93 134.30 95.94 C 134.70 98.70 136.93 101.25 139.92 100.92 C 159.56 100.95 179.21 100.92 198.85 100.94 C 198.78 110.99 199.01 121.04 198.71 131.09 C 197.58 157.99 185.10 184.07 165.06 202.00 C 132.89 202.00 100.72 201.99 68.56 202.01 C 75.57 194.98 80.26 185.10 79.19 175.01 C 78.49 166.64 72.86 158.82 64.92 155.89 C 56.88 152.73 47.76 154.32 40.28 158.25 C 33.70 139.84 35.29 120.11 35.15 100.94 C 54.78 100.92 74.42 100.95 94.05 100.92 C 97.05 101.26 99.29 98.70 99.70 95.93 Z" />
</g>
<g id="#ccf5fcff">
<path fill="#ccf5fc" opacity="1.00" d=" M 208.85 100.93 C 217.95 100.34 227.56 102.31 234.56 108.48 C 245.59 117.43 249.20 134.07 242.82 146.77 C 237.99 157.02 227.38 164.27 216.04 164.85 C 211.35 165.04 206.65 164.88 201.96 164.93 C 203.35 160.98 204.58 156.98 205.64 152.93 C 210.90 152.76 216.42 153.63 221.41 151.51 C 228.84 148.62 234.08 140.97 233.98 132.98 C 234.10 125.03 228.93 117.36 221.54 114.45 C 217.55 112.70 213.11 112.92 208.85 112.93 C 208.85 108.93 208.85 104.93 208.85 100.93 Z" />
<path fill="#ccf5fc" opacity="1.00" d=" M 10.63 212.02 C 81.54 211.99 152.45 211.99 223.36 212.02 C 221.18 219.65 214.07 225.64 206.05 225.92 C 198.99 226.16 191.92 225.87 184.87 226.04 C 182.28 225.97 180.01 228.29 180.05 230.87 C 179.94 236.55 176.64 242.10 171.42 244.50 C 168.19 246.16 164.47 246.06 160.93 246.01 C 130.28 245.98 99.63 246.03 68.98 245.99 C 61.38 246.09 54.41 239.64 54.08 232.01 C 54.18 229.48 52.87 226.72 50.21 226.15 C 42.42 225.68 34.59 226.33 26.80 225.82 C 19.23 225.08 12.71 219.26 10.63 212.02 Z" />
</g>
<g id="#d1a184ff">
<path fill="#d1a184" opacity="1.00" d=" M 32.56 194.41 C 27.50 178.93 43.26 162.13 58.92 164.33 C 59.24 168.49 57.63 172.78 54.40 175.47 C 51.17 178.38 46.50 178.51 42.97 180.90 C 37.89 183.87 34.54 188.97 32.56 194.41 Z" />
<path fill="#d1a184" opacity="1.00" d=" M 58.12 185.12 C 63.05 182.13 66.41 177.15 68.24 171.75 C 73.46 187.18 57.55 204.18 41.88 201.74 C 41.76 197.81 43.07 193.77 46.03 191.08 C 49.34 187.78 54.38 187.71 58.12 185.12 Z" />
</g>
</svg>
