<?xml version="1.0" encoding="UTF-8" ?>
<!DOCTYPE svg PUBLIC "-//W3C//DTD SVG 1.1//EN" "http://www.w3.org/Graphics/SVG/1.1/DTD/svg11.dtd">
<svg width="256pt" height="256pt" viewBox="0 0 256 256" version="1.1" xmlns="http://www.w3.org/2000/svg">
<g id="#000000ff">
<path fill="#000000" opacity="1.00" d=" M 101.56 0.00 L 109.61 0.00 C 127.75 0.90 145.29 8.15 159.18 19.76 C 177.80 35.09 190.35 56.83 196.89 79.87 C 210.66 83.60 223.19 91.90 231.63 103.45 C 243.17 118.97 247.25 139.05 245.67 158.09 C 243.28 186.36 229.08 213.15 207.99 231.95 C 192.48 245.77 172.54 255.00 151.64 256.00 L 144.68 256.00 C 130.29 254.77 116.11 249.24 105.51 239.29 C 102.48 236.23 97.65 237.88 93.86 236.73 C 70.54 233.09 49.87 218.78 35.91 200.07 C 23.19 183.14 15.06 162.88 11.87 141.98 C 11.24 139.13 13.68 137.10 16.03 136.15 C 17.93 136.45 20.13 136.94 21.07 138.85 C 22.24 141.80 22.43 145.02 23.18 148.09 C 28.06 170.34 38.95 191.67 55.90 207.13 C 66.71 217.17 80.31 224.25 94.87 226.83 C 83.87 209.47 80.99 187.92 84.27 167.87 C 85.99 156.86 89.69 146.26 94.54 136.25 C 87.84 117.17 78.46 98.95 74.27 79.06 C 71.37 65.64 72.48 51.41 77.73 38.70 C 81.61 28.61 87.68 19.58 94.16 11.01 C 75.04 14.46 58.12 26.03 46.05 40.99 C 32.95 57.02 25.09 76.85 21.66 97.15 C 21.35 99.97 18.54 101.31 16.02 101.59 C 13.34 100.58 11.02 98.02 11.95 94.98 C 16.48 67.29 29.41 40.36 50.70 21.70 C 64.76 9.27 82.79 1.35 101.56 0.00 M 110.01 10.12 C 106.50 25.92 105.36 42.37 107.77 58.43 C 110.00 73.45 115.43 87.73 120.90 101.82 C 138.54 86.19 162.03 76.09 185.88 77.93 C 180.09 60.35 170.66 43.68 156.98 31.04 C 144.26 19.08 127.55 11.13 110.01 10.12 M 82.98 70.03 C 85.21 89.40 94.38 106.92 101.01 125.00 C 104.66 119.59 108.55 114.31 113.08 109.59 C 107.78 95.26 101.85 81.03 98.93 65.95 C 96.07 51.90 95.86 37.40 97.58 23.19 C 88.00 36.71 80.97 53.15 82.98 70.03 M 160.11 90.81 C 139.06 97.18 121.32 112.16 109.45 130.44 C 96.93 149.58 90.41 173.21 93.94 196.02 C 96.25 211.28 103.85 226.12 116.43 235.39 C 127.54 223.51 137.03 209.85 142.60 194.48 C 148.28 178.45 150.81 161.55 154.10 144.93 C 156.35 133.85 159.64 122.64 166.34 113.37 C 174.17 102.59 186.11 95.79 198.21 90.82 C 185.97 86.55 172.41 87.02 160.11 90.81 M 192.83 125.95 C 180.59 152.03 182.50 182.47 169.19 208.18 C 160.67 224.17 145.13 234.86 129.13 242.45 C 141.22 246.89 154.61 246.90 166.94 243.46 C 187.54 237.80 205.19 223.78 217.35 206.46 C 231.24 186.84 238.66 162.03 235.08 138.03 C 232.84 122.62 225.17 107.72 212.57 98.28 C 204.59 106.39 197.73 115.66 192.83 125.95 M 173.15 121.10 C 168.09 129.08 165.60 138.34 163.77 147.52 C 160.47 164.50 157.76 181.70 151.96 198.05 C 148.18 208.46 142.67 218.16 136.30 227.18 C 143.91 222.82 150.76 217.02 156.12 210.05 C 161.54 202.99 164.57 194.46 167.01 185.99 C 171.59 169.14 173.38 151.63 178.60 134.93 C 182.15 123.43 187.96 112.76 195.09 103.10 C 186.56 107.33 178.41 113.01 173.15 121.10 Z" />
<path fill="#000000" opacity="1.00" d=" M 9.99 119.01 C 9.76 116.04 12.45 114.14 15.05 113.58 C 17.59 114.20 20.19 116.08 19.98 119.00 C 20.02 121.79 17.49 123.48 15.06 124.11 C 12.58 123.55 9.95 121.87 9.99 119.01 Z" />
</g>
<g id="#e8d0c1ff">
<path fill="#e8d0c1" opacity="1.00" d=" M 110.01 10.12 C 127.55 11.13 144.26 19.08 156.98 31.04 C 170.66 43.68 180.09 60.35 185.88 77.93 C 162.03 76.09 138.54 86.19 120.90 101.82 C 115.43 87.73 110.00 73.45 107.77 58.43 C 105.36 42.37 106.50 25.92 110.01 10.12 Z" />
<path fill="#e8d0c1" opacity="1.00" d=" M 46.05 40.99 C 58.12 26.03 75.04 14.46 94.16 11.01 C 87.68 19.58 81.61 28.61 77.73 38.70 C 72.48 51.41 71.37 65.64 74.27 79.06 C 78.46 98.95 87.84 117.17 94.54 136.25 C 89.69 146.26 85.99 156.86 84.27 167.87 C 80.99 187.92 83.87 209.47 94.87 226.83 C 80.31 224.25 66.71 217.17 55.90 207.13 C 38.95 191.67 28.06 170.34 23.18 148.09 C 22.43 145.02 22.24 141.80 21.07 138.85 C 20.13 136.94 17.93 136.45 16.03 136.15 C 15.59 132.15 15.28 128.13 15.06 124.11 C 17.49 123.48 20.02 121.79 19.98 119.00 C 20.19 116.08 17.59 114.20 15.05 113.58 C 15.29 109.57 15.58 105.57 16.02 101.59 C 18.54 101.31 21.35 99.97 21.66 97.15 C 25.09 76.85 32.95 57.02 46.05 40.99 Z" />
<path fill="#e8d0c1" opacity="1.00" d=" M 160.11 90.81 C 172.41 87.02 185.97 86.55 198.21 90.82 C 186.11 95.79 174.17 102.59 166.34 113.37 C 159.64 122.64 156.35 133.85 154.10 144.93 C 150.81 161.55 148.28 178.45 142.60 194.48 C 137.03 209.85 127.54 223.51 116.43 235.39 C 103.85 226.12 96.25 211.28 93.94 196.02 C 90.41 173.21 96.93 149.58 109.45 130.44 C 121.32 112.16 139.06 97.18 160.11 90.81 Z" />
<path fill="#e8d0c1" opacity="1.00" d=" M 192.83 125.95 C 197.73 115.66 204.59 106.39 212.57 98.28 C 225.17 107.72 232.84 122.62 235.08 138.03 C 238.66 162.03 231.24 186.84 217.35 206.46 C 205.19 223.78 187.54 237.80 166.94 243.46 C 154.61 246.90 141.22 246.89 129.13 242.45 C 145.13 234.86 160.67 224.17 169.19 208.18 C 182.50 182.47 180.59 152.03 192.83 125.95 Z" />
</g>
<g id="#d1a184ff">
<path fill="#d1a184" opacity="1.00" d=" M 82.98 70.03 C 80.97 53.15 88.00 36.71 97.58 23.19 C 95.86 37.40 96.07 51.90 98.93 65.95 C 101.85 81.03 107.78 95.26 113.08 109.59 C 108.55 114.31 104.66 119.59 101.01 125.00 C 94.38 106.92 85.21 89.40 82.98 70.03 Z" />
<path fill="#d1a184" opacity="1.00" d=" M 173.15 121.10 C 178.41 113.01 186.56 107.33 195.09 103.10 C 187.96 112.76 182.15 123.43 178.60 134.93 C 173.38 151.63 171.59 169.14 167.01 185.99 C 164.57 194.46 161.54 202.99 156.12 210.05 C 150.76 217.02 143.91 222.82 136.30 227.18 C 142.67 218.16 148.18 208.46 151.96 198.05 C 157.76 181.70 160.47 164.50 163.77 147.52 C 165.60 138.34 168.09 129.08 173.15 121.10 Z" />
</g>
</svg>
