<?xml version="1.0" encoding="UTF-8" ?>
<!DOCTYPE svg PUBLIC "-//W3C//DTD SVG 1.1//EN" "http://www.w3.org/Graphics/SVG/1.1/DTD/svg11.dtd">
<svg width="256pt" height="256pt" viewBox="0 0 256 256" version="1.1" xmlns="http://www.w3.org/2000/svg">
<g id="#000000ff">
<path fill="#000000" opacity="1.00" d=" M 156.36 0.00 L 160.19 0.00 C 165.48 0.80 170.08 3.88 173.26 8.11 C 176.44 5.77 179.95 3.70 183.91 3.06 C 192.36 1.26 202.01 5.21 205.93 13.08 C 209.33 19.54 208.02 27.85 203.31 33.31 C 200.09 37.33 195.31 39.66 190.40 40.90 C 192.67 46.75 192.68 53.73 188.97 59.01 C 184.18 66.31 174.15 68.88 166.12 65.94 C 158.78 63.60 153.26 57.14 151.52 49.71 C 147.77 54.34 144.16 59.07 140.85 64.03 C 153.55 65.66 165.44 72.63 172.82 83.13 C 177.80 89.98 180.60 98.24 181.33 106.65 C 189.36 102.86 199.46 105.53 204.46 112.89 C 207.88 110.37 211.73 108.27 216.01 107.76 C 224.42 106.38 233.79 110.64 237.33 118.59 C 240.49 125.25 238.82 133.56 233.83 138.86 C 230.69 142.47 226.23 144.52 221.69 145.74 C 224.07 151.57 223.73 158.21 220.60 163.69 C 235.19 167.70 247.46 179.41 251.55 194.05 C 252.50 197.05 253.77 201.41 250.36 203.37 C 232.78 213.18 208.95 208.23 196.13 192.87 C 193.22 189.57 191.04 185.71 189.11 181.77 C 183.72 184.97 177.03 186.10 171.03 183.98 C 164.81 182.06 159.90 177.19 157.29 171.30 C 145.77 183.62 135.98 197.72 129.37 213.27 C 137.30 208.24 146.53 205.06 156.00 205.28 C 171.11 205.21 185.96 213.26 194.10 225.99 C 195.33 227.75 195.41 230.28 193.97 231.95 C 185.05 242.68 170.90 248.67 156.99 247.96 C 147.05 247.61 137.45 243.70 129.70 237.54 C 129.59 242.34 129.95 247.16 129.54 251.95 C 129.39 254.00 127.49 255.12 125.88 256.00 L 123.50 256.00 C 121.91 255.12 120.01 254.03 119.88 252.00 C 119.43 247.17 119.82 242.30 119.71 237.46 C 111.40 244.24 100.75 248.13 90.00 248.00 C 76.77 248.00 63.56 241.97 55.18 231.69 C 53.16 229.13 54.97 225.90 56.74 223.79 C 59.55 220.32 62.67 215.37 67.91 216.80 C 69.00 218.37 70.67 219.89 70.36 222.00 C 69.90 224.77 67.43 226.53 65.77 228.61 C 71.19 233.21 77.72 236.65 84.83 237.60 C 94.46 239.13 104.52 236.44 112.28 230.59 C 108.90 230.70 105.49 231.57 102.12 231.02 C 97.96 229.83 97.64 223.33 101.67 221.77 C 105.15 220.79 108.83 220.93 112.39 220.43 C 109.81 219.05 107.03 218.05 104.55 216.48 C 102.70 215.15 102.82 212.67 102.99 210.66 C 104.33 209.23 105.86 207.52 108.04 207.77 C 112.31 208.62 116.00 211.08 119.71 213.23 C 119.71 200.81 119.67 188.40 119.73 175.98 C 119.76 174.35 119.55 172.71 118.78 171.26 C 115.39 164.15 111.42 157.32 107.01 150.80 C 103.16 160.50 96.22 168.98 87.15 174.20 C 75.10 181.46 59.71 182.55 46.69 177.26 C 44.38 176.49 41.83 174.78 42.03 172.01 C 43.11 160.96 48.88 150.52 57.22 143.25 C 66.57 135.02 79.26 130.94 91.66 131.90 C 85.19 125.26 78.19 119.15 70.70 113.68 C 69.57 125.54 57.67 134.82 45.89 132.95 C 38.27 132.10 31.91 126.11 30.16 118.71 C 23.73 120.86 16.19 120.54 10.63 116.35 C 4.16 111.78 1.60 102.76 4.45 95.40 C 6.83 88.42 13.12 83.32 20.17 81.53 C 17.66 74.19 18.22 65.45 23.48 59.42 C 27.74 54.10 34.96 52.08 41.53 53.31 C 41.18 47.82 41.43 42.26 42.89 36.94 C 46.46 22.64 57.43 10.34 71.37 5.47 C 75.45 4.02 77.74 8.35 79.56 11.15 C 80.54 7.41 80.22 1.39 85.07 0.46 C 95.44 0.04 105.85 3.77 113.98 10.18 C 125.07 18.89 131.88 32.87 131.55 47.01 C 131.68 52.41 129.68 57.55 129.59 62.93 C 135.01 54.50 140.92 46.38 147.66 38.96 C 140.67 34.38 136.97 25.62 138.62 17.42 C 140.00 8.60 147.40 1.04 156.36 0.00 M 155.41 10.47 C 150.41 12.29 147.59 18.01 148.37 23.14 C 148.85 27.79 153.15 32.12 158.03 31.22 C 164.95 30.02 168.54 21.37 165.68 15.26 C 164.12 11.36 159.44 8.93 155.41 10.47 M 112.98 50.97 C 111.16 48.30 108.77 45.99 107.28 43.09 C 105.52 38.87 111.04 34.55 114.71 37.28 C 117.38 39.67 119.15 42.88 121.56 45.52 C 121.43 28.11 107.10 12.34 89.77 10.55 C 86.45 27.36 96.84 45.33 112.98 50.97 M 184.14 13.31 C 179.71 14.70 175.88 19.17 176.73 24.02 C 177.53 28.68 182.53 31.48 186.99 31.09 C 192.70 30.98 198.62 25.98 197.75 19.93 C 196.84 13.87 189.39 11.26 184.14 13.31 M 52.88 59.09 C 54.15 56.14 54.37 52.81 55.84 49.95 C 58.10 46.37 64.22 47.69 64.82 51.86 C 64.92 55.68 63.09 59.25 62.43 62.97 C 76.22 52.28 80.13 31.34 71.06 16.41 C 55.79 23.89 47.69 42.88 52.88 59.09 M 167.35 38.47 C 163.97 39.29 161.38 42.46 161.35 45.94 C 161.19 51.34 165.81 55.97 170.94 56.91 C 175.31 57.94 180.61 55.63 181.74 51.04 C 183.64 43.22 174.69 36.14 167.35 38.47 M 85.67 40.73 C 84.24 50.46 79.88 59.73 73.05 66.83 C 79.00 70.08 82.98 76.13 84.09 82.77 C 89.12 81.41 94.70 81.92 99.12 84.80 C 107.39 89.83 111.02 100.83 107.95 109.91 C 106.22 115.58 101.80 120.17 96.37 122.44 C 105.21 131.36 112.97 141.30 119.69 151.90 C 119.69 122.18 119.75 92.46 119.66 62.74 C 105.66 61.15 93.05 52.61 85.67 40.73 M 35.10 63.28 C 29.86 64.77 27.62 71.16 29.11 76.06 C 30.22 80.81 34.90 85.09 40.00 84.11 C 45.38 83.11 48.03 76.82 46.83 71.86 C 45.94 66.59 40.66 61.68 35.10 63.28 M 62.18 75.32 C 53.36 78.61 54.26 93.15 63.05 95.90 C 69.07 97.97 74.58 91.79 74.23 86.03 C 74.58 79.87 68.65 73.05 62.18 75.32 M 143.95 74.80 C 146.06 77.70 148.79 80.14 150.56 83.28 C 152.34 87.33 147.30 91.70 143.53 89.41 C 140.88 87.49 139.21 84.56 137.07 82.14 C 138.61 99.14 154.32 112.99 171.23 113.45 C 173.23 96.13 160.95 78.67 143.95 74.80 M 21.45 91.57 C 16.74 93.09 12.80 97.77 13.38 102.90 C 13.82 107.50 18.62 110.55 23.01 110.04 C 29.32 109.73 35.40 103.48 33.70 96.97 C 32.35 91.86 26.07 89.86 21.45 91.57 M 86.50 92.63 C 78.03 96.32 79.28 110.58 88.04 113.11 C 94.08 114.98 99.40 108.74 99.00 103.03 C 99.32 96.73 93.01 89.89 86.50 92.63 M 129.76 95.04 C 129.69 126.78 129.61 158.54 129.80 190.29 C 137.68 178.61 146.31 167.34 156.74 157.79 C 149.60 155.65 143.97 149.37 142.75 142.00 C 140.98 133.19 145.18 123.61 152.96 119.06 C 142.56 114.22 134.70 105.24 129.76 95.04 M 48.45 104.53 C 43.26 105.98 38.84 111.35 40.14 116.92 C 41.20 121.65 46.65 124.03 51.11 122.91 C 56.85 121.89 61.90 115.94 60.26 109.98 C 58.92 105.08 52.97 103.05 48.45 104.53 M 186.33 115.48 C 178.32 118.54 176.86 131.85 185.03 135.56 C 192.04 138.46 198.74 130.71 197.88 123.97 C 197.95 118.28 191.94 112.99 186.33 115.48 M 214.40 118.50 C 208.95 120.36 205.44 127.74 209.50 132.52 C 215.26 139.53 228.78 135.22 228.93 125.99 C 228.92 118.96 220.09 115.68 214.40 118.50 M 159.12 127.31 C 150.81 130.34 149.93 144.05 158.23 147.63 C 164.77 150.33 171.09 143.34 170.67 137.02 C 171.04 131.13 165.18 124.88 159.12 127.31 M 52.65 168.84 C 68.87 174.38 88.06 166.48 95.82 151.25 C 92.86 152.74 90.21 154.89 87.02 155.89 C 82.60 156.79 79.35 150.77 82.58 147.60 C 85.36 145.35 88.71 143.95 91.71 142.01 C 74.38 139.77 56.76 151.86 52.65 168.84 M 198.35 143.42 C 194.73 144.47 192.15 148.23 192.67 152.00 C 193.41 159.02 201.65 163.91 208.18 161.28 C 211.47 160.04 213.70 156.51 213.26 152.99 C 212.57 146.18 204.83 141.27 198.35 143.42 M 171.48 156.62 C 167.96 157.69 165.62 161.43 166.07 165.07 C 166.80 172.10 175.07 177.01 181.61 174.36 C 184.94 173.10 187.16 169.48 186.65 165.93 C 185.87 159.09 177.95 154.24 171.48 156.62 M 204.10 172.40 C 206.92 174.13 210.14 175.23 212.73 177.31 C 215.78 180.27 213.15 185.98 208.93 185.68 C 205.84 185.20 203.30 183.09 200.45 181.91 C 208.62 195.71 226.89 202.08 241.88 196.35 C 237.18 180.61 220.35 169.95 204.10 172.40 M 136.94 220.45 C 140.45 220.92 144.06 220.85 147.52 221.69 C 151.37 223.09 151.57 229.12 147.81 230.76 C 144.34 231.91 140.61 230.57 137.05 230.55 C 144.40 236.17 153.92 238.88 163.13 237.78 C 170.74 237.05 177.82 233.52 183.58 228.60 C 172.93 214.72 151.70 211.19 136.94 220.45 Z" />
<path fill="#000000" opacity="1.00" d=" M 80.24 212.04 C 80.31 209.27 81.93 206.22 85.02 206.11 C 87.79 205.77 89.68 208.10 90.64 210.39 C 90.28 212.61 89.40 215.18 86.96 215.83 C 84.03 216.94 81.22 214.70 80.24 212.04 Z" />
</g>
<g id="#ff5a58ff">
<path fill="#ff5a58" opacity="1.00" d=" M 155.41 10.47 C 159.44 8.93 164.12 11.36 165.68 15.26 C 168.54 21.37 164.95 30.02 158.03 31.22 C 153.15 32.12 148.85 27.79 148.37 23.14 C 147.59 18.01 150.41 12.29 155.41 10.47 Z" />
<path fill="#ff5a58" opacity="1.00" d=" M 35.10 63.28 C 40.66 61.68 45.94 66.59 46.83 71.86 C 48.03 76.82 45.38 83.11 40.00 84.11 C 34.90 85.09 30.22 80.81 29.11 76.06 C 27.62 71.16 29.86 64.77 35.10 63.28 Z" />
<path fill="#ff5a58" opacity="1.00" d=" M 86.50 92.63 C 93.01 89.89 99.32 96.73 99.00 103.03 C 99.40 108.74 94.08 114.98 88.04 113.11 C 79.28 110.58 78.03 96.32 86.50 92.63 Z" />
<path fill="#ff5a58" opacity="1.00" d=" M 214.40 118.50 C 220.09 115.68 228.92 118.96 228.93 125.99 C 228.78 135.22 215.26 139.53 209.50 132.52 C 205.44 127.74 208.95 120.36 214.40 118.50 Z" />
<path fill="#ff5a58" opacity="1.00" d=" M 159.12 127.31 C 165.18 124.88 171.04 131.13 170.67 137.02 C 171.09 143.34 164.77 150.33 158.23 147.63 C 149.93 144.05 150.81 130.34 159.12 127.31 Z" />
<path fill="#ff5a58" opacity="1.00" d=" M 198.35 143.42 C 204.83 141.27 212.57 146.18 213.26 152.99 C 213.70 156.51 211.47 160.04 208.18 161.28 C 201.65 163.91 193.41 159.02 192.67 152.00 C 192.15 148.23 194.73 144.47 198.35 143.42 Z" />
</g>
<g id="#a0e5a5ff">
<path fill="#a0e5a5" opacity="1.00" d=" M 112.98 50.97 C 96.84 45.33 86.45 27.36 89.77 10.55 C 107.10 12.34 121.43 28.11 121.56 45.52 C 119.15 42.88 117.38 39.67 114.71 37.28 C 111.04 34.55 105.52 38.87 107.28 43.09 C 108.77 45.99 111.16 48.30 112.98 50.97 Z" />
<path fill="#a0e5a5" opacity="1.00" d=" M 52.65 168.84 C 56.76 151.86 74.38 139.77 91.71 142.01 C 88.71 143.95 85.36 145.35 82.58 147.60 C 79.35 150.77 82.60 156.79 87.02 155.89 C 90.21 154.89 92.86 152.74 95.82 151.25 C 88.06 166.48 68.87 174.38 52.65 168.84 Z" />
<path fill="#a0e5a5" opacity="1.00" d=" M 204.10 172.40 C 220.35 169.95 237.18 180.61 241.88 196.35 C 226.89 202.08 208.62 195.71 200.45 181.91 C 203.30 183.09 205.84 185.20 208.93 185.68 C 213.15 185.98 215.78 180.27 212.73 177.31 C 210.14 175.23 206.92 174.13 204.10 172.40 Z" />
<path fill="#a0e5a5" opacity="1.00" d=" M 136.94 220.45 C 151.70 211.19 172.93 214.72 183.58 228.60 C 177.82 233.52 170.74 237.05 163.13 237.78 C 153.92 238.88 144.40 236.17 137.05 230.55 C 140.61 230.57 144.34 231.91 147.81 230.76 C 151.57 229.12 151.37 223.09 147.52 221.69 C 144.06 220.85 140.45 220.92 136.94 220.45 Z" />
</g>
<g id="#ff9c9bff">
<path fill="#ff9c9b" opacity="1.00" d=" M 184.14 13.31 C 189.39 11.26 196.84 13.87 197.75 19.93 C 198.62 25.98 192.70 30.98 186.99 31.09 C 182.53 31.48 177.53 28.68 176.73 24.02 C 175.88 19.17 179.71 14.70 184.14 13.31 Z" />
<path fill="#ff9c9b" opacity="1.00" d=" M 48.45 104.53 C 52.97 103.05 58.92 105.08 60.26 109.98 C 61.90 115.94 56.85 121.89 51.11 122.91 C 46.65 124.03 41.20 121.65 40.14 116.92 C 38.84 111.35 43.26 105.98 48.45 104.53 Z" />
<path fill="#ff9c9b" opacity="1.00" d=" M 171.48 156.62 C 177.95 154.24 185.87 159.09 186.65 165.93 C 187.16 169.48 184.94 173.10 181.61 174.36 C 175.07 177.01 166.80 172.10 166.07 165.07 C 165.62 161.43 167.96 157.69 171.48 156.62 Z" />
</g>
<g id="#b8ecbcff">
<path fill="#b8ecbc" opacity="1.00" d=" M 52.88 59.09 C 47.69 42.88 55.79 23.89 71.06 16.41 C 80.13 31.34 76.22 52.28 62.43 62.97 C 63.09 59.25 64.92 55.68 64.82 51.86 C 64.22 47.69 58.10 46.37 55.84 49.95 C 54.37 52.81 54.15 56.14 52.88 59.09 Z" />
<path fill="#b8ecbc" opacity="1.00" d=" M 143.95 74.80 C 160.95 78.67 173.23 96.13 171.23 113.45 C 154.32 112.99 138.61 99.14 137.07 82.14 C 139.21 84.56 140.88 87.49 143.53 89.41 C 147.30 91.70 152.34 87.33 150.56 83.28 C 148.79 80.14 146.06 77.70 143.95 74.80 Z" />
<path fill="#b8ecbc" opacity="1.00" d=" M 90.64 210.39 C 94.76 210.20 98.89 210.25 102.99 210.66 C 102.82 212.67 102.70 215.15 104.55 216.48 C 107.03 218.05 109.81 219.05 112.39 220.43 C 108.83 220.93 105.15 220.79 101.67 221.77 C 97.64 223.33 97.96 229.83 102.12 231.02 C 105.49 231.57 108.90 230.70 112.28 230.59 C 104.52 236.44 94.46 239.13 84.83 237.60 C 77.72 236.65 71.19 233.21 65.77 228.61 C 67.43 226.53 69.90 224.77 70.36 222.00 C 70.67 219.89 69.00 218.37 67.91 216.80 C 71.84 214.78 75.95 213.12 80.24 212.04 C 81.22 214.70 84.03 216.94 86.96 215.83 C 89.40 215.18 90.28 212.61 90.64 210.39 Z" />
</g>
<g id="#d5ea79ff">
<path fill="#d5ea79" opacity="1.00" d=" M 167.35 38.47 C 174.69 36.14 183.64 43.22 181.74 51.04 C 180.61 55.63 175.31 57.94 170.94 56.91 C 165.81 55.97 161.19 51.34 161.35 45.94 C 161.38 42.46 163.97 39.29 167.35 38.47 Z" />
<path fill="#d5ea79" opacity="1.00" d=" M 62.18 75.32 C 68.65 73.05 74.58 79.87 74.23 86.03 C 74.58 91.79 69.07 97.97 63.05 95.90 C 54.26 93.15 53.36 78.61 62.18 75.32 Z" />
<path fill="#d5ea79" opacity="1.00" d=" M 21.45 91.57 C 26.07 89.86 32.35 91.86 33.70 96.97 C 35.40 103.48 29.32 109.73 23.01 110.04 C 18.62 110.55 13.82 107.50 13.38 102.90 C 12.80 97.77 16.74 93.09 21.45 91.57 Z" />
<path fill="#d5ea79" opacity="1.00" d=" M 186.33 115.48 C 191.94 112.99 197.95 118.28 197.88 123.97 C 198.74 130.71 192.04 138.46 185.03 135.56 C 176.86 131.85 178.32 118.54 186.33 115.48 Z" />
</g>
</svg>
