<?xml version="1.0" encoding="UTF-8" ?>
<!DOCTYPE svg PUBLIC "-//W3C//DTD SVG 1.1//EN" "http://www.w3.org/Graphics/SVG/1.1/DTD/svg11.dtd">
<svg width="256pt" height="256pt" viewBox="0 0 256 256" version="1.1" xmlns="http://www.w3.org/2000/svg">
<g id="#000000ff">
<path fill="#000000" opacity="1.00" d=" M 116.09 0.00 L 139.90 0.00 C 144.01 2.64 142.91 7.87 143.03 12.01 C 143.07 24.53 142.79 37.06 143.17 49.57 C 144.96 50.71 147.69 51.54 147.80 54.08 C 148.40 61.61 147.69 69.19 148.11 76.74 C 162.14 85.72 176.11 94.81 190.02 103.98 C 192.76 105.45 193.98 109.35 191.79 111.81 C 190.48 113.63 188.08 113.63 186.07 113.66 C 147.03 113.58 107.99 113.64 68.96 113.63 C 65.83 114.06 62.62 111.42 63.10 108.15 C 63.26 105.49 65.84 104.11 67.76 102.74 C 81.20 94.17 94.44 85.31 107.89 76.76 C 108.31 69.21 107.60 61.62 108.20 54.09 C 108.30 51.54 111.03 50.70 112.84 49.57 C 113.31 34.72 112.73 19.84 113.09 4.98 C 112.98 2.83 114.64 1.32 116.09 0.00 M 123.01 10.02 C 122.99 23.34 122.99 36.66 123.02 49.98 C 126.34 50.02 129.66 50.02 132.99 49.98 C 133.01 36.66 133.01 23.34 132.99 10.02 C 129.66 9.98 126.34 9.98 123.01 10.02 M 118.01 60.01 C 117.99 64.74 117.98 69.48 118.02 74.22 C 124.67 74.31 131.33 74.31 137.98 74.21 C 138.02 69.48 138.01 64.74 137.99 60.01 C 131.33 59.99 124.67 59.99 118.01 60.01 M 114.40 84.49 C 104.52 90.72 94.69 97.09 85.02 103.66 C 113.68 103.58 142.33 103.61 170.99 103.65 C 161.98 97.36 152.60 91.61 143.46 85.51 C 141.05 83.62 137.82 84.43 135.00 84.26 C 128.14 84.48 121.24 83.94 114.40 84.49 Z" />
<path fill="#000000" opacity="1.00" d=" M 79.39 124.36 C 82.64 122.14 87.53 125.07 87.05 128.99 C 87.61 132.36 84.57 135.74 81.10 134.93 C 76.27 134.19 75.63 126.81 79.39 124.36 Z" />
<path fill="#000000" opacity="1.00" d=" M 171.39 124.32 C 174.68 122.17 179.31 125.16 178.98 129.02 C 179.51 132.35 176.53 135.68 173.10 134.95 C 168.23 134.28 167.40 126.63 171.39 124.32 Z" />
<path fill="#000000" opacity="1.00" d=" M 110.25 135.01 C 113.61 133.09 118.42 136.03 117.73 139.99 C 118.34 143.46 114.69 146.58 111.35 145.61 C 106.76 144.52 106.29 137.15 110.25 135.01 Z" />
<path fill="#000000" opacity="1.00" d=" M 140.41 135.31 C 143.72 132.81 149.01 135.84 148.34 140.00 C 148.84 143.36 145.68 146.47 142.34 145.67 C 137.68 144.89 136.71 137.77 140.41 135.31 Z" />
<path fill="#000000" opacity="1.00" d=" M 80.36 145.37 C 83.45 144.17 87.14 146.66 87.02 150.02 C 87.83 153.53 84.74 157.32 81.03 156.38 C 75.85 155.52 75.57 147.01 80.36 145.37 Z" />
<path fill="#000000" opacity="1.00" d=" M 172.32 145.35 C 175.83 144.01 179.57 147.42 178.98 151.03 C 179.32 154.21 176.19 157.12 173.03 156.40 C 167.77 155.72 167.44 146.85 172.32 145.35 Z" />
<path fill="#000000" opacity="1.00" d=" M 110.39 156.37 C 113.67 154.64 117.94 157.36 117.73 161.06 C 118.27 164.27 115.46 167.92 112.03 167.18 C 106.81 166.76 106.12 158.57 110.39 156.37 Z" />
<path fill="#000000" opacity="1.00" d=" M 141.28 156.25 C 144.14 154.99 147.86 156.82 148.20 160.03 C 149.18 163.43 146.87 167.60 143.01 167.26 C 137.51 167.09 136.49 158.32 141.28 156.25 Z" />
<path fill="#000000" opacity="1.00" d=" M 79.40 167.33 C 82.67 165.11 87.56 168.03 87.05 171.98 C 87.59 175.35 84.56 178.71 81.10 177.91 C 76.32 177.17 75.52 169.68 79.40 167.33 Z" />
<path fill="#000000" opacity="1.00" d=" M 171.37 167.26 C 174.74 165.13 179.29 168.13 178.98 172.01 C 179.49 175.33 176.52 178.65 173.10 177.92 C 168.21 177.25 167.43 169.61 171.37 167.26 Z" />
<path fill="#000000" opacity="1.00" d=" M 30.66 200.67 C 37.99 187.61 55.51 183.06 69.16 187.81 C 78.83 190.91 87.52 199.43 87.94 210.01 C 88.40 215.91 85.71 221.43 82.18 225.97 C 89.39 226.02 96.61 226.01 103.82 225.98 C 97.87 219.11 96.00 208.72 100.69 200.67 C 108.21 187.43 126.11 182.87 139.91 188.08 C 149.26 191.32 157.54 199.72 157.94 210.01 C 158.41 215.91 155.71 221.43 152.18 225.98 C 159.39 226.02 166.61 226.01 173.82 225.98 C 167.87 219.11 166.00 208.73 170.69 200.68 C 178.21 187.42 196.11 182.88 209.90 188.07 C 219.25 191.31 227.54 199.72 227.94 210.01 C 228.40 215.91 225.71 221.43 222.18 225.97 C 231.79 226.13 241.42 225.80 251.03 226.09 C 253.18 225.98 254.67 227.65 256.00 229.10 L 256.00 253.37 C 254.57 252.99 252.99 254.57 253.37 256.00 L 233.20 256.00 C 232.04 254.42 231.10 252.69 230.14 250.99 C 231.10 249.19 231.74 246.52 234.16 246.24 C 238.08 245.72 242.05 246.08 245.99 246.00 C 246.01 242.67 246.01 239.34 245.99 236.01 C 167.33 235.99 88.67 235.99 10.01 236.01 C 9.99 239.33 9.99 242.66 10.01 245.99 C 67.01 246.01 124.00 246.00 181.00 246.00 C 184.61 246.06 188.25 245.73 191.84 246.24 C 194.25 246.53 194.89 249.18 195.84 250.99 C 194.89 252.69 193.94 254.40 192.83 256.00 L 2.62 256.00 C 3.01 254.57 1.42 252.98 0.00 253.37 L 0.00 229.10 C 1.32 227.65 2.82 225.98 4.98 226.09 C 14.59 225.81 24.21 226.13 33.82 225.98 C 27.89 219.11 25.97 208.71 30.66 200.67 M 47.33 198.33 C 43.53 200.31 39.47 203.34 38.83 207.87 C 43.00 208.86 47.42 209.63 51.64 208.49 C 56.59 207.12 60.97 204.17 66.02 203.09 C 68.96 202.45 71.98 202.66 74.96 202.68 C 67.76 195.73 56.30 194.01 47.33 198.33 M 117.99 198.04 C 113.88 199.94 109.59 203.12 108.81 207.87 C 112.99 208.86 117.41 209.64 121.64 208.49 C 126.59 207.11 130.97 204.17 136.02 203.09 C 138.96 202.45 141.98 202.66 144.96 202.68 C 137.93 195.85 126.91 194.19 117.99 198.04 M 187.99 198.04 C 183.89 199.94 179.57 203.11 178.83 207.87 C 183.00 208.86 187.42 209.64 191.64 208.49 C 196.59 207.11 200.98 204.17 206.02 203.09 C 208.96 202.45 211.98 202.66 214.96 202.68 C 207.93 195.85 196.90 194.19 187.99 198.04 M 67.28 213.14 C 62.78 214.57 58.63 217.02 54.02 218.15 C 49.94 219.34 45.65 218.96 41.46 218.98 C 47.96 227.02 60.50 227.68 69.32 223.32 C 72.89 221.24 77.32 218.07 76.99 213.45 C 73.80 212.90 70.46 212.09 67.28 213.14 M 137.29 213.13 C 132.78 214.57 128.64 217.02 124.02 218.15 C 119.93 219.34 115.65 218.96 111.46 218.98 C 113.98 222.57 118.25 224.40 122.38 225.41 C 129.63 226.86 137.86 225.52 143.45 220.43 C 145.35 218.59 147.47 216.30 146.99 213.44 C 143.80 212.91 140.47 212.09 137.29 213.13 M 207.29 213.13 C 202.78 214.57 198.64 217.02 194.02 218.15 C 189.94 219.34 185.65 218.96 181.46 218.97 C 187.96 227.02 200.49 227.67 209.31 223.33 C 212.89 221.25 217.31 218.07 216.98 213.44 C 213.80 212.90 210.46 212.09 207.29 213.13 Z" />
<path fill="#000000" opacity="1.00" d=" M 207.50 251.01 C 208.56 248.70 209.97 245.80 213.00 246.00 C 216.02 245.80 217.42 248.71 218.50 251.01 C 217.51 252.80 216.41 254.55 214.94 256.00 L 211.06 256.00 C 209.58 254.56 208.49 252.80 207.50 251.01 Z" />
</g>
<g id="#8aa8bdff">
<path fill="#8aa8bd" opacity="1.00" d=" M 123.01 10.02 C 126.34 9.98 129.66 9.98 132.99 10.02 C 133.01 23.34 133.01 36.66 132.99 49.98 C 129.66 50.02 126.34 50.02 123.02 49.98 C 122.99 36.66 122.99 23.34 123.01 10.02 Z" />
<path fill="#8aa8bd" opacity="1.00" d=" M 114.40 84.49 C 121.24 83.94 128.14 84.48 135.00 84.26 C 137.82 84.43 141.05 83.62 143.46 85.51 C 152.60 91.61 161.98 97.36 170.99 103.65 C 142.33 103.61 113.68 103.58 85.02 103.66 C 94.69 97.09 104.52 90.72 114.40 84.49 Z" />
</g>
<g id="#c5d3deff">
<path fill="#c5d3de" opacity="1.00" d=" M 118.01 60.01 C 124.67 59.99 131.33 59.99 137.99 60.01 C 138.01 64.74 138.02 69.48 137.98 74.21 C 131.33 74.31 124.67 74.31 118.02 74.22 C 117.98 69.48 117.99 64.74 118.01 60.01 Z" />
</g>
<g id="#d1a184ff">
<path fill="#d1a184" opacity="1.00" d=" M 47.33 198.33 C 56.30 194.01 67.76 195.73 74.96 202.68 C 71.98 202.66 68.96 202.45 66.02 203.09 C 60.97 204.17 56.59 207.12 51.64 208.49 C 47.42 209.63 43.00 208.86 38.83 207.87 C 39.47 203.34 43.53 200.31 47.33 198.33 Z" />
<path fill="#d1a184" opacity="1.00" d=" M 117.99 198.04 C 126.91 194.19 137.93 195.85 144.96 202.68 C 141.98 202.66 138.96 202.45 136.02 203.09 C 130.97 204.17 126.59 207.11 121.64 208.49 C 117.41 209.64 112.99 208.86 108.81 207.87 C 109.59 203.12 113.88 199.94 117.99 198.04 Z" />
<path fill="#d1a184" opacity="1.00" d=" M 187.99 198.04 C 196.90 194.19 207.93 195.85 214.96 202.68 C 211.98 202.66 208.96 202.45 206.02 203.09 C 200.98 204.17 196.59 207.11 191.64 208.49 C 187.42 209.64 183.00 208.86 178.83 207.87 C 179.57 203.11 183.89 199.94 187.99 198.04 Z" />
<path fill="#d1a184" opacity="1.00" d=" M 67.28 213.14 C 70.46 212.09 73.80 212.90 76.99 213.45 C 77.32 218.07 72.89 221.24 69.32 223.32 C 60.50 227.68 47.96 227.02 41.46 218.98 C 45.65 218.96 49.94 219.34 54.02 218.15 C 58.63 217.02 62.78 214.57 67.28 213.14 Z" />
<path fill="#d1a184" opacity="1.00" d=" M 137.29 213.13 C 140.47 212.09 143.80 212.91 146.99 213.44 C 147.47 216.30 145.35 218.59 143.45 220.43 C 137.86 225.52 129.63 226.86 122.38 225.41 C 118.25 224.40 113.98 222.57 111.46 218.98 C 115.65 218.96 119.93 219.34 124.02 218.15 C 128.64 217.02 132.78 214.57 137.29 213.13 Z" />
<path fill="#d1a184" opacity="1.00" d=" M 207.29 213.13 C 210.46 212.09 213.80 212.90 216.98 213.44 C 217.31 218.07 212.89 221.25 209.31 223.33 C 200.49 227.67 187.96 227.02 181.46 218.97 C 185.65 218.96 189.94 219.34 194.02 218.15 C 198.64 217.02 202.78 214.57 207.29 213.13 Z" />
</g>
<g id="#d0f2d2ff">
<path fill="#d0f2d2" opacity="1.00" d=" M 10.01 236.01 C 88.67 235.99 167.33 235.99 245.99 236.01 C 246.01 239.34 246.01 242.67 245.99 246.00 C 242.05 246.08 238.08 245.72 234.16 246.24 C 231.74 246.52 231.10 249.19 230.14 250.99 C 226.26 251.00 222.38 250.99 218.50 251.01 C 217.42 248.71 216.02 245.80 213.00 246.00 C 209.97 245.80 208.56 248.70 207.50 251.01 C 203.61 250.99 199.72 251.00 195.84 250.99 C 194.89 249.18 194.25 246.53 191.84 246.24 C 188.25 245.73 184.61 246.06 181.00 246.00 C 124.00 246.00 67.01 246.01 10.01 245.99 C 9.99 242.66 9.99 239.33 10.01 236.01 Z" />
</g>
</svg>
