<?xml version="1.0" encoding="UTF-8" ?>
<!DOCTYPE svg PUBLIC "-//W3C//DTD SVG 1.1//EN" "http://www.w3.org/Graphics/SVG/1.1/DTD/svg11.dtd">
<svg width="554pt" height="548pt" viewBox="0 0 554 548" version="1.1" xmlns="http://www.w3.org/2000/svg">
<g id="#bd9970ff">
<path fill="#bd9970" opacity="1.00" d=" M 353.73 12.69 C 357.35 11.52 361.42 10.10 365.04 12.04 C 370.48 14.58 377.20 13.16 382.13 16.89 C 385.76 20.36 388.11 25.15 389.16 30.03 C 389.34 37.25 387.24 44.78 381.68 49.72 C 379.52 52.36 375.81 51.14 372.93 52.01 C 370.17 53.83 368.01 56.38 365.41 58.39 C 362.14 59.69 359.44 56.13 358.62 53.36 C 357.19 46.91 363.27 41.80 362.63 35.42 C 360.68 35.49 358.16 34.87 356.99 36.93 C 353.34 42.13 350.63 48.72 344.48 51.47 C 340.61 52.61 339.17 47.73 337.83 45.09 C 334.72 38.83 337.52 31.87 340.02 25.95 C 343.03 20.31 347.34 14.58 353.73 12.69 Z" />
<path fill="#bd9970" opacity="1.00" d=" M 196.92 73.85 C 201.51 72.48 205.34 76.06 209.36 77.59 C 213.92 79.41 218.25 81.94 223.04 83.07 C 228.97 82.59 235.01 82.01 240.87 83.51 C 244.01 83.88 246.16 86.34 248.25 88.44 C 240.46 87.79 232.95 90.10 225.39 91.55 C 221.45 92.97 217.77 95.11 214.18 97.26 C 212.83 99.71 212.48 102.61 210.97 104.99 C 208.01 108.45 203.24 109.49 198.87 109.56 C 193.63 109.58 188.33 111.29 183.14 109.93 C 179.33 109.14 175.82 107.33 171.99 106.65 C 166.97 107.05 162.57 109.85 158.32 112.31 C 153.63 115.10 148.00 115.56 143.24 118.17 C 137.64 121.17 132.84 125.55 126.87 127.87 C 122.34 129.83 117.35 131.18 113.64 134.61 C 111.30 136.53 109.44 139.22 106.46 140.20 C 104.47 141.20 101.66 141.34 100.70 143.67 C 98.69 147.11 98.09 152.15 93.78 153.56 C 88.19 155.48 84.24 160.15 80.98 164.85 C 79.40 166.96 78.65 169.83 76.22 171.17 C 74.00 172.67 71.47 173.71 69.48 175.53 C 67.02 178.63 66.50 182.86 63.86 185.86 C 61.01 189.05 58.11 192.21 55.34 195.47 C 53.23 195.57 50.95 195.99 48.95 195.09 C 45.96 193.49 45.53 189.10 47.61 186.62 C 50.50 182.83 53.35 179.01 56.17 175.17 C 58.62 171.76 62.96 170.74 66.03 168.06 C 67.94 164.26 68.24 159.57 71.48 156.48 C 76.99 150.98 83.41 146.45 88.49 140.50 C 92.13 135.98 97.76 133.88 101.86 129.86 C 107.78 124.06 114.35 118.90 121.26 114.33 C 131.21 109.19 141.92 105.49 151.37 99.39 C 156.88 95.91 163.66 94.94 168.76 90.76 C 172.62 87.55 174.26 82.34 178.56 79.60 C 184.03 76.03 190.68 75.24 196.92 73.85 Z" />
<path fill="#bd9970" opacity="1.00" d=" M 266.32 84.53 C 274.23 83.69 282.03 85.88 289.93 85.42 C 294.60 85.23 298.47 88.34 302.94 89.16 C 310.08 90.49 316.89 93.04 323.77 95.28 C 328.99 97.13 333.62 100.32 338.85 102.16 C 342.16 103.34 345.32 104.89 348.37 106.64 C 353.30 109.61 359.24 109.66 364.62 111.33 C 369.39 113.03 374.64 112.14 379.19 110.21 C 381.56 107.43 383.01 104.00 385.12 101.03 C 388.70 103.76 390.23 108.42 394.11 110.81 C 397.01 112.83 400.92 114.22 401.93 117.99 C 403.70 123.38 406.06 128.86 405.55 134.66 C 405.37 138.62 403.64 142.75 405.40 146.60 C 409.76 156.74 417.18 165.09 423.07 174.31 C 420.72 175.78 417.81 175.04 416.42 172.64 C 412.67 167.12 407.51 162.83 403.26 157.74 C 399.99 154.02 395.64 151.37 392.79 147.25 C 389.24 142.10 383.73 138.95 379.15 134.87 C 374.52 130.78 368.93 127.87 364.81 123.21 C 361.80 119.60 357.19 118.15 353.40 115.60 C 349.19 112.80 345.25 109.52 340.62 107.41 C 336.81 105.95 332.60 106.30 328.72 105.12 C 323.67 103.55 318.84 101.23 313.58 100.41 C 306.84 99.41 300.59 96.57 293.98 95.04 C 288.14 93.85 283.13 89.88 277.05 89.68 C 273.55 89.30 269.73 90.24 266.54 88.40 C 266.48 87.10 266.40 85.82 266.32 84.53 Z" />
<path fill="#bd9970" opacity="1.00" d=" M 479.95 112.96 C 482.57 111.99 485.55 112.21 488.27 112.72 C 491.41 114.42 490.77 118.52 490.38 121.47 C 489.16 124.85 486.29 127.50 483.02 128.91 C 480.42 127.32 477.69 125.01 477.44 121.75 C 477.26 118.72 476.78 114.68 479.95 112.96 Z" />
<path fill="#bd9970" opacity="1.00" d=" M 487.90 144.88 C 489.57 142.88 491.75 141.42 494.02 140.17 C 497.33 141.67 500.75 144.79 500.52 148.70 C 499.59 152.17 496.62 154.84 493.41 156.25 C 491.61 157.16 490.05 155.28 488.71 154.34 C 485.80 152.24 485.34 147.40 487.90 144.88 Z" />
<path fill="#bd9970" opacity="1.00" d=" M 503.36 172.54 C 506.95 172.29 510.65 172.07 514.20 172.84 C 518.56 174.91 521.17 179.28 524.03 182.98 C 526.94 186.95 530.03 191.98 528.06 197.04 C 524.47 204.34 516.64 208.31 509.03 210.06 C 499.91 212.65 488.49 204.92 489.33 195.00 C 489.07 190.85 489.59 186.58 492.13 183.14 C 495.04 178.99 497.93 173.54 503.36 172.54 Z" />
<path fill="#bd9970" opacity="1.00" d=" M 452.40 233.38 C 456.31 232.33 458.57 236.08 459.76 239.19 C 463.87 250.42 468.47 261.87 468.60 274.01 C 468.66 279.49 471.88 284.42 471.62 289.95 C 471.50 298.35 471.52 306.75 471.51 315.15 C 471.62 318.90 470.67 322.65 468.86 325.94 C 467.66 328.70 461.89 328.26 462.43 324.77 C 462.42 319.45 464.40 314.20 463.20 308.87 C 461.79 302.67 462.78 296.35 462.95 290.09 C 461.40 280.90 461.47 271.41 458.43 262.50 C 456.82 257.91 455.22 253.29 454.61 248.44 C 454.05 243.39 452.25 238.50 452.40 233.38 Z" />
<path fill="#bd9970" opacity="1.00" d=" M 10.73 267.56 C 15.05 267.05 19.30 268.23 23.34 269.66 C 23.55 272.30 23.89 275.00 23.43 277.64 C 22.30 280.11 20.25 282.18 19.82 284.95 C 19.23 289.49 20.40 294.28 18.58 298.64 C 16.73 302.87 17.48 307.54 17.39 312.00 C 17.48 316.05 16.48 320.04 16.61 324.09 C 16.96 327.86 19.59 331.08 19.63 334.93 C 19.86 342.88 18.86 351.28 22.20 358.74 C 23.33 361.31 23.58 364.13 24.07 366.87 C 24.57 370.23 26.57 373.06 27.99 376.07 C 30.29 380.00 28.87 384.93 31.08 388.91 C 33.11 392.57 35.41 396.17 36.28 400.33 C 37.09 404.20 39.01 407.67 40.88 411.11 C 42.52 413.96 42.23 417.43 43.57 420.39 C 45.68 423.21 48.79 425.16 50.71 428.15 C 51.70 430.74 51.80 433.60 52.88 436.17 C 54.26 438.09 56.25 439.44 57.95 441.07 C 61.40 443.92 61.93 448.82 65.11 451.90 C 71.83 458.50 78.38 465.29 85.20 471.81 C 89.68 475.88 90.86 482.55 96.14 485.91 C 103.11 490.43 110.41 494.43 118.20 497.32 C 118.26 498.31 118.32 499.30 118.38 500.31 C 114.51 500.97 111.24 498.42 108.07 496.63 C 102.68 493.04 95.73 491.76 91.46 486.61 C 88.62 483.54 84.08 482.87 81.36 479.65 C 78.31 476.35 75.06 473.26 71.86 470.12 C 69.73 468.08 69.01 465.10 67.25 462.80 C 65.59 461.25 63.04 461.16 61.33 459.67 C 60.07 458.13 59.69 456.08 58.75 454.36 C 57.37 452.69 55.15 452.03 53.70 450.46 C 51.92 447.71 51.04 444.50 49.28 441.75 C 46.82 438.02 42.78 435.58 40.68 431.58 C 37.69 425.50 35.01 419.25 31.71 413.36 C 30.95 409.81 27.99 407.36 27.25 403.79 C 22.49 397.72 21.28 389.95 18.64 382.90 C 17.52 376.20 12.69 370.67 12.52 363.76 C 12.15 360.16 12.77 356.53 12.40 352.93 C 12.04 349.76 9.34 347.32 9.41 344.06 C 9.15 338.69 9.75 333.30 9.35 327.93 C 8.92 324.31 5.74 321.22 6.57 317.44 C 7.60 313.21 10.71 309.89 12.09 305.81 C 12.93 301.24 12.45 296.56 12.53 291.94 C 12.79 288.27 10.30 285.29 9.53 281.86 C 9.19 278.58 9.35 275.28 9.41 272.00 C 9.56 270.46 9.26 268.56 10.73 267.56 Z" />
<path fill="#bd9970" opacity="1.00" d=" M 460.75 337.68 C 462.44 334.43 466.30 334.12 469.54 334.44 C 469.57 336.21 469.76 338.00 469.46 339.77 C 468.65 342.54 466.41 344.88 466.52 347.91 C 466.37 350.50 466.68 353.12 466.33 355.70 C 463.29 362.87 461.42 370.47 458.70 377.76 C 457.26 380.93 455.10 383.79 454.23 387.20 C 453.09 391.96 450.85 396.34 448.52 400.61 C 445.82 405.99 443.70 411.68 440.64 416.87 C 437.91 420.21 435.42 423.72 433.35 427.51 C 432.01 430.08 429.63 431.78 427.05 432.96 C 427.91 425.71 433.23 420.47 436.96 414.60 C 439.98 407.96 441.30 400.53 445.52 394.47 C 447.08 389.66 450.27 385.59 452.03 380.83 C 453.00 376.48 451.55 371.75 453.73 367.66 C 456.01 363.43 454.80 358.33 457.22 354.17 C 460.12 349.04 456.58 342.33 460.75 337.68 Z" />
<path fill="#bd9970" opacity="1.00" d=" M 373.07 486.82 C 374.64 483.28 378.03 481.00 381.94 481.20 C 380.47 484.86 377.11 487.29 373.07 486.82 Z" />
<path fill="#bd9970" opacity="1.00" d=" M 347.98 505.33 C 353.46 498.76 360.01 492.14 368.96 491.06 C 367.79 495.89 362.90 497.82 359.03 500.04 C 355.35 501.97 352.74 506.90 347.98 505.33 Z" />
<path fill="#bd9970" opacity="1.00" d=" M 131.04 509.78 C 134.99 508.48 137.55 512.32 141.00 513.29 C 144.98 513.71 148.99 513.14 152.97 513.49 C 159.72 515.22 165.89 519.16 172.98 519.53 C 178.40 520.24 183.60 522.20 188.59 524.39 C 192.76 526.25 197.45 526.40 201.67 528.17 C 205.84 530.11 210.48 529.04 214.89 529.51 C 218.68 530.06 222.03 532.45 225.94 532.42 C 229.98 532.51 234.04 532.49 238.08 532.40 C 241.93 532.35 244.99 529.17 248.91 529.36 C 257.96 529.32 267.02 529.49 276.08 529.38 C 279.36 529.66 281.57 526.87 284.45 525.86 C 287.14 525.29 290.03 525.84 292.62 524.72 C 297.15 522.82 302.04 521.96 306.50 519.86 C 311.65 518.92 316.99 519.57 322.21 519.56 C 317.93 522.62 313.00 524.67 308.21 526.78 C 299.39 528.78 291.23 533.57 282.07 533.88 C 279.34 534.61 276.98 536.57 274.06 536.51 C 271.10 536.49 268.24 537.25 265.59 538.54 C 261.78 540.51 257.27 538.79 253.36 540.39 C 251.26 541.03 249.36 542.40 247.14 542.58 C 243.78 541.57 240.71 539.33 237.06 539.54 C 225.35 539.58 213.64 539.66 201.94 539.63 C 198.06 539.66 194.95 536.61 191.08 536.60 C 187.02 536.49 182.89 536.98 178.92 535.90 C 174.58 535.05 170.60 533.07 166.47 531.60 C 162.38 530.06 158.05 528.97 154.41 526.45 C 149.78 523.14 143.45 522.82 139.39 518.62 C 136.38 515.90 133.58 512.95 131.04 509.78 Z" />
</g>
</svg>
