<?xml version="1.0" encoding="UTF-8" ?>
<!DOCTYPE svg PUBLIC "-//W3C//DTD SVG 1.1//EN" "http://www.w3.org/Graphics/SVG/1.1/DTD/svg11.dtd">
<svg width="256pt" height="256pt" viewBox="0 0 256 256" version="1.1" xmlns="http://www.w3.org/2000/svg">
<g id="#000000ff">
<path fill="#000000" opacity="1.00" d=" M 102.97 0.00 L 108.29 0.00 C 121.13 1.20 133.10 7.08 143.30 14.75 C 151.20 20.82 158.26 28.96 160.29 38.98 C 162.70 50.45 157.62 62.47 149.36 70.39 C 142.66 76.86 132.91 79.47 123.78 78.34 C 112.46 76.98 101.95 71.77 92.69 65.32 C 83.53 58.78 75.19 49.62 73.43 38.12 C 70.93 20.37 84.72 1.46 102.97 0.00 M 91.75 15.17 C 97.86 16.66 103.61 19.47 108.55 23.36 C 116.99 29.88 123.15 38.77 131.01 45.92 C 135.95 50.42 142.16 53.66 148.88 54.27 C 150.70 49.71 151.68 44.62 150.25 39.81 C 147.96 31.79 141.62 25.74 135.01 21.05 C 127.43 15.88 118.97 11.57 109.80 10.26 C 103.44 9.35 96.60 10.79 91.75 15.17 M 85.15 24.31 C 83.10 29.22 82.23 34.84 84.11 39.94 C 86.83 47.77 93.24 53.62 99.92 58.17 C 107.75 63.34 116.52 67.68 126.00 68.51 C 131.87 69.03 137.90 67.28 142.37 63.39 C 136.93 61.77 131.73 59.29 127.26 55.76 C 117.67 48.40 111.16 37.79 101.49 30.52 C 96.78 26.90 91.04 24.84 85.15 24.31 Z" />
<path fill="#000000" opacity="1.00" d=" M 180.37 74.54 C 192.17 72.67 204.55 72.97 215.93 76.83 C 224.45 79.66 232.18 85.65 235.87 93.97 C 239.56 102.39 239.79 112.25 236.74 120.90 C 233.92 128.93 227.37 135.29 219.66 138.69 C 209.70 143.13 198.54 144.05 187.77 143.38 C 177.74 142.63 167.33 140.07 159.49 133.45 C 147.23 123.23 145.42 103.75 153.50 90.45 C 159.26 81.17 169.94 76.31 180.37 74.54 M 181.06 84.57 C 172.13 86.15 162.75 91.09 159.78 100.24 C 169.71 97.22 180.34 98.48 190.08 101.58 C 199.90 104.38 209.67 108.99 220.13 107.92 C 223.06 107.47 226.33 107.07 228.71 105.24 C 228.17 97.38 222.78 90.50 215.62 87.45 C 204.80 82.82 192.52 82.64 181.06 84.57 M 158.64 111.51 C 159.35 118.77 163.66 125.52 170.27 128.75 C 180.98 134.13 193.55 134.37 205.18 132.66 C 214.61 131.28 224.63 126.31 227.81 116.68 C 214.29 120.61 200.70 115.50 187.92 111.40 C 178.54 108.20 167.78 106.82 158.64 111.51 Z" />
<path fill="#000000" opacity="1.00" d=" M 93.13 84.29 C 102.23 82.73 112.18 84.62 119.32 90.69 C 129.65 99.44 135.45 114.55 130.50 127.64 C 125.69 140.47 114.08 149.19 102.36 155.41 C 92.51 160.42 81.14 163.96 70.05 161.54 C 55.67 158.45 45.47 144.28 44.54 130.00 C 43.89 118.36 50.85 107.83 59.48 100.64 C 69.16 92.66 80.69 86.48 93.13 84.29 M 70.57 104.69 C 64.04 109.29 57.79 115.20 55.32 123.01 C 53.67 127.95 54.66 133.22 56.47 137.95 C 59.85 137.62 63.23 136.87 66.25 135.25 C 68.56 134.19 71.04 132.10 73.70 133.40 C 77.07 134.63 77.79 139.73 74.86 141.82 C 71.36 144.41 67.15 145.76 63.09 147.19 C 66.97 150.48 71.92 152.40 77.04 152.34 C 86.77 152.29 95.89 147.99 104.00 142.92 C 111.30 138.17 118.45 132.04 121.36 123.56 C 123.16 118.47 122.32 112.91 120.21 108.06 C 115.51 108.49 111.07 110.10 106.87 112.18 C 104.60 113.46 102.32 111.86 100.48 110.61 C 100.06 108.48 99.50 105.89 101.33 104.23 C 104.91 101.42 109.41 100.20 113.70 98.91 C 109.15 94.93 102.96 93.26 96.99 93.88 C 87.36 94.83 78.48 99.34 70.57 104.69 Z" />
<path fill="#000000" opacity="1.00" d=" M 91.88 118.69 C 92.57 117.76 93.28 116.84 93.99 115.92 C 93.31 116.91 92.62 117.90 91.93 118.89 C 93.26 121.21 93.77 124.47 91.43 126.35 C 89.47 128.31 86.67 127.43 84.45 126.53 C 83.29 124.31 82.37 121.38 84.36 119.32 C 86.22 116.94 89.50 117.54 91.88 118.69 Z" />
<path fill="#000000" opacity="1.00" d=" M 138.51 148.58 C 147.06 146.39 156.33 148.50 163.54 153.46 C 172.68 159.76 179.27 169.11 184.20 178.93 C 188.85 188.40 192.00 199.26 189.75 209.82 C 186.56 224.99 171.11 235.65 156.01 235.53 C 142.45 235.16 131.50 225.27 124.27 214.60 C 116.57 203.01 110.29 189.11 112.43 174.88 C 114.39 161.64 125.96 151.71 138.51 148.58 M 141.37 158.00 C 146.21 162.69 150.00 168.43 152.35 174.76 C 156.08 184.48 156.97 195.00 160.22 204.86 C 162.24 211.04 166.00 216.66 171.27 220.52 C 176.93 216.55 180.71 209.98 180.51 202.98 C 180.28 191.06 174.34 180.06 167.33 170.73 C 161.31 162.82 151.85 155.92 141.37 158.00 M 121.96 181.02 C 122.46 192.74 128.33 203.53 135.28 212.69 C 141.30 220.55 150.80 227.38 161.22 225.20 C 154.14 218.21 150.28 208.72 148.30 199.12 C 146.10 190.18 145.02 180.72 140.34 172.62 C 138.12 168.64 134.82 165.39 131.16 162.73 C 125.31 166.86 121.53 173.78 121.96 181.02 Z" />
<path fill="#000000" opacity="1.00" d=" M 37.85 185.87 C 47.11 177.61 59.15 170.67 72.00 172.28 C 88.98 174.64 103.38 191.73 100.79 209.10 C 99.36 219.52 93.32 228.65 86.36 236.27 C 77.49 245.85 66.25 254.16 53.02 256.00 L 47.34 256.00 C 30.13 253.95 15.18 237.17 17.37 219.55 C 19.11 206.03 28.07 194.78 37.85 185.87 M 48.84 189.77 C 39.83 196.87 31.36 205.79 28.01 217.02 C 25.85 223.81 27.77 231.28 32.22 236.71 C 38.50 234.39 43.65 229.72 47.24 224.13 C 53.81 213.96 57.67 202.04 65.99 193.02 C 69.20 189.38 73.14 186.50 77.35 184.11 C 67.75 179.32 56.69 183.61 48.84 189.77 M 71.22 202.30 C 64.33 211.54 60.76 222.79 53.87 232.04 C 50.41 236.84 45.89 240.79 40.83 243.83 C 50.38 248.72 61.46 244.40 69.34 238.30 C 78.50 231.09 87.10 221.99 90.37 210.53 C 92.34 203.83 90.36 196.57 85.98 191.28 C 80.11 193.42 74.91 197.24 71.22 202.30 Z" />
</g>
<g id="#c68a65ff">
<path fill="#c68a65" opacity="1.00" d=" M 91.75 15.17 C 96.60 10.79 103.44 9.35 109.80 10.26 C 118.97 11.57 127.43 15.88 135.01 21.05 C 141.62 25.74 147.96 31.79 150.25 39.81 C 151.68 44.62 150.70 49.71 148.88 54.27 C 142.16 53.66 135.95 50.42 131.01 45.92 C 123.15 38.77 116.99 29.88 108.55 23.36 C 103.61 19.47 97.86 16.66 91.75 15.17 Z" />
<path fill="#c68a65" opacity="1.00" d=" M 85.15 24.31 C 91.04 24.84 96.78 26.90 101.49 30.52 C 111.16 37.79 117.67 48.40 127.26 55.76 C 131.73 59.29 136.93 61.77 142.37 63.39 C 137.90 67.28 131.87 69.03 126.00 68.51 C 116.52 67.68 107.75 63.34 99.92 58.17 C 93.24 53.62 86.83 47.77 84.11 39.94 C 82.23 34.84 83.10 29.22 85.15 24.31 Z" />
<path fill="#c68a65" opacity="1.00" d=" M 181.06 84.57 C 192.52 82.64 204.80 82.82 215.62 87.45 C 222.78 90.50 228.17 97.38 228.71 105.24 C 226.33 107.07 223.06 107.47 220.13 107.92 C 209.67 108.99 199.90 104.38 190.08 101.58 C 180.34 98.48 169.71 97.22 159.78 100.24 C 162.75 91.09 172.13 86.15 181.06 84.57 Z" />
<path fill="#c68a65" opacity="1.00" d=" M 70.57 104.69 C 78.48 99.34 87.36 94.83 96.99 93.88 C 102.96 93.26 109.15 94.93 113.70 98.91 C 109.41 100.20 104.91 101.42 101.33 104.23 C 99.50 105.89 100.06 108.48 100.48 110.61 C 102.32 111.86 104.60 113.46 106.87 112.18 C 111.07 110.10 115.51 108.49 120.21 108.06 C 122.32 112.91 123.16 118.47 121.36 123.56 C 118.45 132.04 111.30 138.17 104.00 142.92 C 95.89 147.99 86.77 152.29 77.04 152.34 C 71.92 152.40 66.97 150.48 63.09 147.19 C 67.15 145.76 71.36 144.41 74.86 141.82 C 77.79 139.73 77.07 134.63 73.70 133.40 C 71.04 132.10 68.56 134.19 66.25 135.25 C 63.23 136.87 59.85 137.62 56.47 137.95 C 54.66 133.22 53.67 127.95 55.32 123.01 C 57.79 115.20 64.04 109.29 70.57 104.69 M 91.88 118.69 C 89.50 117.54 86.22 116.94 84.36 119.32 C 82.37 121.38 83.29 124.31 84.45 126.53 C 86.67 127.43 89.47 128.31 91.43 126.35 C 93.77 124.47 93.26 121.21 91.93 118.89 C 92.62 117.90 93.31 116.91 93.99 115.92 C 93.28 116.84 92.57 117.76 91.88 118.69 Z" />
<path fill="#c68a65" opacity="1.00" d=" M 158.64 111.51 C 167.78 106.82 178.54 108.20 187.92 111.40 C 200.70 115.50 214.29 120.61 227.81 116.68 C 224.63 126.31 214.61 131.28 205.18 132.66 C 193.55 134.37 180.98 134.13 170.27 128.75 C 163.66 125.52 159.35 118.77 158.64 111.51 Z" />
<path fill="#c68a65" opacity="1.00" d=" M 141.37 158.00 C 151.85 155.92 161.31 162.82 167.33 170.73 C 174.34 180.06 180.28 191.06 180.51 202.98 C 180.71 209.98 176.93 216.55 171.27 220.52 C 166.00 216.66 162.24 211.04 160.22 204.86 C 156.97 195.00 156.08 184.48 152.35 174.76 C 150.00 168.43 146.21 162.69 141.37 158.00 Z" />
<path fill="#c68a65" opacity="1.00" d=" M 121.96 181.02 C 121.53 173.78 125.31 166.86 131.16 162.73 C 134.82 165.39 138.12 168.64 140.34 172.62 C 145.02 180.72 146.10 190.18 148.30 199.12 C 150.28 208.72 154.14 218.21 161.22 225.20 C 150.80 227.38 141.30 220.55 135.28 212.69 C 128.33 203.53 122.46 192.74 121.96 181.02 Z" />
<path fill="#c68a65" opacity="1.00" d=" M 48.84 189.77 C 56.69 183.61 67.75 179.32 77.35 184.11 C 73.14 186.50 69.20 189.38 65.99 193.02 C 57.67 202.04 53.81 213.96 47.24 224.13 C 43.65 229.72 38.50 234.39 32.22 236.71 C 27.77 231.28 25.85 223.81 28.01 217.02 C 31.36 205.79 39.83 196.87 48.84 189.77 Z" />
<path fill="#c68a65" opacity="1.00" d=" M 71.22 202.30 C 74.91 197.24 80.11 193.42 85.98 191.28 C 90.36 196.57 92.34 203.83 90.37 210.53 C 87.10 221.99 78.50 231.09 69.34 238.30 C 61.46 244.40 50.38 248.72 40.83 243.83 C 45.89 240.79 50.41 236.84 53.87 232.04 C 60.76 222.79 64.33 211.54 71.22 202.30 Z" />
</g>
</svg>
