<?xml version="1.0" encoding="UTF-8" ?>
<!DOCTYPE svg PUBLIC "-//W3C//DTD SVG 1.1//EN" "http://www.w3.org/Graphics/SVG/1.1/DTD/svg11.dtd">
<svg width="256pt" height="256pt" viewBox="0 0 256 256" version="1.1" xmlns="http://www.w3.org/2000/svg">
<g id="#000000ff">
<path fill="#000000" opacity="1.00" d=" M 134.65 0.00 L 142.10 0.00 C 151.98 0.79 161.93 3.86 169.52 10.45 C 180.67 19.84 185.99 34.33 187.66 48.47 C 192.53 52.13 197.28 56.01 201.41 60.50 C 203.01 62.02 203.60 64.53 202.49 66.50 C 201.19 69.21 197.19 70.14 194.97 68.01 C 191.59 64.98 188.49 61.63 184.91 58.82 C 177.30 71.14 165.38 81.95 150.45 83.61 C 127.21 86.28 105.20 74.98 82.04 75.45 C 75.34 75.57 68.60 76.72 62.43 79.40 C 60.30 80.17 57.89 81.54 55.67 80.30 C 53.28 79.20 52.53 76.33 53.15 73.94 C 55.90 56.88 65.48 41.63 77.34 29.36 C 92.58 13.80 112.66 2.03 134.65 0.00 M 107.65 18.71 C 88.13 29.10 72.03 46.56 65.01 67.70 C 84.92 62.09 105.38 68.02 124.96 72.07 C 135.65 74.17 147.26 75.75 157.58 71.27 C 165.86 67.75 171.87 60.65 176.64 53.26 C 158.11 42.38 135.40 42.83 114.94 46.84 C 109.95 47.55 105.17 49.56 100.15 49.87 C 95.25 49.39 94.47 41.67 99.21 40.32 C 124.21 33.36 152.24 30.50 176.40 41.94 C 174.44 33.85 171.04 25.83 165.03 19.90 C 159.24 14.02 151.16 10.78 143.00 10.21 C 130.68 9.33 118.47 13.03 107.65 18.71 Z" />
<path fill="#000000" opacity="1.00" d=" M 78.36 104.34 C 80.40 102.41 83.45 103.15 85.98 102.98 C 90.95 103.19 95.97 102.60 100.90 103.31 C 105.27 104.50 105.23 111.57 100.85 112.71 C 96.19 113.37 91.44 112.83 86.75 113.01 C 86.74 116.33 86.74 119.66 86.75 122.98 C 89.31 123.09 92.00 122.65 94.46 123.52 C 98.10 125.06 98.09 130.96 94.43 132.48 C 91.98 133.35 89.30 132.91 86.75 133.02 C 86.74 136.34 86.74 139.67 86.75 142.99 C 91.19 143.10 95.64 142.80 100.07 143.13 C 103.76 143.44 105.48 148.37 103.16 151.11 C 101.74 153.08 99.11 153.02 96.95 153.02 C 91.92 152.95 86.89 153.09 81.86 152.96 C 79.17 153.12 76.68 150.75 76.79 148.04 C 76.67 135.38 76.81 122.72 76.73 110.06 C 76.74 108.07 76.67 105.73 78.36 104.34 Z" />
<path fill="#000000" opacity="1.00" d=" M 124.23 103.31 C 132.66 101.61 141.39 108.34 141.65 116.98 C 142.54 120.88 138.13 124.36 134.57 122.51 C 130.69 121.03 132.83 115.52 129.29 113.72 C 126.21 111.66 121.57 114.24 121.78 117.97 C 121.70 124.64 121.70 131.32 121.78 138.00 C 121.54 141.72 126.18 144.34 129.27 142.29 C 132.67 140.60 130.80 135.66 133.99 133.82 C 136.78 131.81 141.14 133.69 141.64 137.08 C 141.99 142.16 139.60 147.43 135.33 150.29 C 128.87 154.83 118.90 153.25 114.44 146.63 C 110.61 141.20 111.98 134.24 111.74 128.04 C 111.94 122.94 111.09 117.66 112.72 112.72 C 114.41 107.74 119.07 104.08 124.23 103.31 Z" />
<path fill="#000000" opacity="1.00" d=" M 160.34 103.59 C 166.71 101.87 174.15 104.70 177.29 110.61 C 180.17 115.91 178.98 122.16 179.22 127.92 C 178.97 133.95 180.28 140.59 176.91 146.01 C 173.09 152.42 164.18 154.66 157.58 151.39 C 152.45 149.11 149.28 143.59 149.27 138.05 C 149.23 131.04 149.13 124.02 149.32 117.02 C 149.56 110.74 154.21 105.02 160.34 103.59 M 162.36 113.37 C 160.04 114.15 159.04 116.71 159.23 119.00 C 159.25 125.37 159.14 131.76 159.29 138.14 C 159.22 140.67 161.40 142.90 163.92 142.96 C 166.69 143.22 169.30 140.81 169.17 138.01 C 169.27 131.35 169.27 124.68 169.17 118.02 C 169.41 114.56 165.47 112.01 162.36 113.37 Z" />
<path fill="#000000" opacity="1.00" d=" M 218.50 119.60 C 220.68 118.01 223.58 118.91 225.35 120.69 C 245.05 137.68 255.03 163.79 256.00 189.39 L 256.00 196.28 C 255.05 211.54 251.08 227.24 241.25 239.30 C 234.55 247.74 224.64 253.57 213.96 255.12 C 202.43 256.97 190.65 254.36 180.04 249.82 C 174.22 252.39 168.18 254.42 162.03 256.00 L 160.31 256.00 C 156.09 255.07 154.71 248.89 158.66 246.75 C 163.19 245.00 168.01 244.11 172.50 242.25 C 168.40 234.46 165.25 225.92 165.21 217.02 C 164.98 207.04 168.76 197.41 174.16 189.17 C 182.24 176.54 193.91 166.81 202.90 154.89 C 209.42 146.48 214.83 136.74 215.94 126.00 C 216.32 123.76 216.28 120.93 218.50 119.60 M 224.74 134.00 C 223.07 141.15 219.98 147.92 215.89 154.01 C 207.21 167.07 195.27 177.46 185.78 189.88 C 180.74 196.47 176.52 204.04 175.49 212.39 C 174.34 221.31 177.23 230.20 181.54 237.92 C 202.45 225.68 213.63 202.58 220.23 180.16 C 221.30 177.17 221.39 172.82 225.02 171.70 C 228.65 170.42 232.61 174.30 231.24 177.96 C 224.63 202.82 213.17 228.22 191.40 243.34 C 202.92 246.95 216.47 246.99 226.55 239.58 C 239.16 230.28 244.37 214.13 245.62 199.09 C 247.39 175.85 240.39 151.53 224.74 134.00 Z" />
<path fill="#000000" opacity="1.00" d=" M 28.97 127.93 C 31.45 123.94 38.48 126.30 37.91 131.01 C 37.13 135.69 35.61 140.22 34.99 144.94 C 44.56 145.41 54.36 147.29 62.56 152.51 C 70.34 157.33 76.13 164.80 80.10 172.96 C 87.44 187.89 90.28 204.55 97.42 219.57 C 101.06 227.40 106.11 234.77 113.03 240.07 C 114.50 241.24 116.10 242.29 117.33 243.74 C 119.13 246.22 117.80 250.11 114.89 251.05 C 107.72 254.05 99.95 255.17 92.27 256.00 L 82.73 256.00 C 59.99 254.44 37.42 245.94 20.41 230.56 C 9.33 220.53 0.84 206.76 0.00 191.54 L 0.00 189.32 C 0.19 172.20 11.33 157.51 24.60 147.73 C 25.51 141.06 26.25 134.15 28.97 127.93 M 34.31 154.94 C 34.32 170.45 40.35 185.38 49.10 197.98 C 50.43 200.03 52.45 202.27 51.52 204.92 C 50.62 208.44 45.50 209.73 43.16 206.86 C 33.17 193.45 26.01 177.55 24.57 160.75 C 18.16 166.81 12.65 174.30 10.80 183.08 C 8.79 191.78 10.94 201.02 15.40 208.63 C 21.89 219.83 32.17 228.39 43.40 234.60 C 61.17 244.28 82.33 248.51 102.30 244.37 C 99.08 240.68 95.66 237.14 93.14 232.91 C 82.95 216.60 80.25 197.10 72.36 179.77 C 68.92 172.34 64.02 165.28 56.97 160.88 C 50.24 156.61 42.17 155.12 34.31 154.94 Z" />
<path fill="#000000" opacity="1.00" d=" M 59.08 216.19 C 62.68 214.33 67.24 218.19 65.93 222.05 C 65.21 225.65 60.21 226.92 57.67 224.39 C 55.16 222.10 55.90 217.48 59.08 216.19 Z" />
</g>
<g id="#cbe558ff">
<path fill="#cbe558" opacity="1.00" d=" M 107.65 18.71 C 118.47 13.03 130.68 9.33 143.00 10.21 C 151.16 10.78 159.24 14.02 165.03 19.90 C 171.04 25.83 174.44 33.85 176.40 41.94 C 152.24 30.50 124.21 33.36 99.21 40.32 C 94.47 41.67 95.25 49.39 100.15 49.87 C 105.17 49.56 109.95 47.55 114.94 46.84 C 135.40 42.83 158.11 42.38 176.64 53.26 C 171.87 60.65 165.86 67.75 157.58 71.27 C 147.26 75.75 135.65 74.17 124.96 72.07 C 105.38 68.02 84.92 62.09 65.01 67.70 C 72.03 46.56 88.13 29.10 107.65 18.71 Z" />
<path fill="#cbe558" opacity="1.00" d=" M 224.74 134.00 C 240.39 151.53 247.39 175.85 245.62 199.09 C 244.37 214.13 239.16 230.28 226.55 239.58 C 216.47 246.99 202.92 246.95 191.40 243.34 C 213.17 228.22 224.63 202.82 231.24 177.96 C 232.61 174.30 228.65 170.42 225.02 171.70 C 221.39 172.82 221.30 177.17 220.23 180.16 C 213.63 202.58 202.45 225.68 181.54 237.92 C 177.23 230.20 174.34 221.31 175.49 212.39 C 176.52 204.04 180.74 196.47 185.78 189.88 C 195.27 177.46 207.21 167.07 215.89 154.01 C 219.98 147.92 223.07 141.15 224.74 134.00 Z" />
<path fill="#cbe558" opacity="1.00" d=" M 34.31 154.94 C 42.17 155.12 50.24 156.61 56.97 160.88 C 64.02 165.28 68.92 172.34 72.36 179.77 C 80.25 197.10 82.95 216.60 93.14 232.91 C 95.66 237.14 99.08 240.68 102.30 244.37 C 82.33 248.51 61.17 244.28 43.40 234.60 C 32.17 228.39 21.89 219.83 15.40 208.63 C 10.94 201.02 8.79 191.78 10.80 183.08 C 12.65 174.30 18.16 166.81 24.57 160.75 C 26.01 177.55 33.17 193.45 43.16 206.86 C 45.50 209.73 50.62 208.44 51.52 204.92 C 52.45 202.27 50.43 200.03 49.10 197.98 C 40.35 185.38 34.32 170.45 34.31 154.94 M 59.08 216.19 C 55.90 217.48 55.16 222.10 57.67 224.39 C 60.21 226.92 65.21 225.65 65.93 222.05 C 67.24 218.19 62.68 214.33 59.08 216.19 Z" />
</g>
</svg>
