<?xml version="1.0" encoding="UTF-8" ?>
<!DOCTYPE svg PUBLIC "-//W3C//DTD SVG 1.1//EN" "http://www.w3.org/Graphics/SVG/1.1/DTD/svg11.dtd">
<svg width="256pt" height="256pt" viewBox="0 0 256 256" version="1.1" xmlns="http://www.w3.org/2000/svg">
<g id="#000000ff">
<path fill="#000000" opacity="1.00" d=" M 84.36 30.60 C 102.09 25.16 122.44 28.52 136.99 40.21 C 152.24 52.04 161.00 70.69 163.33 89.59 C 172.71 76.90 185.73 66.84 200.65 61.55 C 217.04 55.61 235.28 55.38 252.01 60.08 C 253.88 60.41 255.02 61.98 256.00 63.46 L 256.00 66.06 C 253.82 69.82 251.02 73.17 248.90 76.96 C 239.06 93.91 236.05 113.73 227.08 131.07 C 222.34 140.16 215.75 148.50 207.08 154.12 C 189.40 165.67 167.51 167.66 146.91 167.77 C 144.16 168.07 141.37 165.89 141.49 163.01 C 141.28 144.59 144.66 126.02 152.01 109.07 C 139.94 108.42 127.41 106.62 117.00 100.04 C 107.86 94.38 101.65 85.04 97.80 75.18 C 93.88 64.85 91.35 53.89 85.68 44.30 C 84.21 41.76 82.25 39.51 81.01 36.84 C 80.01 34.30 81.73 31.22 84.36 30.60 M 94.06 38.68 C 99.11 47.51 102.34 57.20 105.40 66.85 C 108.43 75.96 112.97 85.20 121.10 90.79 C 130.03 96.96 141.16 98.35 151.72 99.03 C 144.52 85.64 134.33 74.08 123.36 63.66 C 121.27 61.63 118.05 59.42 119.05 56.03 C 119.80 52.48 124.72 51.00 127.25 53.64 C 135.90 61.41 143.79 70.01 150.90 79.20 C 147.23 65.78 139.24 53.22 127.45 45.57 C 117.71 39.12 105.55 36.91 94.06 38.68 M 185.39 81.33 C 168.01 94.90 157.49 115.80 153.76 137.27 C 160.84 127.00 168.66 117.21 177.32 108.22 C 180.52 104.73 186.89 108.46 185.52 112.98 C 184.24 116.22 181.22 118.34 179.10 121.02 C 169.29 132.23 160.11 144.19 153.70 157.70 C 171.52 156.89 190.74 154.71 205.16 143.17 C 213.74 136.18 219.06 126.11 222.84 115.90 C 228.79 99.74 233.15 82.73 242.59 68.11 C 222.78 64.12 201.25 68.61 185.39 81.33 Z" />
<path fill="#000000" opacity="1.00" d=" M 195.18 91.33 C 198.85 89.96 202.83 93.96 201.44 97.61 C 200.50 101.35 195.02 102.26 192.77 99.22 C 190.62 96.64 191.92 92.23 195.18 91.33 Z" />
<path fill="#000000" opacity="1.00" d=" M 0.00 121.77 C 0.85 120.22 1.86 118.28 3.88 118.16 C 7.55 117.73 11.29 117.72 14.96 118.14 C 17.73 118.48 19.10 121.42 18.88 123.95 C 18.95 135.64 18.82 147.33 18.93 159.02 C 18.85 161.10 19.08 163.30 18.29 165.29 C 16.92 168.18 12.61 168.76 10.39 166.54 C 8.62 164.88 9.01 162.21 8.85 160.02 C 8.92 149.37 8.88 138.73 8.89 128.08 C 5.56 128.06 1.52 128.06 0.00 124.44 L 0.00 121.77 Z" />
<path fill="#000000" opacity="1.00" d=" M 37.37 118.64 C 42.81 117.05 49.17 118.63 52.91 122.97 C 55.61 125.93 56.69 130.01 56.66 133.94 C 56.65 140.30 56.74 146.66 56.62 153.01 C 56.55 157.81 54.27 162.63 50.19 165.27 C 43.72 169.74 33.83 168.19 29.38 161.58 C 25.53 156.16 26.91 149.19 26.67 142.98 C 26.85 137.95 26.06 132.76 27.57 127.87 C 29.03 123.40 32.86 119.89 37.37 118.64 M 39.38 128.48 C 37.28 129.42 36.56 131.83 36.67 133.96 C 36.69 140.30 36.56 146.64 36.73 152.98 C 36.48 156.73 41.08 159.17 44.18 157.26 C 46.86 155.89 46.70 152.56 46.70 150.00 C 46.54 144.03 46.90 138.05 46.52 132.09 C 46.23 128.81 42.19 126.96 39.38 128.48 Z" />
<path fill="#000000" opacity="1.00" d=" M 75.44 118.55 C 81.85 116.76 89.38 119.57 92.52 125.57 C 95.38 130.90 94.22 137.17 94.44 142.96 C 94.22 149.20 95.55 156.19 91.69 161.63 C 86.93 168.66 75.98 169.87 69.65 164.31 C 66.04 161.34 64.35 156.60 64.45 152.01 C 64.48 145.33 64.32 138.65 64.54 131.97 C 64.77 125.74 69.36 120.02 75.44 118.55 M 77.31 128.42 C 75.18 129.34 74.27 131.73 74.45 133.92 C 74.53 140.58 74.23 147.26 74.60 153.91 C 75.01 157.59 80.03 159.16 82.69 156.75 C 84.97 154.87 84.33 151.60 84.48 149.00 C 84.30 143.35 84.70 137.67 84.30 132.03 C 83.95 128.89 80.08 126.96 77.31 128.42 Z" />
<path fill="#000000" opacity="1.00" d=" M 105.26 118.34 C 108.77 116.65 113.10 120.16 112.10 123.95 C 111.58 127.48 106.93 129.09 104.20 126.94 C 101.21 124.86 101.78 119.59 105.26 118.34 Z" />
<path fill="#000000" opacity="1.00" d=" M 125.19 118.37 C 127.94 117.00 131.57 118.89 132.11 121.90 C 132.57 123.69 131.52 125.37 130.84 126.95 C 124.42 139.59 118.20 152.33 111.77 164.96 C 110.57 167.85 106.55 168.90 104.14 166.86 C 102.00 165.30 101.76 162.22 103.07 160.06 C 109.39 147.38 115.77 134.72 122.06 122.04 C 122.84 120.64 123.59 118.98 125.19 118.37 Z" />
<path fill="#000000" opacity="1.00" d=" M 125.26 158.33 C 128.77 156.62 133.16 160.24 132.07 164.01 C 131.53 167.52 126.89 169.07 124.19 166.93 C 121.18 164.82 121.81 159.62 125.26 158.33 Z" />
<path fill="#000000" opacity="1.00" d=" M 9.21 179.15 C 15.78 176.14 24.20 178.99 27.80 185.20 C 31.10 190.55 29.73 197.08 30.00 203.01 C 29.78 209.17 31.07 216.04 27.36 221.45 C 22.87 228.32 12.48 229.85 6.01 224.94 C 2.61 222.61 0.84 218.68 0.00 214.77 L 0.00 191.47 C 0.75 186.14 4.14 181.18 9.21 179.15 M 13.18 188.28 C 9.52 189.52 9.95 193.92 9.97 197.01 C 10.25 202.91 9.52 208.89 10.36 214.75 C 11.73 219.26 19.28 218.71 19.82 213.95 C 20.20 206.97 19.99 199.95 19.94 192.97 C 20.18 189.52 16.30 186.95 13.18 188.28 Z" />
<path fill="#000000" opacity="1.00" d=" M 37.55 183.00 C 37.36 180.08 40.10 177.68 42.95 177.96 C 48.86 178.10 55.42 176.91 60.66 180.34 C 66.93 184.32 69.25 193.19 65.86 199.77 C 64.56 202.53 62.09 204.43 59.75 206.25 C 62.23 211.55 65.28 216.59 67.39 222.04 C 68.62 226.79 61.73 230.08 58.80 226.23 C 55.25 220.52 52.89 214.15 49.52 208.35 C 49.01 208.19 48.01 207.88 47.51 207.72 C 47.36 213.12 47.78 218.55 47.32 223.94 C 46.91 227.57 42.03 229.09 39.36 226.84 C 37.20 225.25 37.55 222.32 37.47 219.97 C 37.58 207.65 37.40 195.32 37.55 183.00 M 47.51 187.90 C 47.50 191.25 47.50 194.61 47.51 197.97 C 50.20 197.75 53.34 198.54 55.68 196.80 C 58.44 194.70 57.89 189.81 54.68 188.44 C 52.39 187.65 49.89 188.01 47.51 187.90 Z" />
<path fill="#000000" opacity="1.00" d=" M 77.53 184.53 C 81.63 178.21 90.70 176.24 97.23 179.80 C 102.31 182.44 105.43 188.32 104.85 194.00 C 104.35 197.20 100.36 198.88 97.61 197.33 C 94.01 195.67 96.00 190.32 92.46 188.59 C 89.40 186.64 84.87 189.20 85.06 192.84 C 84.95 199.57 84.93 206.32 85.07 213.05 C 84.90 216.41 88.70 218.85 91.74 217.60 C 93.71 217.06 94.47 215.03 95.19 213.34 C 93.37 212.54 91.00 211.94 90.36 209.78 C 89.01 206.67 91.55 202.77 94.99 202.98 C 98.35 202.80 103.23 202.21 104.66 206.16 C 105.61 212.12 105.19 219.18 100.56 223.61 C 94.48 229.76 83.14 229.05 78.03 222.02 C 73.83 216.59 75.23 209.40 75.00 203.05 C 75.26 196.87 73.87 190.00 77.53 184.53 Z" />
<path fill="#000000" opacity="1.00" d=" M 123.44 178.53 C 130.10 176.46 137.83 179.96 140.86 186.20 C 143.24 190.78 142.35 196.08 142.50 201.03 C 142.36 208.67 142.77 216.32 142.32 223.94 C 141.81 228.64 134.41 229.28 132.91 224.90 C 132.08 220.99 132.64 216.95 132.52 212.98 C 129.17 212.91 125.82 212.92 122.47 212.99 C 122.37 216.93 122.91 220.95 122.11 224.84 C 120.66 229.25 113.25 228.69 112.68 224.00 C 112.26 213.70 112.60 203.36 112.52 193.05 C 112.40 186.47 117.10 180.25 123.44 178.53 M 122.85 191.14 C 122.13 195.02 122.62 199.01 122.52 202.93 C 125.84 202.93 129.17 202.93 132.49 202.93 C 132.38 199.00 132.88 195.02 132.15 191.13 C 130.86 186.96 124.12 186.96 122.85 191.14 Z" />
<path fill="#000000" opacity="1.00" d=" M 150.07 182.91 C 149.76 178.34 156.45 176.12 158.91 179.96 C 163.69 187.72 167.85 195.87 172.48 203.73 C 172.59 196.82 172.38 189.91 172.55 183.01 C 172.23 179.15 177.11 176.49 180.22 178.74 C 182.75 180.23 182.52 183.43 182.53 185.97 C 182.40 198.31 182.64 210.65 182.43 222.98 C 182.74 227.72 175.63 229.80 173.38 225.62 C 168.76 217.86 164.51 209.87 160.01 202.04 C 159.92 209.06 160.15 216.09 159.92 223.10 C 160.10 227.01 155.07 229.30 152.07 227.00 C 149.73 225.48 150.02 222.42 149.97 220.01 C 150.10 207.64 149.88 195.27 150.07 182.91 Z" />
<path fill="#000000" opacity="1.00" d=" M 192.40 178.66 C 194.95 176.98 198.76 178.35 199.69 181.23 C 200.12 183.11 200.00 185.07 200.03 186.99 C 199.91 199.01 200.14 211.04 199.93 223.06 C 200.08 226.42 196.29 228.84 193.25 227.60 C 190.90 226.88 189.84 224.32 190.01 222.03 C 189.99 209.34 190.01 196.64 190.00 183.95 C 189.88 181.92 190.53 179.71 192.40 178.66 Z" />
<path fill="#000000" opacity="1.00" d=" M 218.42 178.58 C 226.87 175.93 236.66 182.17 237.34 191.11 C 238.65 195.09 234.53 199.31 230.58 197.54 C 226.38 196.16 228.62 190.08 224.70 188.45 C 221.56 186.71 217.28 189.42 217.55 193.01 C 217.46 199.67 217.44 206.34 217.56 213.01 C 217.35 216.71 221.96 219.24 225.02 217.25 C 228.38 215.53 226.62 210.56 229.81 208.72 C 232.60 206.76 236.92 208.64 237.41 212.01 C 237.84 217.81 234.61 223.81 229.27 226.27 C 222.68 229.61 213.70 227.42 209.83 221.00 C 206.45 215.62 207.75 208.98 207.50 202.98 C 207.69 197.84 206.86 192.51 208.52 187.54 C 210.05 183.13 213.94 179.77 218.42 178.58 Z" />
</g>
<g id="#cbe558ff">
<path fill="#cbe558" opacity="1.00" d=" M 94.06 38.68 C 105.55 36.91 117.71 39.12 127.45 45.57 C 139.24 53.22 147.23 65.78 150.90 79.20 C 143.79 70.01 135.90 61.41 127.25 53.64 C 124.72 51.00 119.80 52.48 119.05 56.03 C 118.05 59.42 121.27 61.63 123.36 63.66 C 134.33 74.08 144.52 85.64 151.72 99.03 C 141.16 98.35 130.03 96.96 121.10 90.79 C 112.97 85.20 108.43 75.96 105.40 66.85 C 102.34 57.20 99.11 47.51 94.06 38.68 Z" />
<path fill="#cbe558" opacity="1.00" d=" M 185.39 81.33 C 201.25 68.61 222.78 64.12 242.59 68.11 C 233.15 82.73 228.79 99.74 222.84 115.90 C 219.06 126.11 213.74 136.18 205.16 143.17 C 190.74 154.71 171.52 156.89 153.70 157.70 C 160.11 144.19 169.29 132.23 179.10 121.02 C 181.22 118.34 184.24 116.22 185.52 112.98 C 186.89 108.46 180.52 104.73 177.32 108.22 C 168.66 117.21 160.84 127.00 153.76 137.27 C 157.49 115.80 168.01 94.90 185.39 81.33 M 195.18 91.33 C 191.92 92.23 190.62 96.64 192.77 99.22 C 195.02 102.26 200.50 101.35 201.44 97.61 C 202.83 93.96 198.85 89.96 195.18 91.33 Z" />
</g>
</svg>
